G04 (created by PCBNEW-RS274X (2011-nov-30)-testing) date Mon 27 Feb 2012 01:24:57 PM EST*
G01*
G70*
G90*
%MOIN*%
G04 Gerber Fmt 3.4, Leading zero omitted, Abs format*
%FSLAX34Y34*%
G04 APERTURE LIST*
%ADD10C,0.006000*%
%ADD11C,0.100000*%
%ADD12C,0.059100*%
%ADD13C,0.137800*%
%ADD14C,0.060000*%
%ADD15C,0.126000*%
%ADD16R,0.060000X0.060000*%
%ADD17C,0.035000*%
%ADD18C,0.045000*%
%ADD19C,0.017000*%
%ADD20C,0.015000*%
%ADD21C,0.025000*%
%ADD22C,0.030000*%
%ADD23C,0.040000*%
%ADD24C,0.010000*%
G04 APERTURE END LIST*
G54D10*
G54D11*
X52520Y-49386D03*
X52520Y-47575D03*
X55080Y-49386D03*
X55080Y-47614D03*
G54D12*
X58610Y-48030D03*
X59590Y-48030D03*
X59590Y-47240D03*
X58610Y-47240D03*
G54D13*
X56730Y-49100D03*
X61470Y-49100D03*
G54D14*
X59775Y-33995D03*
X60625Y-33995D03*
X58075Y-33995D03*
X58925Y-33995D03*
X59775Y-32305D03*
X58925Y-32305D03*
X58075Y-32305D03*
X60625Y-32305D03*
X57225Y-33995D03*
X56375Y-33995D03*
X55525Y-33995D03*
X54675Y-33995D03*
X57225Y-32305D03*
X56375Y-32305D03*
X55525Y-32305D03*
X54675Y-32305D03*
X61475Y-33995D03*
X62325Y-33995D03*
X63175Y-33995D03*
X64025Y-33995D03*
X61475Y-32305D03*
X62325Y-32305D03*
X63175Y-32305D03*
X64025Y-32305D03*
G54D15*
X68565Y-33150D03*
X50135Y-33150D03*
G54D16*
X49450Y-44500D03*
G54D14*
X49450Y-45500D03*
X49450Y-46500D03*
X49450Y-47500D03*
X49450Y-48500D03*
X49450Y-49500D03*
G54D17*
X56850Y-43650D03*
X62550Y-45100D03*
X60150Y-43600D03*
X69100Y-41300D03*
X50354Y-42323D03*
X65800Y-41300D03*
G54D18*
X66000Y-33900D03*
G54D17*
X56800Y-36500D03*
X54900Y-39500D03*
G54D18*
X68500Y-35000D03*
G54D17*
X55100Y-37500D03*
G54D18*
X67300Y-35000D03*
G54D17*
X55600Y-42350D03*
X50700Y-35600D03*
X58500Y-33200D03*
X50950Y-45200D03*
X54950Y-42200D03*
X58100Y-36000D03*
G54D18*
X65300Y-34000D03*
G54D17*
X56400Y-42350D03*
X55700Y-37000D03*
G54D18*
X66800Y-33900D03*
G54D17*
X59300Y-34700D03*
X51100Y-36800D03*
G54D18*
X60400Y-40400D03*
X59200Y-40400D03*
G54D17*
X63937Y-39764D03*
X49000Y-36200D03*
G54D18*
X58800Y-42900D03*
G54D17*
X50200Y-40100D03*
X49000Y-37400D03*
X52400Y-40000D03*
G54D18*
X58100Y-40800D03*
G54D17*
X62900Y-43000D03*
G54D18*
X61600Y-40400D03*
X57300Y-40200D03*
G54D17*
X51300Y-40000D03*
X49100Y-40200D03*
X54600Y-37800D03*
G54D18*
X59600Y-46700D03*
G54D19*
X66000Y-33900D02*
X66000Y-34600D01*
X66000Y-34600D02*
X64100Y-36500D01*
X64100Y-36500D02*
X56800Y-36500D01*
X68500Y-35000D02*
X65400Y-38100D01*
X54900Y-38100D02*
X54900Y-38100D01*
X65400Y-38100D02*
X54900Y-38100D01*
X54900Y-38100D02*
X54900Y-39500D01*
X64800Y-37500D02*
X55100Y-37500D01*
X67300Y-35000D02*
X64800Y-37500D01*
G54D20*
X50450Y-47500D02*
X55600Y-42350D01*
X49450Y-47500D02*
X50450Y-47500D01*
G54D19*
X51000Y-35300D02*
X50700Y-35600D01*
X53100Y-33200D02*
X51000Y-35300D01*
X58500Y-33200D02*
X53100Y-33200D01*
G54D20*
X50950Y-45200D02*
X51000Y-45150D01*
X51000Y-45150D02*
X52100Y-45150D01*
X52100Y-45150D02*
X54950Y-42300D01*
X54950Y-42300D02*
X54950Y-42200D01*
G54D19*
X63300Y-36000D02*
X58100Y-36000D01*
X65300Y-34000D02*
X63300Y-36000D01*
G54D20*
X49450Y-48500D02*
X50250Y-48500D01*
X50250Y-48500D02*
X56400Y-42350D01*
G54D19*
X66800Y-34600D02*
X64400Y-37000D01*
X64400Y-37000D02*
X55700Y-37000D01*
X66800Y-33900D02*
X66800Y-34600D01*
X52600Y-35300D02*
X51100Y-36800D01*
X58700Y-35300D02*
X52600Y-35300D01*
X59300Y-34700D02*
X58700Y-35300D01*
G54D21*
X63937Y-39764D02*
X63301Y-40400D01*
X63301Y-40400D02*
X61600Y-40400D01*
G54D19*
X50300Y-40200D02*
X50500Y-40200D01*
G54D22*
X59600Y-46700D02*
X59600Y-46200D01*
G54D23*
X58800Y-40800D02*
X59200Y-40400D01*
X58100Y-40800D02*
X58800Y-40800D01*
X60000Y-42500D02*
X59600Y-42900D01*
X58800Y-40800D02*
X58800Y-42900D01*
X62400Y-42500D02*
X60000Y-42500D01*
X62900Y-43000D02*
X62400Y-42500D01*
X59600Y-42900D02*
X59600Y-46200D01*
X49000Y-36200D02*
X49000Y-37400D01*
G54D21*
X49450Y-45500D02*
X49750Y-45500D01*
X49100Y-43500D02*
X49100Y-40200D01*
X49250Y-43650D02*
X49100Y-43500D01*
X49900Y-43650D02*
X49250Y-43650D01*
X50400Y-44150D02*
X49900Y-43650D01*
G54D19*
X51300Y-40000D02*
X51500Y-40200D01*
G54D23*
X59200Y-40400D02*
X61600Y-40400D01*
X50500Y-40200D02*
X51500Y-40200D01*
G54D19*
X50200Y-40100D02*
X50300Y-40200D01*
G54D21*
X49750Y-45500D02*
X50400Y-44850D01*
X50400Y-44850D02*
X50400Y-44150D01*
G54D23*
X52100Y-40200D02*
X52600Y-40200D01*
X51500Y-40200D02*
X52100Y-40200D01*
X49100Y-40200D02*
X50500Y-40200D01*
X52400Y-40000D02*
X52600Y-40200D01*
X52600Y-40200D02*
X55100Y-40200D01*
X55100Y-40200D02*
X57300Y-40200D01*
G54D19*
X55000Y-40200D02*
X55100Y-40200D01*
X54500Y-39700D02*
X55000Y-40200D01*
X54500Y-37900D02*
X54500Y-39700D01*
X54600Y-37800D02*
X54500Y-37900D01*
G54D23*
X57300Y-40200D02*
X58100Y-40200D01*
X58100Y-40800D02*
X58100Y-40200D01*
X49000Y-37400D02*
X49000Y-40100D01*
X49000Y-40100D02*
X49100Y-40200D01*
X59600Y-42900D02*
X58800Y-42900D01*
G54D10*
G36*
X69850Y-50175D02*
X69445Y-50175D01*
X69445Y-33326D01*
X69445Y-32976D01*
X69311Y-32652D01*
X69064Y-32405D01*
X68741Y-32270D01*
X68391Y-32270D01*
X68067Y-32404D01*
X67820Y-32651D01*
X67685Y-32974D01*
X67685Y-33324D01*
X67819Y-33648D01*
X68066Y-33895D01*
X68389Y-34030D01*
X68739Y-34030D01*
X69063Y-33896D01*
X69310Y-33649D01*
X69445Y-33326D01*
X69445Y-50175D01*
X62410Y-50175D01*
X62410Y-49274D01*
X62406Y-48901D01*
X62272Y-48580D01*
X62137Y-48504D01*
X62066Y-48575D01*
X62066Y-48433D01*
X61990Y-48298D01*
X61644Y-48160D01*
X61271Y-48164D01*
X60950Y-48298D01*
X60874Y-48433D01*
X61470Y-49029D01*
X62066Y-48433D01*
X62066Y-48575D01*
X61541Y-49100D01*
X62137Y-49696D01*
X62272Y-49620D01*
X62410Y-49274D01*
X62410Y-50175D01*
X62066Y-50175D01*
X62066Y-49767D01*
X61470Y-49171D01*
X61399Y-49242D01*
X61399Y-49100D01*
X60803Y-48504D01*
X60668Y-48580D01*
X60530Y-48926D01*
X60534Y-49299D01*
X60668Y-49620D01*
X60803Y-49696D01*
X61399Y-49100D01*
X61399Y-49242D01*
X60874Y-49767D01*
X60950Y-49902D01*
X61296Y-50040D01*
X61669Y-50036D01*
X61990Y-49902D01*
X62066Y-49767D01*
X62066Y-50175D01*
X60138Y-50175D01*
X60138Y-48110D01*
X60127Y-47894D01*
X60066Y-47746D01*
X59972Y-47719D01*
X59661Y-48030D01*
X59972Y-48341D01*
X60066Y-48314D01*
X60138Y-48110D01*
X60138Y-50175D01*
X59901Y-50175D01*
X59901Y-48412D01*
X59590Y-48101D01*
X59279Y-48412D01*
X59306Y-48506D01*
X59510Y-48578D01*
X59726Y-48567D01*
X59874Y-48506D01*
X59901Y-48412D01*
X59901Y-50175D01*
X57670Y-50175D01*
X57670Y-49274D01*
X57666Y-48901D01*
X57532Y-48580D01*
X57397Y-48504D01*
X57326Y-48575D01*
X57326Y-48433D01*
X57250Y-48298D01*
X56904Y-48160D01*
X56531Y-48164D01*
X56210Y-48298D01*
X56134Y-48433D01*
X56730Y-49029D01*
X57326Y-48433D01*
X57326Y-48575D01*
X56801Y-49100D01*
X57397Y-49696D01*
X57532Y-49620D01*
X57670Y-49274D01*
X57670Y-50175D01*
X57326Y-50175D01*
X57326Y-49767D01*
X56730Y-49171D01*
X56659Y-49242D01*
X56659Y-49100D01*
X56063Y-48504D01*
X55928Y-48580D01*
X55833Y-48818D01*
X55833Y-47743D01*
X55825Y-47446D01*
X55726Y-47207D01*
X55610Y-47154D01*
X55540Y-47224D01*
X55540Y-47084D01*
X55487Y-46968D01*
X55209Y-46861D01*
X54912Y-46869D01*
X54673Y-46968D01*
X54620Y-47084D01*
X55080Y-47543D01*
X55540Y-47084D01*
X55540Y-47224D01*
X55151Y-47614D01*
X55610Y-48074D01*
X55726Y-48021D01*
X55833Y-47743D01*
X55833Y-48818D01*
X55790Y-48926D01*
X55792Y-49139D01*
X55726Y-48979D01*
X55610Y-48926D01*
X55540Y-48996D01*
X55540Y-48856D01*
X55540Y-48144D01*
X55080Y-47685D01*
X55009Y-47755D01*
X55009Y-47614D01*
X54550Y-47154D01*
X54434Y-47207D01*
X54327Y-47485D01*
X54335Y-47782D01*
X54434Y-48021D01*
X54550Y-48074D01*
X55009Y-47614D01*
X55009Y-47755D01*
X54620Y-48144D01*
X54673Y-48260D01*
X54951Y-48367D01*
X55248Y-48359D01*
X55487Y-48260D01*
X55540Y-48144D01*
X55540Y-48856D01*
X55487Y-48740D01*
X55209Y-48633D01*
X54912Y-48641D01*
X54673Y-48740D01*
X54620Y-48856D01*
X55080Y-49315D01*
X55540Y-48856D01*
X55540Y-48996D01*
X55151Y-49386D01*
X55610Y-49846D01*
X55726Y-49793D01*
X55833Y-49515D01*
X55829Y-49383D01*
X55928Y-49620D01*
X56063Y-49696D01*
X56659Y-49100D01*
X56659Y-49242D01*
X56134Y-49767D01*
X56210Y-49902D01*
X56556Y-50040D01*
X56929Y-50036D01*
X57250Y-49902D01*
X57326Y-49767D01*
X57326Y-50175D01*
X55540Y-50175D01*
X55540Y-49916D01*
X55080Y-49457D01*
X55009Y-49527D01*
X55009Y-49386D01*
X54550Y-48926D01*
X54434Y-48979D01*
X54327Y-49257D01*
X54335Y-49554D01*
X54434Y-49793D01*
X54550Y-49846D01*
X55009Y-49386D01*
X55009Y-49527D01*
X54620Y-49916D01*
X54673Y-50032D01*
X54951Y-50139D01*
X55248Y-50131D01*
X55487Y-50032D01*
X55540Y-49916D01*
X55540Y-50175D01*
X54025Y-50175D01*
X53273Y-50171D01*
X53273Y-49515D01*
X53265Y-49218D01*
X53166Y-48979D01*
X53050Y-48926D01*
X52980Y-48996D01*
X52980Y-48856D01*
X52927Y-48740D01*
X52649Y-48633D01*
X52352Y-48641D01*
X52113Y-48740D01*
X52060Y-48856D01*
X52520Y-49315D01*
X52980Y-48856D01*
X52980Y-48996D01*
X52591Y-49386D01*
X53050Y-49846D01*
X53166Y-49793D01*
X53273Y-49515D01*
X53273Y-50171D01*
X52980Y-50169D01*
X52980Y-49916D01*
X52520Y-49457D01*
X52449Y-49527D01*
X52449Y-49386D01*
X51990Y-48926D01*
X51874Y-48979D01*
X51767Y-49257D01*
X51775Y-49554D01*
X51874Y-49793D01*
X51990Y-49846D01*
X52449Y-49386D01*
X52449Y-49527D01*
X52060Y-49916D01*
X52113Y-50032D01*
X52391Y-50139D01*
X52688Y-50131D01*
X52927Y-50032D01*
X52980Y-49916D01*
X52980Y-50169D01*
X48825Y-50150D01*
X48825Y-43750D01*
X48835Y-43765D01*
X48985Y-43915D01*
X49062Y-43966D01*
X49009Y-43989D01*
X48939Y-44059D01*
X48901Y-44150D01*
X48901Y-44249D01*
X48901Y-44849D01*
X48939Y-44941D01*
X49009Y-45011D01*
X49100Y-45049D01*
X49125Y-45049D01*
X48985Y-45189D01*
X48901Y-45391D01*
X48901Y-45609D01*
X48985Y-45811D01*
X49139Y-45965D01*
X49217Y-45997D01*
X49164Y-46020D01*
X49135Y-46115D01*
X49450Y-46429D01*
X49765Y-46115D01*
X49736Y-46020D01*
X49678Y-45999D01*
X49761Y-45965D01*
X49876Y-45849D01*
X49893Y-45846D01*
X49894Y-45846D01*
X50015Y-45765D01*
X50525Y-45255D01*
X50525Y-45284D01*
X50589Y-45440D01*
X50709Y-45560D01*
X50865Y-45625D01*
X51034Y-45625D01*
X51190Y-45561D01*
X51276Y-45475D01*
X52015Y-45475D01*
X50315Y-47175D01*
X50003Y-47175D01*
X50003Y-46581D01*
X49992Y-46363D01*
X49930Y-46214D01*
X49835Y-46185D01*
X49521Y-46500D01*
X49835Y-46815D01*
X49930Y-46786D01*
X50003Y-46581D01*
X50003Y-47175D01*
X49901Y-47175D01*
X49761Y-47035D01*
X49682Y-47002D01*
X49736Y-46980D01*
X49765Y-46885D01*
X49450Y-46571D01*
X49379Y-46641D01*
X49379Y-46500D01*
X49065Y-46185D01*
X48970Y-46214D01*
X48897Y-46419D01*
X48908Y-46637D01*
X48970Y-46786D01*
X49065Y-46815D01*
X49379Y-46500D01*
X49379Y-46641D01*
X49135Y-46885D01*
X49164Y-46980D01*
X49221Y-47000D01*
X49139Y-47035D01*
X48985Y-47189D01*
X48901Y-47391D01*
X48901Y-47609D01*
X48985Y-47811D01*
X49139Y-47965D01*
X49223Y-48000D01*
X49139Y-48035D01*
X48985Y-48189D01*
X48901Y-48391D01*
X48901Y-48609D01*
X48985Y-48811D01*
X49139Y-48965D01*
X49223Y-49000D01*
X49139Y-49035D01*
X48985Y-49189D01*
X48901Y-49391D01*
X48901Y-49609D01*
X48985Y-49811D01*
X49139Y-49965D01*
X49341Y-50049D01*
X49559Y-50049D01*
X49761Y-49965D01*
X49915Y-49811D01*
X49999Y-49609D01*
X49999Y-49391D01*
X49915Y-49189D01*
X49761Y-49035D01*
X49676Y-49000D01*
X49761Y-48965D01*
X49901Y-48825D01*
X50250Y-48825D01*
X50374Y-48800D01*
X50480Y-48730D01*
X51771Y-47439D01*
X51771Y-47723D01*
X51885Y-47998D01*
X52095Y-48209D01*
X52370Y-48324D01*
X52668Y-48324D01*
X52943Y-48210D01*
X53154Y-48000D01*
X53269Y-47725D01*
X53269Y-47427D01*
X53155Y-47152D01*
X52945Y-46941D01*
X52670Y-46826D01*
X52384Y-46826D01*
X56435Y-42775D01*
X56484Y-42775D01*
X56640Y-42711D01*
X56760Y-42591D01*
X56825Y-42435D01*
X56825Y-42266D01*
X56761Y-42110D01*
X56641Y-41990D01*
X56485Y-41925D01*
X56316Y-41925D01*
X56160Y-41989D01*
X56040Y-42109D01*
X55999Y-42205D01*
X55961Y-42110D01*
X55841Y-41990D01*
X55685Y-41925D01*
X55516Y-41925D01*
X55360Y-41989D01*
X55333Y-42015D01*
X55311Y-41960D01*
X55191Y-41840D01*
X55035Y-41775D01*
X54866Y-41775D01*
X54710Y-41839D01*
X54590Y-41959D01*
X54525Y-42115D01*
X54525Y-42265D01*
X51965Y-44825D01*
X51155Y-44825D01*
X51035Y-44775D01*
X50866Y-44775D01*
X50775Y-44812D01*
X50775Y-44150D01*
X50746Y-44007D01*
X50746Y-44006D01*
X50665Y-43885D01*
X50165Y-43385D01*
X50044Y-43304D01*
X49900Y-43275D01*
X49475Y-43275D01*
X49475Y-40650D01*
X50500Y-40650D01*
X51500Y-40650D01*
X52100Y-40650D01*
X52600Y-40650D01*
X55100Y-40650D01*
X57145Y-40650D01*
X57205Y-40675D01*
X57394Y-40675D01*
X57454Y-40650D01*
X57648Y-40650D01*
X57625Y-40705D01*
X57625Y-40894D01*
X57697Y-41069D01*
X57831Y-41202D01*
X58005Y-41275D01*
X58194Y-41275D01*
X58254Y-41250D01*
X58350Y-41250D01*
X58350Y-42745D01*
X58325Y-42805D01*
X58325Y-42994D01*
X58397Y-43169D01*
X58531Y-43302D01*
X58705Y-43375D01*
X58894Y-43375D01*
X58954Y-43350D01*
X59150Y-43350D01*
X59150Y-46200D01*
X59184Y-46372D01*
X59200Y-46395D01*
X59200Y-46428D01*
X59198Y-46431D01*
X59125Y-46605D01*
X59125Y-46794D01*
X59166Y-46894D01*
X59129Y-46932D01*
X59100Y-47001D01*
X59071Y-46932D01*
X58918Y-46779D01*
X58718Y-46696D01*
X58502Y-46696D01*
X58302Y-46779D01*
X58149Y-46932D01*
X58066Y-47132D01*
X58066Y-47348D01*
X58149Y-47548D01*
X58236Y-47635D01*
X58149Y-47722D01*
X58066Y-47922D01*
X58066Y-48138D01*
X58149Y-48338D01*
X58302Y-48491D01*
X58502Y-48574D01*
X58718Y-48574D01*
X58918Y-48491D01*
X59071Y-48338D01*
X59097Y-48274D01*
X59114Y-48314D01*
X59208Y-48341D01*
X59519Y-48030D01*
X59208Y-47719D01*
X59114Y-47746D01*
X59098Y-47789D01*
X59071Y-47722D01*
X58984Y-47635D01*
X59071Y-47548D01*
X59100Y-47478D01*
X59129Y-47548D01*
X59282Y-47701D01*
X59367Y-47736D01*
X59590Y-47959D01*
X59812Y-47736D01*
X59898Y-47701D01*
X60051Y-47548D01*
X60134Y-47348D01*
X60134Y-47132D01*
X60051Y-46932D01*
X60027Y-46908D01*
X60075Y-46795D01*
X60075Y-46606D01*
X60003Y-46431D01*
X60000Y-46428D01*
X60000Y-46395D01*
X60016Y-46372D01*
X60050Y-46200D01*
X60050Y-43086D01*
X60186Y-42950D01*
X62214Y-42950D01*
X62582Y-43318D01*
X62727Y-43416D01*
X62900Y-43450D01*
X63072Y-43416D01*
X63218Y-43318D01*
X63316Y-43172D01*
X63350Y-43000D01*
X63316Y-42827D01*
X63218Y-42682D01*
X62718Y-42182D01*
X62573Y-42084D01*
X62400Y-42050D01*
X60000Y-42050D01*
X59828Y-42084D01*
X59779Y-42116D01*
X59681Y-42182D01*
X59413Y-42450D01*
X59250Y-42450D01*
X59250Y-40986D01*
X59386Y-40850D01*
X60245Y-40850D01*
X60305Y-40875D01*
X60494Y-40875D01*
X60554Y-40850D01*
X61445Y-40850D01*
X61505Y-40875D01*
X61694Y-40875D01*
X61869Y-40803D01*
X61896Y-40775D01*
X63301Y-40775D01*
X63444Y-40746D01*
X63445Y-40746D01*
X63566Y-40665D01*
X64056Y-40174D01*
X64177Y-40125D01*
X64297Y-40005D01*
X64362Y-39849D01*
X64362Y-39680D01*
X64298Y-39524D01*
X64178Y-39404D01*
X64022Y-39339D01*
X63853Y-39339D01*
X63697Y-39403D01*
X63577Y-39523D01*
X63526Y-39644D01*
X63146Y-40025D01*
X61896Y-40025D01*
X61869Y-39998D01*
X61695Y-39925D01*
X61506Y-39925D01*
X61445Y-39950D01*
X60554Y-39950D01*
X60495Y-39925D01*
X60306Y-39925D01*
X60245Y-39950D01*
X59354Y-39950D01*
X59295Y-39925D01*
X59106Y-39925D01*
X58931Y-39997D01*
X58798Y-40131D01*
X58773Y-40190D01*
X58613Y-40350D01*
X58550Y-40350D01*
X58550Y-40200D01*
X58516Y-40028D01*
X58418Y-39882D01*
X58272Y-39784D01*
X58100Y-39750D01*
X57454Y-39750D01*
X57395Y-39725D01*
X57206Y-39725D01*
X57145Y-39750D01*
X55251Y-39750D01*
X55260Y-39741D01*
X55325Y-39585D01*
X55325Y-39416D01*
X55261Y-39260D01*
X55235Y-39234D01*
X55235Y-38435D01*
X65400Y-38435D01*
X65528Y-38409D01*
X65637Y-38337D01*
X68499Y-35475D01*
X68594Y-35475D01*
X68769Y-35403D01*
X68902Y-35269D01*
X68975Y-35095D01*
X68975Y-34906D01*
X68903Y-34731D01*
X68769Y-34598D01*
X68595Y-34525D01*
X68406Y-34525D01*
X68231Y-34597D01*
X68098Y-34731D01*
X68025Y-34905D01*
X68025Y-35001D01*
X65261Y-37765D01*
X64994Y-37765D01*
X65037Y-37737D01*
X67299Y-35475D01*
X67394Y-35475D01*
X67569Y-35403D01*
X67702Y-35269D01*
X67775Y-35095D01*
X67775Y-34906D01*
X67703Y-34731D01*
X67569Y-34598D01*
X67395Y-34525D01*
X67206Y-34525D01*
X67135Y-34554D01*
X67135Y-34236D01*
X67202Y-34169D01*
X67275Y-33995D01*
X67275Y-33806D01*
X67203Y-33631D01*
X67069Y-33498D01*
X66895Y-33425D01*
X66706Y-33425D01*
X66531Y-33497D01*
X66400Y-33628D01*
X66269Y-33498D01*
X66095Y-33425D01*
X65906Y-33425D01*
X65731Y-33497D01*
X65600Y-33628D01*
X65569Y-33598D01*
X65395Y-33525D01*
X65206Y-33525D01*
X65031Y-33597D01*
X64898Y-33731D01*
X64825Y-33905D01*
X64825Y-34001D01*
X63161Y-35665D01*
X58366Y-35665D01*
X58341Y-35640D01*
X58329Y-35635D01*
X58700Y-35635D01*
X58828Y-35609D01*
X58937Y-35537D01*
X59349Y-35125D01*
X59384Y-35125D01*
X59540Y-35061D01*
X59660Y-34941D01*
X59725Y-34785D01*
X59725Y-34616D01*
X59695Y-34544D01*
X59884Y-34544D01*
X60086Y-34460D01*
X60200Y-34346D01*
X60314Y-34460D01*
X60516Y-34544D01*
X60734Y-34544D01*
X60936Y-34460D01*
X61050Y-34346D01*
X61164Y-34460D01*
X61366Y-34544D01*
X61584Y-34544D01*
X61786Y-34460D01*
X61900Y-34346D01*
X62014Y-34460D01*
X62216Y-34544D01*
X62434Y-34544D01*
X62636Y-34460D01*
X62750Y-34346D01*
X62864Y-34460D01*
X63066Y-34544D01*
X63284Y-34544D01*
X63486Y-34460D01*
X63600Y-34346D01*
X63714Y-34460D01*
X63916Y-34544D01*
X64134Y-34544D01*
X64336Y-34460D01*
X64490Y-34306D01*
X64574Y-34104D01*
X64574Y-33886D01*
X64574Y-32414D01*
X64574Y-32196D01*
X64490Y-31994D01*
X64336Y-31840D01*
X64134Y-31756D01*
X63916Y-31756D01*
X63714Y-31840D01*
X63600Y-31954D01*
X63486Y-31840D01*
X63284Y-31756D01*
X63066Y-31756D01*
X62864Y-31840D01*
X62750Y-31954D01*
X62636Y-31840D01*
X62434Y-31756D01*
X62216Y-31756D01*
X62014Y-31840D01*
X61900Y-31954D01*
X61786Y-31840D01*
X61584Y-31756D01*
X61366Y-31756D01*
X61164Y-31840D01*
X61050Y-31954D01*
X60936Y-31840D01*
X60734Y-31756D01*
X60516Y-31756D01*
X60314Y-31840D01*
X60163Y-31990D01*
X60160Y-31990D01*
X60090Y-32060D01*
X60090Y-31920D01*
X60061Y-31825D01*
X59856Y-31752D01*
X59638Y-31763D01*
X59489Y-31825D01*
X59460Y-31920D01*
X59775Y-32234D01*
X60090Y-31920D01*
X60090Y-32060D01*
X59846Y-32305D01*
X60160Y-32620D01*
X60163Y-32619D01*
X60314Y-32770D01*
X60516Y-32854D01*
X60734Y-32854D01*
X60936Y-32770D01*
X61050Y-32656D01*
X61164Y-32770D01*
X61366Y-32854D01*
X61584Y-32854D01*
X61786Y-32770D01*
X61900Y-32656D01*
X62014Y-32770D01*
X62216Y-32854D01*
X62434Y-32854D01*
X62636Y-32770D01*
X62750Y-32656D01*
X62864Y-32770D01*
X63066Y-32854D01*
X63284Y-32854D01*
X63486Y-32770D01*
X63600Y-32656D01*
X63714Y-32770D01*
X63916Y-32854D01*
X64134Y-32854D01*
X64336Y-32770D01*
X64490Y-32616D01*
X64574Y-32414D01*
X64574Y-33886D01*
X64490Y-33684D01*
X64336Y-33530D01*
X64134Y-33446D01*
X63916Y-33446D01*
X63714Y-33530D01*
X63600Y-33644D01*
X63486Y-33530D01*
X63284Y-33446D01*
X63066Y-33446D01*
X62864Y-33530D01*
X62750Y-33644D01*
X62636Y-33530D01*
X62434Y-33446D01*
X62216Y-33446D01*
X62014Y-33530D01*
X61900Y-33644D01*
X61786Y-33530D01*
X61584Y-33446D01*
X61366Y-33446D01*
X61164Y-33530D01*
X61050Y-33644D01*
X60936Y-33530D01*
X60734Y-33446D01*
X60516Y-33446D01*
X60314Y-33530D01*
X60200Y-33644D01*
X60090Y-33534D01*
X60090Y-32690D01*
X59775Y-32376D01*
X59704Y-32446D01*
X59704Y-32305D01*
X59390Y-31990D01*
X59350Y-32002D01*
X59310Y-31990D01*
X59240Y-32060D01*
X59240Y-31920D01*
X59211Y-31825D01*
X59006Y-31752D01*
X58788Y-31763D01*
X58639Y-31825D01*
X58610Y-31920D01*
X58925Y-32234D01*
X59240Y-31920D01*
X59240Y-32060D01*
X58996Y-32305D01*
X59310Y-32620D01*
X59350Y-32607D01*
X59390Y-32620D01*
X59704Y-32305D01*
X59704Y-32446D01*
X59460Y-32690D01*
X59489Y-32785D01*
X59694Y-32858D01*
X59912Y-32847D01*
X60061Y-32785D01*
X60090Y-32690D01*
X60090Y-33534D01*
X60086Y-33530D01*
X59884Y-33446D01*
X59666Y-33446D01*
X59464Y-33530D01*
X59350Y-33644D01*
X59240Y-33534D01*
X59240Y-32690D01*
X58925Y-32376D01*
X58854Y-32446D01*
X58854Y-32305D01*
X58540Y-31990D01*
X58500Y-32002D01*
X58460Y-31990D01*
X58390Y-32060D01*
X58390Y-31920D01*
X58361Y-31825D01*
X58156Y-31752D01*
X57938Y-31763D01*
X57789Y-31825D01*
X57760Y-31920D01*
X58075Y-32234D01*
X58390Y-31920D01*
X58390Y-32060D01*
X58146Y-32305D01*
X58460Y-32620D01*
X58500Y-32607D01*
X58540Y-32620D01*
X58854Y-32305D01*
X58854Y-32446D01*
X58610Y-32690D01*
X58639Y-32785D01*
X58844Y-32858D01*
X59062Y-32847D01*
X59211Y-32785D01*
X59240Y-32690D01*
X59240Y-33534D01*
X59236Y-33530D01*
X59034Y-33446D01*
X58855Y-33446D01*
X58860Y-33441D01*
X58925Y-33285D01*
X58925Y-33116D01*
X58861Y-32960D01*
X58741Y-32840D01*
X58585Y-32775D01*
X58416Y-32775D01*
X58390Y-32785D01*
X58390Y-32690D01*
X58075Y-32376D01*
X58004Y-32446D01*
X58004Y-32305D01*
X57690Y-31990D01*
X57650Y-32002D01*
X57610Y-31990D01*
X57540Y-32060D01*
X57540Y-31920D01*
X57511Y-31825D01*
X57306Y-31752D01*
X57088Y-31763D01*
X56939Y-31825D01*
X56910Y-31920D01*
X57225Y-32234D01*
X57540Y-31920D01*
X57540Y-32060D01*
X57296Y-32305D01*
X57610Y-32620D01*
X57650Y-32607D01*
X57690Y-32620D01*
X58004Y-32305D01*
X58004Y-32446D01*
X57760Y-32690D01*
X57789Y-32785D01*
X57994Y-32858D01*
X58212Y-32847D01*
X58361Y-32785D01*
X58390Y-32690D01*
X58390Y-32785D01*
X58260Y-32839D01*
X58234Y-32865D01*
X57540Y-32865D01*
X57540Y-32690D01*
X57225Y-32376D01*
X57154Y-32446D01*
X57154Y-32305D01*
X56840Y-31990D01*
X56800Y-32002D01*
X56760Y-31990D01*
X56690Y-32060D01*
X56690Y-31920D01*
X56661Y-31825D01*
X56456Y-31752D01*
X56238Y-31763D01*
X56089Y-31825D01*
X56060Y-31920D01*
X56375Y-32234D01*
X56690Y-31920D01*
X56690Y-32060D01*
X56446Y-32305D01*
X56760Y-32620D01*
X56800Y-32607D01*
X56840Y-32620D01*
X57154Y-32305D01*
X57154Y-32446D01*
X56910Y-32690D01*
X56939Y-32785D01*
X57144Y-32858D01*
X57362Y-32847D01*
X57511Y-32785D01*
X57540Y-32690D01*
X57540Y-32865D01*
X56690Y-32865D01*
X56690Y-32690D01*
X56375Y-32376D01*
X56304Y-32446D01*
X56304Y-32305D01*
X55990Y-31990D01*
X55950Y-32002D01*
X55910Y-31990D01*
X55840Y-32060D01*
X55840Y-31920D01*
X55811Y-31825D01*
X55606Y-31752D01*
X55388Y-31763D01*
X55239Y-31825D01*
X55210Y-31920D01*
X55525Y-32234D01*
X55840Y-31920D01*
X55840Y-32060D01*
X55596Y-32305D01*
X55910Y-32620D01*
X55950Y-32607D01*
X55990Y-32620D01*
X56304Y-32305D01*
X56304Y-32446D01*
X56060Y-32690D01*
X56089Y-32785D01*
X56294Y-32858D01*
X56512Y-32847D01*
X56661Y-32785D01*
X56690Y-32690D01*
X56690Y-32865D01*
X55840Y-32865D01*
X55840Y-32690D01*
X55525Y-32376D01*
X55454Y-32446D01*
X55454Y-32305D01*
X55140Y-31990D01*
X55100Y-32002D01*
X55060Y-31990D01*
X54990Y-32060D01*
X54990Y-31920D01*
X54961Y-31825D01*
X54756Y-31752D01*
X54538Y-31763D01*
X54389Y-31825D01*
X54360Y-31920D01*
X54675Y-32234D01*
X54990Y-31920D01*
X54990Y-32060D01*
X54746Y-32305D01*
X55060Y-32620D01*
X55100Y-32607D01*
X55140Y-32620D01*
X55454Y-32305D01*
X55454Y-32446D01*
X55210Y-32690D01*
X55239Y-32785D01*
X55444Y-32858D01*
X55662Y-32847D01*
X55811Y-32785D01*
X55840Y-32690D01*
X55840Y-32865D01*
X54990Y-32865D01*
X54990Y-32690D01*
X54675Y-32376D01*
X54604Y-32446D01*
X54604Y-32305D01*
X54290Y-31990D01*
X54195Y-32019D01*
X54122Y-32224D01*
X54133Y-32442D01*
X54195Y-32591D01*
X54290Y-32620D01*
X54604Y-32305D01*
X54604Y-32446D01*
X54360Y-32690D01*
X54389Y-32785D01*
X54594Y-32858D01*
X54812Y-32847D01*
X54961Y-32785D01*
X54990Y-32690D01*
X54990Y-32865D01*
X53100Y-32865D01*
X53099Y-32865D01*
X53073Y-32870D01*
X52972Y-32891D01*
X52863Y-32963D01*
X52861Y-32965D01*
X51015Y-34811D01*
X51015Y-33326D01*
X51015Y-32976D01*
X50881Y-32652D01*
X50634Y-32405D01*
X50311Y-32270D01*
X49961Y-32270D01*
X49637Y-32404D01*
X49390Y-32651D01*
X49255Y-32974D01*
X49255Y-33324D01*
X49389Y-33648D01*
X49636Y-33895D01*
X49959Y-34030D01*
X50309Y-34030D01*
X50633Y-33896D01*
X50880Y-33649D01*
X51015Y-33326D01*
X51015Y-34811D01*
X50763Y-35063D01*
X50651Y-35175D01*
X50616Y-35175D01*
X50460Y-35239D01*
X50340Y-35359D01*
X50275Y-35515D01*
X50275Y-35684D01*
X50339Y-35840D01*
X50459Y-35960D01*
X50615Y-36025D01*
X50784Y-36025D01*
X50940Y-35961D01*
X51060Y-35841D01*
X51125Y-35685D01*
X51125Y-35649D01*
X51237Y-35537D01*
X53238Y-33535D01*
X54382Y-33535D01*
X54360Y-33610D01*
X54675Y-33924D01*
X54990Y-33610D01*
X54967Y-33535D01*
X55209Y-33535D01*
X55063Y-33680D01*
X55060Y-33680D01*
X54746Y-33995D01*
X55060Y-34310D01*
X55063Y-34309D01*
X55214Y-34460D01*
X55416Y-34544D01*
X55634Y-34544D01*
X55836Y-34460D01*
X55950Y-34346D01*
X56064Y-34460D01*
X56266Y-34544D01*
X56484Y-34544D01*
X56686Y-34460D01*
X56800Y-34346D01*
X56914Y-34460D01*
X57116Y-34544D01*
X57334Y-34544D01*
X57536Y-34460D01*
X57650Y-34346D01*
X57764Y-34460D01*
X57966Y-34544D01*
X58184Y-34544D01*
X58386Y-34460D01*
X58500Y-34346D01*
X58614Y-34460D01*
X58816Y-34544D01*
X58904Y-34544D01*
X58875Y-34615D01*
X58875Y-34651D01*
X58561Y-34965D01*
X54990Y-34965D01*
X54990Y-34380D01*
X54675Y-34066D01*
X54604Y-34136D01*
X54604Y-33995D01*
X54290Y-33680D01*
X54195Y-33709D01*
X54122Y-33914D01*
X54133Y-34132D01*
X54195Y-34281D01*
X54290Y-34310D01*
X54604Y-33995D01*
X54604Y-34136D01*
X54360Y-34380D01*
X54389Y-34475D01*
X54594Y-34548D01*
X54812Y-34537D01*
X54961Y-34475D01*
X54990Y-34380D01*
X54990Y-34965D01*
X52600Y-34965D01*
X52472Y-34991D01*
X52363Y-35063D01*
X51051Y-36375D01*
X51016Y-36375D01*
X50860Y-36439D01*
X50740Y-36559D01*
X50675Y-36715D01*
X50675Y-36884D01*
X50739Y-37040D01*
X50859Y-37160D01*
X51015Y-37225D01*
X51184Y-37225D01*
X51340Y-37161D01*
X51460Y-37041D01*
X51525Y-36885D01*
X51525Y-36849D01*
X52739Y-35635D01*
X57869Y-35635D01*
X57860Y-35639D01*
X57740Y-35759D01*
X57675Y-35915D01*
X57675Y-36084D01*
X57708Y-36165D01*
X57066Y-36165D01*
X57041Y-36140D01*
X56885Y-36075D01*
X56716Y-36075D01*
X56560Y-36139D01*
X56440Y-36259D01*
X56375Y-36415D01*
X56375Y-36584D01*
X56408Y-36665D01*
X55966Y-36665D01*
X55941Y-36640D01*
X55785Y-36575D01*
X55616Y-36575D01*
X55460Y-36639D01*
X55340Y-36759D01*
X55275Y-36915D01*
X55275Y-37084D01*
X55289Y-37118D01*
X55185Y-37075D01*
X55016Y-37075D01*
X54860Y-37139D01*
X54740Y-37259D01*
X54690Y-37377D01*
X54685Y-37375D01*
X54516Y-37375D01*
X54360Y-37439D01*
X54240Y-37559D01*
X54175Y-37715D01*
X54175Y-37850D01*
X54165Y-37900D01*
X54165Y-39700D01*
X54175Y-39750D01*
X52786Y-39750D01*
X52718Y-39682D01*
X52573Y-39584D01*
X52400Y-39550D01*
X52227Y-39584D01*
X52082Y-39682D01*
X52036Y-39750D01*
X51651Y-39750D01*
X51541Y-39640D01*
X51385Y-39575D01*
X51216Y-39575D01*
X51060Y-39639D01*
X50949Y-39750D01*
X50500Y-39750D01*
X50451Y-39750D01*
X50441Y-39740D01*
X50285Y-39675D01*
X50116Y-39675D01*
X49960Y-39739D01*
X49949Y-39750D01*
X49450Y-39750D01*
X49450Y-37400D01*
X49450Y-36200D01*
X49416Y-36028D01*
X49318Y-35882D01*
X49172Y-35784D01*
X49000Y-35750D01*
X48828Y-35784D01*
X48825Y-35786D01*
X48825Y-34475D01*
X48850Y-29250D01*
X69850Y-29250D01*
X69850Y-50175D01*
X69850Y-50175D01*
G37*
G54D24*
X69850Y-50175D02*
X69445Y-50175D01*
X69445Y-33326D01*
X69445Y-32976D01*
X69311Y-32652D01*
X69064Y-32405D01*
X68741Y-32270D01*
X68391Y-32270D01*
X68067Y-32404D01*
X67820Y-32651D01*
X67685Y-32974D01*
X67685Y-33324D01*
X67819Y-33648D01*
X68066Y-33895D01*
X68389Y-34030D01*
X68739Y-34030D01*
X69063Y-33896D01*
X69310Y-33649D01*
X69445Y-33326D01*
X69445Y-50175D01*
X62410Y-50175D01*
X62410Y-49274D01*
X62406Y-48901D01*
X62272Y-48580D01*
X62137Y-48504D01*
X62066Y-48575D01*
X62066Y-48433D01*
X61990Y-48298D01*
X61644Y-48160D01*
X61271Y-48164D01*
X60950Y-48298D01*
X60874Y-48433D01*
X61470Y-49029D01*
X62066Y-48433D01*
X62066Y-48575D01*
X61541Y-49100D01*
X62137Y-49696D01*
X62272Y-49620D01*
X62410Y-49274D01*
X62410Y-50175D01*
X62066Y-50175D01*
X62066Y-49767D01*
X61470Y-49171D01*
X61399Y-49242D01*
X61399Y-49100D01*
X60803Y-48504D01*
X60668Y-48580D01*
X60530Y-48926D01*
X60534Y-49299D01*
X60668Y-49620D01*
X60803Y-49696D01*
X61399Y-49100D01*
X61399Y-49242D01*
X60874Y-49767D01*
X60950Y-49902D01*
X61296Y-50040D01*
X61669Y-50036D01*
X61990Y-49902D01*
X62066Y-49767D01*
X62066Y-50175D01*
X60138Y-50175D01*
X60138Y-48110D01*
X60127Y-47894D01*
X60066Y-47746D01*
X59972Y-47719D01*
X59661Y-48030D01*
X59972Y-48341D01*
X60066Y-48314D01*
X60138Y-48110D01*
X60138Y-50175D01*
X59901Y-50175D01*
X59901Y-48412D01*
X59590Y-48101D01*
X59279Y-48412D01*
X59306Y-48506D01*
X59510Y-48578D01*
X59726Y-48567D01*
X59874Y-48506D01*
X59901Y-48412D01*
X59901Y-50175D01*
X57670Y-50175D01*
X57670Y-49274D01*
X57666Y-48901D01*
X57532Y-48580D01*
X57397Y-48504D01*
X57326Y-48575D01*
X57326Y-48433D01*
X57250Y-48298D01*
X56904Y-48160D01*
X56531Y-48164D01*
X56210Y-48298D01*
X56134Y-48433D01*
X56730Y-49029D01*
X57326Y-48433D01*
X57326Y-48575D01*
X56801Y-49100D01*
X57397Y-49696D01*
X57532Y-49620D01*
X57670Y-49274D01*
X57670Y-50175D01*
X57326Y-50175D01*
X57326Y-49767D01*
X56730Y-49171D01*
X56659Y-49242D01*
X56659Y-49100D01*
X56063Y-48504D01*
X55928Y-48580D01*
X55833Y-48818D01*
X55833Y-47743D01*
X55825Y-47446D01*
X55726Y-47207D01*
X55610Y-47154D01*
X55540Y-47224D01*
X55540Y-47084D01*
X55487Y-46968D01*
X55209Y-46861D01*
X54912Y-46869D01*
X54673Y-46968D01*
X54620Y-47084D01*
X55080Y-47543D01*
X55540Y-47084D01*
X55540Y-47224D01*
X55151Y-47614D01*
X55610Y-48074D01*
X55726Y-48021D01*
X55833Y-47743D01*
X55833Y-48818D01*
X55790Y-48926D01*
X55792Y-49139D01*
X55726Y-48979D01*
X55610Y-48926D01*
X55540Y-48996D01*
X55540Y-48856D01*
X55540Y-48144D01*
X55080Y-47685D01*
X55009Y-47755D01*
X55009Y-47614D01*
X54550Y-47154D01*
X54434Y-47207D01*
X54327Y-47485D01*
X54335Y-47782D01*
X54434Y-48021D01*
X54550Y-48074D01*
X55009Y-47614D01*
X55009Y-47755D01*
X54620Y-48144D01*
X54673Y-48260D01*
X54951Y-48367D01*
X55248Y-48359D01*
X55487Y-48260D01*
X55540Y-48144D01*
X55540Y-48856D01*
X55487Y-48740D01*
X55209Y-48633D01*
X54912Y-48641D01*
X54673Y-48740D01*
X54620Y-48856D01*
X55080Y-49315D01*
X55540Y-48856D01*
X55540Y-48996D01*
X55151Y-49386D01*
X55610Y-49846D01*
X55726Y-49793D01*
X55833Y-49515D01*
X55829Y-49383D01*
X55928Y-49620D01*
X56063Y-49696D01*
X56659Y-49100D01*
X56659Y-49242D01*
X56134Y-49767D01*
X56210Y-49902D01*
X56556Y-50040D01*
X56929Y-50036D01*
X57250Y-49902D01*
X57326Y-49767D01*
X57326Y-50175D01*
X55540Y-50175D01*
X55540Y-49916D01*
X55080Y-49457D01*
X55009Y-49527D01*
X55009Y-49386D01*
X54550Y-48926D01*
X54434Y-48979D01*
X54327Y-49257D01*
X54335Y-49554D01*
X54434Y-49793D01*
X54550Y-49846D01*
X55009Y-49386D01*
X55009Y-49527D01*
X54620Y-49916D01*
X54673Y-50032D01*
X54951Y-50139D01*
X55248Y-50131D01*
X55487Y-50032D01*
X55540Y-49916D01*
X55540Y-50175D01*
X54025Y-50175D01*
X53273Y-50171D01*
X53273Y-49515D01*
X53265Y-49218D01*
X53166Y-48979D01*
X53050Y-48926D01*
X52980Y-48996D01*
X52980Y-48856D01*
X52927Y-48740D01*
X52649Y-48633D01*
X52352Y-48641D01*
X52113Y-48740D01*
X52060Y-48856D01*
X52520Y-49315D01*
X52980Y-48856D01*
X52980Y-48996D01*
X52591Y-49386D01*
X53050Y-49846D01*
X53166Y-49793D01*
X53273Y-49515D01*
X53273Y-50171D01*
X52980Y-50169D01*
X52980Y-49916D01*
X52520Y-49457D01*
X52449Y-49527D01*
X52449Y-49386D01*
X51990Y-48926D01*
X51874Y-48979D01*
X51767Y-49257D01*
X51775Y-49554D01*
X51874Y-49793D01*
X51990Y-49846D01*
X52449Y-49386D01*
X52449Y-49527D01*
X52060Y-49916D01*
X52113Y-50032D01*
X52391Y-50139D01*
X52688Y-50131D01*
X52927Y-50032D01*
X52980Y-49916D01*
X52980Y-50169D01*
X48825Y-50150D01*
X48825Y-43750D01*
X48835Y-43765D01*
X48985Y-43915D01*
X49062Y-43966D01*
X49009Y-43989D01*
X48939Y-44059D01*
X48901Y-44150D01*
X48901Y-44249D01*
X48901Y-44849D01*
X48939Y-44941D01*
X49009Y-45011D01*
X49100Y-45049D01*
X49125Y-45049D01*
X48985Y-45189D01*
X48901Y-45391D01*
X48901Y-45609D01*
X48985Y-45811D01*
X49139Y-45965D01*
X49217Y-45997D01*
X49164Y-46020D01*
X49135Y-46115D01*
X49450Y-46429D01*
X49765Y-46115D01*
X49736Y-46020D01*
X49678Y-45999D01*
X49761Y-45965D01*
X49876Y-45849D01*
X49893Y-45846D01*
X49894Y-45846D01*
X50015Y-45765D01*
X50525Y-45255D01*
X50525Y-45284D01*
X50589Y-45440D01*
X50709Y-45560D01*
X50865Y-45625D01*
X51034Y-45625D01*
X51190Y-45561D01*
X51276Y-45475D01*
X52015Y-45475D01*
X50315Y-47175D01*
X50003Y-47175D01*
X50003Y-46581D01*
X49992Y-46363D01*
X49930Y-46214D01*
X49835Y-46185D01*
X49521Y-46500D01*
X49835Y-46815D01*
X49930Y-46786D01*
X50003Y-46581D01*
X50003Y-47175D01*
X49901Y-47175D01*
X49761Y-47035D01*
X49682Y-47002D01*
X49736Y-46980D01*
X49765Y-46885D01*
X49450Y-46571D01*
X49379Y-46641D01*
X49379Y-46500D01*
X49065Y-46185D01*
X48970Y-46214D01*
X48897Y-46419D01*
X48908Y-46637D01*
X48970Y-46786D01*
X49065Y-46815D01*
X49379Y-46500D01*
X49379Y-46641D01*
X49135Y-46885D01*
X49164Y-46980D01*
X49221Y-47000D01*
X49139Y-47035D01*
X48985Y-47189D01*
X48901Y-47391D01*
X48901Y-47609D01*
X48985Y-47811D01*
X49139Y-47965D01*
X49223Y-48000D01*
X49139Y-48035D01*
X48985Y-48189D01*
X48901Y-48391D01*
X48901Y-48609D01*
X48985Y-48811D01*
X49139Y-48965D01*
X49223Y-49000D01*
X49139Y-49035D01*
X48985Y-49189D01*
X48901Y-49391D01*
X48901Y-49609D01*
X48985Y-49811D01*
X49139Y-49965D01*
X49341Y-50049D01*
X49559Y-50049D01*
X49761Y-49965D01*
X49915Y-49811D01*
X49999Y-49609D01*
X49999Y-49391D01*
X49915Y-49189D01*
X49761Y-49035D01*
X49676Y-49000D01*
X49761Y-48965D01*
X49901Y-48825D01*
X50250Y-48825D01*
X50374Y-48800D01*
X50480Y-48730D01*
X51771Y-47439D01*
X51771Y-47723D01*
X51885Y-47998D01*
X52095Y-48209D01*
X52370Y-48324D01*
X52668Y-48324D01*
X52943Y-48210D01*
X53154Y-48000D01*
X53269Y-47725D01*
X53269Y-47427D01*
X53155Y-47152D01*
X52945Y-46941D01*
X52670Y-46826D01*
X52384Y-46826D01*
X56435Y-42775D01*
X56484Y-42775D01*
X56640Y-42711D01*
X56760Y-42591D01*
X56825Y-42435D01*
X56825Y-42266D01*
X56761Y-42110D01*
X56641Y-41990D01*
X56485Y-41925D01*
X56316Y-41925D01*
X56160Y-41989D01*
X56040Y-42109D01*
X55999Y-42205D01*
X55961Y-42110D01*
X55841Y-41990D01*
X55685Y-41925D01*
X55516Y-41925D01*
X55360Y-41989D01*
X55333Y-42015D01*
X55311Y-41960D01*
X55191Y-41840D01*
X55035Y-41775D01*
X54866Y-41775D01*
X54710Y-41839D01*
X54590Y-41959D01*
X54525Y-42115D01*
X54525Y-42265D01*
X51965Y-44825D01*
X51155Y-44825D01*
X51035Y-44775D01*
X50866Y-44775D01*
X50775Y-44812D01*
X50775Y-44150D01*
X50746Y-44007D01*
X50746Y-44006D01*
X50665Y-43885D01*
X50165Y-43385D01*
X50044Y-43304D01*
X49900Y-43275D01*
X49475Y-43275D01*
X49475Y-40650D01*
X50500Y-40650D01*
X51500Y-40650D01*
X52100Y-40650D01*
X52600Y-40650D01*
X55100Y-40650D01*
X57145Y-40650D01*
X57205Y-40675D01*
X57394Y-40675D01*
X57454Y-40650D01*
X57648Y-40650D01*
X57625Y-40705D01*
X57625Y-40894D01*
X57697Y-41069D01*
X57831Y-41202D01*
X58005Y-41275D01*
X58194Y-41275D01*
X58254Y-41250D01*
X58350Y-41250D01*
X58350Y-42745D01*
X58325Y-42805D01*
X58325Y-42994D01*
X58397Y-43169D01*
X58531Y-43302D01*
X58705Y-43375D01*
X58894Y-43375D01*
X58954Y-43350D01*
X59150Y-43350D01*
X59150Y-46200D01*
X59184Y-46372D01*
X59200Y-46395D01*
X59200Y-46428D01*
X59198Y-46431D01*
X59125Y-46605D01*
X59125Y-46794D01*
X59166Y-46894D01*
X59129Y-46932D01*
X59100Y-47001D01*
X59071Y-46932D01*
X58918Y-46779D01*
X58718Y-46696D01*
X58502Y-46696D01*
X58302Y-46779D01*
X58149Y-46932D01*
X58066Y-47132D01*
X58066Y-47348D01*
X58149Y-47548D01*
X58236Y-47635D01*
X58149Y-47722D01*
X58066Y-47922D01*
X58066Y-48138D01*
X58149Y-48338D01*
X58302Y-48491D01*
X58502Y-48574D01*
X58718Y-48574D01*
X58918Y-48491D01*
X59071Y-48338D01*
X59097Y-48274D01*
X59114Y-48314D01*
X59208Y-48341D01*
X59519Y-48030D01*
X59208Y-47719D01*
X59114Y-47746D01*
X59098Y-47789D01*
X59071Y-47722D01*
X58984Y-47635D01*
X59071Y-47548D01*
X59100Y-47478D01*
X59129Y-47548D01*
X59282Y-47701D01*
X59367Y-47736D01*
X59590Y-47959D01*
X59812Y-47736D01*
X59898Y-47701D01*
X60051Y-47548D01*
X60134Y-47348D01*
X60134Y-47132D01*
X60051Y-46932D01*
X60027Y-46908D01*
X60075Y-46795D01*
X60075Y-46606D01*
X60003Y-46431D01*
X60000Y-46428D01*
X60000Y-46395D01*
X60016Y-46372D01*
X60050Y-46200D01*
X60050Y-43086D01*
X60186Y-42950D01*
X62214Y-42950D01*
X62582Y-43318D01*
X62727Y-43416D01*
X62900Y-43450D01*
X63072Y-43416D01*
X63218Y-43318D01*
X63316Y-43172D01*
X63350Y-43000D01*
X63316Y-42827D01*
X63218Y-42682D01*
X62718Y-42182D01*
X62573Y-42084D01*
X62400Y-42050D01*
X60000Y-42050D01*
X59828Y-42084D01*
X59779Y-42116D01*
X59681Y-42182D01*
X59413Y-42450D01*
X59250Y-42450D01*
X59250Y-40986D01*
X59386Y-40850D01*
X60245Y-40850D01*
X60305Y-40875D01*
X60494Y-40875D01*
X60554Y-40850D01*
X61445Y-40850D01*
X61505Y-40875D01*
X61694Y-40875D01*
X61869Y-40803D01*
X61896Y-40775D01*
X63301Y-40775D01*
X63444Y-40746D01*
X63445Y-40746D01*
X63566Y-40665D01*
X64056Y-40174D01*
X64177Y-40125D01*
X64297Y-40005D01*
X64362Y-39849D01*
X64362Y-39680D01*
X64298Y-39524D01*
X64178Y-39404D01*
X64022Y-39339D01*
X63853Y-39339D01*
X63697Y-39403D01*
X63577Y-39523D01*
X63526Y-39644D01*
X63146Y-40025D01*
X61896Y-40025D01*
X61869Y-39998D01*
X61695Y-39925D01*
X61506Y-39925D01*
X61445Y-39950D01*
X60554Y-39950D01*
X60495Y-39925D01*
X60306Y-39925D01*
X60245Y-39950D01*
X59354Y-39950D01*
X59295Y-39925D01*
X59106Y-39925D01*
X58931Y-39997D01*
X58798Y-40131D01*
X58773Y-40190D01*
X58613Y-40350D01*
X58550Y-40350D01*
X58550Y-40200D01*
X58516Y-40028D01*
X58418Y-39882D01*
X58272Y-39784D01*
X58100Y-39750D01*
X57454Y-39750D01*
X57395Y-39725D01*
X57206Y-39725D01*
X57145Y-39750D01*
X55251Y-39750D01*
X55260Y-39741D01*
X55325Y-39585D01*
X55325Y-39416D01*
X55261Y-39260D01*
X55235Y-39234D01*
X55235Y-38435D01*
X65400Y-38435D01*
X65528Y-38409D01*
X65637Y-38337D01*
X68499Y-35475D01*
X68594Y-35475D01*
X68769Y-35403D01*
X68902Y-35269D01*
X68975Y-35095D01*
X68975Y-34906D01*
X68903Y-34731D01*
X68769Y-34598D01*
X68595Y-34525D01*
X68406Y-34525D01*
X68231Y-34597D01*
X68098Y-34731D01*
X68025Y-34905D01*
X68025Y-35001D01*
X65261Y-37765D01*
X64994Y-37765D01*
X65037Y-37737D01*
X67299Y-35475D01*
X67394Y-35475D01*
X67569Y-35403D01*
X67702Y-35269D01*
X67775Y-35095D01*
X67775Y-34906D01*
X67703Y-34731D01*
X67569Y-34598D01*
X67395Y-34525D01*
X67206Y-34525D01*
X67135Y-34554D01*
X67135Y-34236D01*
X67202Y-34169D01*
X67275Y-33995D01*
X67275Y-33806D01*
X67203Y-33631D01*
X67069Y-33498D01*
X66895Y-33425D01*
X66706Y-33425D01*
X66531Y-33497D01*
X66400Y-33628D01*
X66269Y-33498D01*
X66095Y-33425D01*
X65906Y-33425D01*
X65731Y-33497D01*
X65600Y-33628D01*
X65569Y-33598D01*
X65395Y-33525D01*
X65206Y-33525D01*
X65031Y-33597D01*
X64898Y-33731D01*
X64825Y-33905D01*
X64825Y-34001D01*
X63161Y-35665D01*
X58366Y-35665D01*
X58341Y-35640D01*
X58329Y-35635D01*
X58700Y-35635D01*
X58828Y-35609D01*
X58937Y-35537D01*
X59349Y-35125D01*
X59384Y-35125D01*
X59540Y-35061D01*
X59660Y-34941D01*
X59725Y-34785D01*
X59725Y-34616D01*
X59695Y-34544D01*
X59884Y-34544D01*
X60086Y-34460D01*
X60200Y-34346D01*
X60314Y-34460D01*
X60516Y-34544D01*
X60734Y-34544D01*
X60936Y-34460D01*
X61050Y-34346D01*
X61164Y-34460D01*
X61366Y-34544D01*
X61584Y-34544D01*
X61786Y-34460D01*
X61900Y-34346D01*
X62014Y-34460D01*
X62216Y-34544D01*
X62434Y-34544D01*
X62636Y-34460D01*
X62750Y-34346D01*
X62864Y-34460D01*
X63066Y-34544D01*
X63284Y-34544D01*
X63486Y-34460D01*
X63600Y-34346D01*
X63714Y-34460D01*
X63916Y-34544D01*
X64134Y-34544D01*
X64336Y-34460D01*
X64490Y-34306D01*
X64574Y-34104D01*
X64574Y-33886D01*
X64574Y-32414D01*
X64574Y-32196D01*
X64490Y-31994D01*
X64336Y-31840D01*
X64134Y-31756D01*
X63916Y-31756D01*
X63714Y-31840D01*
X63600Y-31954D01*
X63486Y-31840D01*
X63284Y-31756D01*
X63066Y-31756D01*
X62864Y-31840D01*
X62750Y-31954D01*
X62636Y-31840D01*
X62434Y-31756D01*
X62216Y-31756D01*
X62014Y-31840D01*
X61900Y-31954D01*
X61786Y-31840D01*
X61584Y-31756D01*
X61366Y-31756D01*
X61164Y-31840D01*
X61050Y-31954D01*
X60936Y-31840D01*
X60734Y-31756D01*
X60516Y-31756D01*
X60314Y-31840D01*
X60163Y-31990D01*
X60160Y-31990D01*
X60090Y-32060D01*
X60090Y-31920D01*
X60061Y-31825D01*
X59856Y-31752D01*
X59638Y-31763D01*
X59489Y-31825D01*
X59460Y-31920D01*
X59775Y-32234D01*
X60090Y-31920D01*
X60090Y-32060D01*
X59846Y-32305D01*
X60160Y-32620D01*
X60163Y-32619D01*
X60314Y-32770D01*
X60516Y-32854D01*
X60734Y-32854D01*
X60936Y-32770D01*
X61050Y-32656D01*
X61164Y-32770D01*
X61366Y-32854D01*
X61584Y-32854D01*
X61786Y-32770D01*
X61900Y-32656D01*
X62014Y-32770D01*
X62216Y-32854D01*
X62434Y-32854D01*
X62636Y-32770D01*
X62750Y-32656D01*
X62864Y-32770D01*
X63066Y-32854D01*
X63284Y-32854D01*
X63486Y-32770D01*
X63600Y-32656D01*
X63714Y-32770D01*
X63916Y-32854D01*
X64134Y-32854D01*
X64336Y-32770D01*
X64490Y-32616D01*
X64574Y-32414D01*
X64574Y-33886D01*
X64490Y-33684D01*
X64336Y-33530D01*
X64134Y-33446D01*
X63916Y-33446D01*
X63714Y-33530D01*
X63600Y-33644D01*
X63486Y-33530D01*
X63284Y-33446D01*
X63066Y-33446D01*
X62864Y-33530D01*
X62750Y-33644D01*
X62636Y-33530D01*
X62434Y-33446D01*
X62216Y-33446D01*
X62014Y-33530D01*
X61900Y-33644D01*
X61786Y-33530D01*
X61584Y-33446D01*
X61366Y-33446D01*
X61164Y-33530D01*
X61050Y-33644D01*
X60936Y-33530D01*
X60734Y-33446D01*
X60516Y-33446D01*
X60314Y-33530D01*
X60200Y-33644D01*
X60090Y-33534D01*
X60090Y-32690D01*
X59775Y-32376D01*
X59704Y-32446D01*
X59704Y-32305D01*
X59390Y-31990D01*
X59350Y-32002D01*
X59310Y-31990D01*
X59240Y-32060D01*
X59240Y-31920D01*
X59211Y-31825D01*
X59006Y-31752D01*
X58788Y-31763D01*
X58639Y-31825D01*
X58610Y-31920D01*
X58925Y-32234D01*
X59240Y-31920D01*
X59240Y-32060D01*
X58996Y-32305D01*
X59310Y-32620D01*
X59350Y-32607D01*
X59390Y-32620D01*
X59704Y-32305D01*
X59704Y-32446D01*
X59460Y-32690D01*
X59489Y-32785D01*
X59694Y-32858D01*
X59912Y-32847D01*
X60061Y-32785D01*
X60090Y-32690D01*
X60090Y-33534D01*
X60086Y-33530D01*
X59884Y-33446D01*
X59666Y-33446D01*
X59464Y-33530D01*
X59350Y-33644D01*
X59240Y-33534D01*
X59240Y-32690D01*
X58925Y-32376D01*
X58854Y-32446D01*
X58854Y-32305D01*
X58540Y-31990D01*
X58500Y-32002D01*
X58460Y-31990D01*
X58390Y-32060D01*
X58390Y-31920D01*
X58361Y-31825D01*
X58156Y-31752D01*
X57938Y-31763D01*
X57789Y-31825D01*
X57760Y-31920D01*
X58075Y-32234D01*
X58390Y-31920D01*
X58390Y-32060D01*
X58146Y-32305D01*
X58460Y-32620D01*
X58500Y-32607D01*
X58540Y-32620D01*
X58854Y-32305D01*
X58854Y-32446D01*
X58610Y-32690D01*
X58639Y-32785D01*
X58844Y-32858D01*
X59062Y-32847D01*
X59211Y-32785D01*
X59240Y-32690D01*
X59240Y-33534D01*
X59236Y-33530D01*
X59034Y-33446D01*
X58855Y-33446D01*
X58860Y-33441D01*
X58925Y-33285D01*
X58925Y-33116D01*
X58861Y-32960D01*
X58741Y-32840D01*
X58585Y-32775D01*
X58416Y-32775D01*
X58390Y-32785D01*
X58390Y-32690D01*
X58075Y-32376D01*
X58004Y-32446D01*
X58004Y-32305D01*
X57690Y-31990D01*
X57650Y-32002D01*
X57610Y-31990D01*
X57540Y-32060D01*
X57540Y-31920D01*
X57511Y-31825D01*
X57306Y-31752D01*
X57088Y-31763D01*
X56939Y-31825D01*
X56910Y-31920D01*
X57225Y-32234D01*
X57540Y-31920D01*
X57540Y-32060D01*
X57296Y-32305D01*
X57610Y-32620D01*
X57650Y-32607D01*
X57690Y-32620D01*
X58004Y-32305D01*
X58004Y-32446D01*
X57760Y-32690D01*
X57789Y-32785D01*
X57994Y-32858D01*
X58212Y-32847D01*
X58361Y-32785D01*
X58390Y-32690D01*
X58390Y-32785D01*
X58260Y-32839D01*
X58234Y-32865D01*
X57540Y-32865D01*
X57540Y-32690D01*
X57225Y-32376D01*
X57154Y-32446D01*
X57154Y-32305D01*
X56840Y-31990D01*
X56800Y-32002D01*
X56760Y-31990D01*
X56690Y-32060D01*
X56690Y-31920D01*
X56661Y-31825D01*
X56456Y-31752D01*
X56238Y-31763D01*
X56089Y-31825D01*
X56060Y-31920D01*
X56375Y-32234D01*
X56690Y-31920D01*
X56690Y-32060D01*
X56446Y-32305D01*
X56760Y-32620D01*
X56800Y-32607D01*
X56840Y-32620D01*
X57154Y-32305D01*
X57154Y-32446D01*
X56910Y-32690D01*
X56939Y-32785D01*
X57144Y-32858D01*
X57362Y-32847D01*
X57511Y-32785D01*
X57540Y-32690D01*
X57540Y-32865D01*
X56690Y-32865D01*
X56690Y-32690D01*
X56375Y-32376D01*
X56304Y-32446D01*
X56304Y-32305D01*
X55990Y-31990D01*
X55950Y-32002D01*
X55910Y-31990D01*
X55840Y-32060D01*
X55840Y-31920D01*
X55811Y-31825D01*
X55606Y-31752D01*
X55388Y-31763D01*
X55239Y-31825D01*
X55210Y-31920D01*
X55525Y-32234D01*
X55840Y-31920D01*
X55840Y-32060D01*
X55596Y-32305D01*
X55910Y-32620D01*
X55950Y-32607D01*
X55990Y-32620D01*
X56304Y-32305D01*
X56304Y-32446D01*
X56060Y-32690D01*
X56089Y-32785D01*
X56294Y-32858D01*
X56512Y-32847D01*
X56661Y-32785D01*
X56690Y-32690D01*
X56690Y-32865D01*
X55840Y-32865D01*
X55840Y-32690D01*
X55525Y-32376D01*
X55454Y-32446D01*
X55454Y-32305D01*
X55140Y-31990D01*
X55100Y-32002D01*
X55060Y-31990D01*
X54990Y-32060D01*
X54990Y-31920D01*
X54961Y-31825D01*
X54756Y-31752D01*
X54538Y-31763D01*
X54389Y-31825D01*
X54360Y-31920D01*
X54675Y-32234D01*
X54990Y-31920D01*
X54990Y-32060D01*
X54746Y-32305D01*
X55060Y-32620D01*
X55100Y-32607D01*
X55140Y-32620D01*
X55454Y-32305D01*
X55454Y-32446D01*
X55210Y-32690D01*
X55239Y-32785D01*
X55444Y-32858D01*
X55662Y-32847D01*
X55811Y-32785D01*
X55840Y-32690D01*
X55840Y-32865D01*
X54990Y-32865D01*
X54990Y-32690D01*
X54675Y-32376D01*
X54604Y-32446D01*
X54604Y-32305D01*
X54290Y-31990D01*
X54195Y-32019D01*
X54122Y-32224D01*
X54133Y-32442D01*
X54195Y-32591D01*
X54290Y-32620D01*
X54604Y-32305D01*
X54604Y-32446D01*
X54360Y-32690D01*
X54389Y-32785D01*
X54594Y-32858D01*
X54812Y-32847D01*
X54961Y-32785D01*
X54990Y-32690D01*
X54990Y-32865D01*
X53100Y-32865D01*
X53099Y-32865D01*
X53073Y-32870D01*
X52972Y-32891D01*
X52863Y-32963D01*
X52861Y-32965D01*
X51015Y-34811D01*
X51015Y-33326D01*
X51015Y-32976D01*
X50881Y-32652D01*
X50634Y-32405D01*
X50311Y-32270D01*
X49961Y-32270D01*
X49637Y-32404D01*
X49390Y-32651D01*
X49255Y-32974D01*
X49255Y-33324D01*
X49389Y-33648D01*
X49636Y-33895D01*
X49959Y-34030D01*
X50309Y-34030D01*
X50633Y-33896D01*
X50880Y-33649D01*
X51015Y-33326D01*
X51015Y-34811D01*
X50763Y-35063D01*
X50651Y-35175D01*
X50616Y-35175D01*
X50460Y-35239D01*
X50340Y-35359D01*
X50275Y-35515D01*
X50275Y-35684D01*
X50339Y-35840D01*
X50459Y-35960D01*
X50615Y-36025D01*
X50784Y-36025D01*
X50940Y-35961D01*
X51060Y-35841D01*
X51125Y-35685D01*
X51125Y-35649D01*
X51237Y-35537D01*
X53238Y-33535D01*
X54382Y-33535D01*
X54360Y-33610D01*
X54675Y-33924D01*
X54990Y-33610D01*
X54967Y-33535D01*
X55209Y-33535D01*
X55063Y-33680D01*
X55060Y-33680D01*
X54746Y-33995D01*
X55060Y-34310D01*
X55063Y-34309D01*
X55214Y-34460D01*
X55416Y-34544D01*
X55634Y-34544D01*
X55836Y-34460D01*
X55950Y-34346D01*
X56064Y-34460D01*
X56266Y-34544D01*
X56484Y-34544D01*
X56686Y-34460D01*
X56800Y-34346D01*
X56914Y-34460D01*
X57116Y-34544D01*
X57334Y-34544D01*
X57536Y-34460D01*
X57650Y-34346D01*
X57764Y-34460D01*
X57966Y-34544D01*
X58184Y-34544D01*
X58386Y-34460D01*
X58500Y-34346D01*
X58614Y-34460D01*
X58816Y-34544D01*
X58904Y-34544D01*
X58875Y-34615D01*
X58875Y-34651D01*
X58561Y-34965D01*
X54990Y-34965D01*
X54990Y-34380D01*
X54675Y-34066D01*
X54604Y-34136D01*
X54604Y-33995D01*
X54290Y-33680D01*
X54195Y-33709D01*
X54122Y-33914D01*
X54133Y-34132D01*
X54195Y-34281D01*
X54290Y-34310D01*
X54604Y-33995D01*
X54604Y-34136D01*
X54360Y-34380D01*
X54389Y-34475D01*
X54594Y-34548D01*
X54812Y-34537D01*
X54961Y-34475D01*
X54990Y-34380D01*
X54990Y-34965D01*
X52600Y-34965D01*
X52472Y-34991D01*
X52363Y-35063D01*
X51051Y-36375D01*
X51016Y-36375D01*
X50860Y-36439D01*
X50740Y-36559D01*
X50675Y-36715D01*
X50675Y-36884D01*
X50739Y-37040D01*
X50859Y-37160D01*
X51015Y-37225D01*
X51184Y-37225D01*
X51340Y-37161D01*
X51460Y-37041D01*
X51525Y-36885D01*
X51525Y-36849D01*
X52739Y-35635D01*
X57869Y-35635D01*
X57860Y-35639D01*
X57740Y-35759D01*
X57675Y-35915D01*
X57675Y-36084D01*
X57708Y-36165D01*
X57066Y-36165D01*
X57041Y-36140D01*
X56885Y-36075D01*
X56716Y-36075D01*
X56560Y-36139D01*
X56440Y-36259D01*
X56375Y-36415D01*
X56375Y-36584D01*
X56408Y-36665D01*
X55966Y-36665D01*
X55941Y-36640D01*
X55785Y-36575D01*
X55616Y-36575D01*
X55460Y-36639D01*
X55340Y-36759D01*
X55275Y-36915D01*
X55275Y-37084D01*
X55289Y-37118D01*
X55185Y-37075D01*
X55016Y-37075D01*
X54860Y-37139D01*
X54740Y-37259D01*
X54690Y-37377D01*
X54685Y-37375D01*
X54516Y-37375D01*
X54360Y-37439D01*
X54240Y-37559D01*
X54175Y-37715D01*
X54175Y-37850D01*
X54165Y-37900D01*
X54165Y-39700D01*
X54175Y-39750D01*
X52786Y-39750D01*
X52718Y-39682D01*
X52573Y-39584D01*
X52400Y-39550D01*
X52227Y-39584D01*
X52082Y-39682D01*
X52036Y-39750D01*
X51651Y-39750D01*
X51541Y-39640D01*
X51385Y-39575D01*
X51216Y-39575D01*
X51060Y-39639D01*
X50949Y-39750D01*
X50500Y-39750D01*
X50451Y-39750D01*
X50441Y-39740D01*
X50285Y-39675D01*
X50116Y-39675D01*
X49960Y-39739D01*
X49949Y-39750D01*
X49450Y-39750D01*
X49450Y-37400D01*
X49450Y-36200D01*
X49416Y-36028D01*
X49318Y-35882D01*
X49172Y-35784D01*
X49000Y-35750D01*
X48828Y-35784D01*
X48825Y-35786D01*
X48825Y-34475D01*
X48850Y-29250D01*
X69850Y-29250D01*
X69850Y-50175D01*
M02*
