M48
;DRILL file {Pcbnew (2013-mar-04)-testing} date Sun 17 Mar 2013 01:20:08 PM EDT
;FORMAT={-:-/ absolute / inch / decimal}
FMAT,2
INCH,TZ
T1C0.025
T2C0.038
T3C0.042
T4C0.086
T5C0.125
%
G90
G05
M72
T1
X5.158Y-3.622
X5.506Y-4.212
X5.524Y-3.708
X5.56Y-4.235
X5.564Y-4.414
X5.615Y-3.5325
X5.64Y-4.235
X5.66Y-3.9725
X5.6725Y-3.4675
X5.69Y-4.265
X5.705Y-4.375
X5.7325Y-3.6125
X5.75Y-3.495
X5.8475Y-3.9075
X5.8975Y-4.48
X5.9225Y-4.5575
X5.96Y-4.4775
X5.9925Y-4.3175
X6.0575Y-3.545
X6.06Y-3.75
X6.1Y-3.4525
X6.1325Y-3.535
X6.15Y-3.49
X6.2175Y-4.09
X6.252Y-4.556
X6.35Y-4.455
X6.38Y-4.7375
X6.39Y-3.685
X6.395Y-3.6225
X6.4Y-3.5425
X6.42Y-4.7725
X6.4425Y-3.9
X6.475Y-4.3875
X6.5075Y-3.5175
X6.555Y-4.6075
X6.5725Y-3.515
X6.62Y-4.802
X6.6375Y-3.5125
X6.686Y-4.648
X6.6975Y-3.5075
T2
X5.861Y-4.724
X5.861Y-4.803
X5.959Y-4.724
X5.959Y-4.803
T3
X4.945Y-3.9725
X4.945Y-4.0725
X4.945Y-4.1725
X4.945Y-4.2725
X4.945Y-4.3725
X4.945Y-4.4725
X5.4675Y-3.2305
X5.4675Y-3.3995
X5.5525Y-3.2305
X5.5525Y-3.3995
X5.6375Y-3.2305
X5.6375Y-3.3995
X5.7225Y-3.2305
X5.7225Y-3.3995
X5.8075Y-3.2305
X5.8075Y-3.3995
X5.8925Y-3.2305
X5.8925Y-3.3995
X5.9775Y-3.2305
X5.9775Y-3.3995
X6.0625Y-3.2305
X6.0625Y-3.3995
X6.1475Y-3.2305
X6.1475Y-3.3995
X6.2325Y-3.2305
X6.2325Y-3.3995
X6.3175Y-3.2305
X6.3175Y-3.3995
X6.4025Y-3.2305
X6.4025Y-3.3995
T4
X5.673Y-4.91
X6.147Y-4.91
T5
X5.0135Y-3.315
X6.8565Y-3.315
T0
M30
