M48
;DRILL file {Pcbnew (2011-nov-30)-testing} date Mon 27 Feb 2012 01:32:09 PM EST
;FORMAT={-:-/ absolute / inch / decimal}
FMAT,2
INCH,TZ
T1C0.025
T2C0.038
T3C0.042
T4C0.086
%
G90
G05
M72
T1
X4.900Y3.620
X4.900Y3.740
X4.910Y4.020
X5.020Y4.010
X5.035Y4.232
X5.070Y3.560
X5.095Y4.520
X5.110Y3.680
X5.130Y4.000
X5.240Y4.000
X5.460Y3.780
X5.490Y3.950
X5.495Y4.220
X5.510Y3.750
X5.560Y4.235
X5.570Y3.700
X5.640Y4.235
X5.680Y3.650
X5.685Y4.365
X5.730Y4.020
X5.810Y3.600
X5.810Y4.080
X5.850Y3.320
X5.880Y4.290
X5.920Y4.040
X5.930Y3.470
X5.960Y4.670
X6.015Y4.360
X6.040Y4.040
X6.160Y4.040
X6.255Y4.510
X6.290Y4.300
X6.394Y3.976
X6.530Y3.400
X6.580Y4.130
X6.600Y3.390
X6.680Y3.390
X6.730Y3.500
X6.850Y3.500
X6.910Y4.130
T2
X5.861Y4.724
X5.861Y4.803
X5.959Y4.724
X5.959Y4.803
T3
X4.945Y4.450
X4.945Y4.550
X4.945Y4.650
X4.945Y4.750
X4.945Y4.850
X4.945Y4.950
X5.252Y4.758
X5.252Y4.939
X5.468Y3.231
X5.468Y3.400
X5.508Y4.761
X5.508Y4.939
X5.553Y3.231
X5.553Y3.400
X5.638Y3.231
X5.638Y3.400
X5.723Y3.231
X5.723Y3.400
X5.808Y3.231
X5.808Y3.400
X5.893Y3.231
X5.893Y3.400
X5.978Y3.231
X5.978Y3.400
X6.062Y3.231
X6.062Y3.400
X6.147Y3.231
X6.147Y3.400
X6.232Y3.231
X6.232Y3.400
X6.317Y3.231
X6.317Y3.400
X6.403Y3.231
X6.403Y3.400
T4
X5.673Y4.910
X6.147Y4.910
T0
M30
