G04 (created by PCBNEW-RS274X (2011-nov-30)-testing) date Mon 27 Feb 2012 01:24:57 PM EST*
G01*
G70*
G90*
%MOIN*%
G04 Gerber Fmt 3.4, Leading zero omitted, Abs format*
%FSLAX34Y34*%
G04 APERTURE LIST*
%ADD10C,0.006000*%
%ADD11C,0.007500*%
%ADD12C,0.000100*%
%ADD13C,0.015000*%
%ADD14C,0.010000*%
%ADD15C,0.008000*%
%ADD16C,0.012000*%
%ADD17C,0.005000*%
%ADD18C,0.003500*%
%ADD19C,0.004500*%
G04 APERTURE END LIST*
G54D10*
G54D11*
X67611Y-48679D02*
X67668Y-48679D01*
X67696Y-48698D01*
X67725Y-48736D01*
X67739Y-48812D01*
X67739Y-48946D01*
X67725Y-49022D01*
X67696Y-49060D01*
X67668Y-49079D01*
X67611Y-49079D01*
X67582Y-49060D01*
X67553Y-49022D01*
X67539Y-48946D01*
X67539Y-48812D01*
X67553Y-48736D01*
X67582Y-48698D01*
X67611Y-48679D01*
X67853Y-49060D02*
X67896Y-49079D01*
X67967Y-49079D01*
X67996Y-49060D01*
X68010Y-49041D01*
X68025Y-49003D01*
X68025Y-48965D01*
X68010Y-48927D01*
X67996Y-48907D01*
X67967Y-48888D01*
X67910Y-48869D01*
X67882Y-48850D01*
X67867Y-48831D01*
X67853Y-48793D01*
X67853Y-48755D01*
X67867Y-48717D01*
X67882Y-48698D01*
X67910Y-48679D01*
X67982Y-48679D01*
X68025Y-48698D01*
X68153Y-49079D02*
X68153Y-48679D01*
X68153Y-48869D02*
X68325Y-48869D01*
X68325Y-49079D02*
X68325Y-48679D01*
X68439Y-48679D02*
X68510Y-49079D01*
X68567Y-48793D01*
X68625Y-49079D01*
X68696Y-48679D01*
X64969Y-40024D02*
X64969Y-39624D01*
X65069Y-39910D01*
X65169Y-39624D01*
X65169Y-40024D01*
X65441Y-40024D02*
X65441Y-39814D01*
X65427Y-39776D01*
X65398Y-39757D01*
X65341Y-39757D01*
X65312Y-39776D01*
X65441Y-40005D02*
X65412Y-40024D01*
X65341Y-40024D01*
X65312Y-40005D01*
X65298Y-39967D01*
X65298Y-39929D01*
X65312Y-39891D01*
X65341Y-39872D01*
X65412Y-39872D01*
X65441Y-39852D01*
X65712Y-40024D02*
X65712Y-39624D01*
X65712Y-40005D02*
X65683Y-40024D01*
X65626Y-40024D01*
X65598Y-40005D01*
X65583Y-39986D01*
X65569Y-39948D01*
X65569Y-39833D01*
X65583Y-39795D01*
X65598Y-39776D01*
X65626Y-39757D01*
X65683Y-39757D01*
X65712Y-39776D01*
X65969Y-40005D02*
X65940Y-40024D01*
X65883Y-40024D01*
X65854Y-40005D01*
X65840Y-39967D01*
X65840Y-39814D01*
X65854Y-39776D01*
X65883Y-39757D01*
X65940Y-39757D01*
X65969Y-39776D01*
X65983Y-39814D01*
X65983Y-39852D01*
X65840Y-39891D01*
X66340Y-40024D02*
X66340Y-39757D01*
X66340Y-39624D02*
X66326Y-39643D01*
X66340Y-39662D01*
X66355Y-39643D01*
X66340Y-39624D01*
X66340Y-39662D01*
X66483Y-39757D02*
X66483Y-40024D01*
X66483Y-39795D02*
X66498Y-39776D01*
X66526Y-39757D01*
X66569Y-39757D01*
X66598Y-39776D01*
X66612Y-39814D01*
X66612Y-40024D01*
X67155Y-39986D02*
X67141Y-40005D01*
X67098Y-40024D01*
X67069Y-40024D01*
X67026Y-40005D01*
X66998Y-39967D01*
X66983Y-39929D01*
X66969Y-39852D01*
X66969Y-39795D01*
X66983Y-39719D01*
X66998Y-39681D01*
X67026Y-39643D01*
X67069Y-39624D01*
X67098Y-39624D01*
X67141Y-39643D01*
X67155Y-39662D01*
X67412Y-40024D02*
X67412Y-39814D01*
X67398Y-39776D01*
X67369Y-39757D01*
X67312Y-39757D01*
X67283Y-39776D01*
X67412Y-40005D02*
X67383Y-40024D01*
X67312Y-40024D01*
X67283Y-40005D01*
X67269Y-39967D01*
X67269Y-39929D01*
X67283Y-39891D01*
X67312Y-39872D01*
X67383Y-39872D01*
X67412Y-39852D01*
X67554Y-39757D02*
X67554Y-40024D01*
X67554Y-39795D02*
X67569Y-39776D01*
X67597Y-39757D01*
X67640Y-39757D01*
X67669Y-39776D01*
X67683Y-39814D01*
X67683Y-40024D01*
X67954Y-40024D02*
X67954Y-39814D01*
X67940Y-39776D01*
X67911Y-39757D01*
X67854Y-39757D01*
X67825Y-39776D01*
X67954Y-40005D02*
X67925Y-40024D01*
X67854Y-40024D01*
X67825Y-40005D01*
X67811Y-39967D01*
X67811Y-39929D01*
X67825Y-39891D01*
X67854Y-39872D01*
X67925Y-39872D01*
X67954Y-39852D01*
X68225Y-40024D02*
X68225Y-39624D01*
X68225Y-40005D02*
X68196Y-40024D01*
X68139Y-40024D01*
X68111Y-40005D01*
X68096Y-39986D01*
X68082Y-39948D01*
X68082Y-39833D01*
X68096Y-39795D01*
X68111Y-39776D01*
X68139Y-39757D01*
X68196Y-39757D01*
X68225Y-39776D01*
X68496Y-40024D02*
X68496Y-39814D01*
X68482Y-39776D01*
X68453Y-39757D01*
X68396Y-39757D01*
X68367Y-39776D01*
X68496Y-40005D02*
X68467Y-40024D01*
X68396Y-40024D01*
X68367Y-40005D01*
X68353Y-39967D01*
X68353Y-39929D01*
X68367Y-39891D01*
X68396Y-39872D01*
X68467Y-39872D01*
X68496Y-39852D01*
X63615Y-49480D02*
X63715Y-49480D01*
X63758Y-49690D02*
X63615Y-49690D01*
X63615Y-49290D01*
X63758Y-49290D01*
X63886Y-49690D02*
X63886Y-49423D01*
X63886Y-49499D02*
X63901Y-49461D01*
X63915Y-49442D01*
X63944Y-49423D01*
X63972Y-49423D01*
X64072Y-49690D02*
X64072Y-49423D01*
X64072Y-49499D02*
X64087Y-49461D01*
X64101Y-49442D01*
X64130Y-49423D01*
X64158Y-49423D01*
X64301Y-49690D02*
X64273Y-49671D01*
X64258Y-49652D01*
X64244Y-49614D01*
X64244Y-49499D01*
X64258Y-49461D01*
X64273Y-49442D01*
X64301Y-49423D01*
X64344Y-49423D01*
X64373Y-49442D01*
X64387Y-49461D01*
X64401Y-49499D01*
X64401Y-49614D01*
X64387Y-49652D01*
X64373Y-49671D01*
X64344Y-49690D01*
X64301Y-49690D01*
X64529Y-49690D02*
X64529Y-49423D01*
X64529Y-49499D02*
X64544Y-49461D01*
X64558Y-49442D01*
X64587Y-49423D01*
X64615Y-49423D01*
X63541Y-47131D02*
X63541Y-46731D01*
X63656Y-46731D01*
X63684Y-46750D01*
X63699Y-46769D01*
X63713Y-46807D01*
X63713Y-46864D01*
X63699Y-46902D01*
X63684Y-46921D01*
X63656Y-46940D01*
X63541Y-46940D01*
X63884Y-47131D02*
X63856Y-47112D01*
X63841Y-47093D01*
X63827Y-47055D01*
X63827Y-46940D01*
X63841Y-46902D01*
X63856Y-46883D01*
X63884Y-46864D01*
X63927Y-46864D01*
X63956Y-46883D01*
X63970Y-46902D01*
X63984Y-46940D01*
X63984Y-47055D01*
X63970Y-47093D01*
X63956Y-47112D01*
X63927Y-47131D01*
X63884Y-47131D01*
X64084Y-46864D02*
X64141Y-47131D01*
X64198Y-46940D01*
X64255Y-47131D01*
X64312Y-46864D01*
X64541Y-47112D02*
X64512Y-47131D01*
X64455Y-47131D01*
X64426Y-47112D01*
X64412Y-47074D01*
X64412Y-46921D01*
X64426Y-46883D01*
X64455Y-46864D01*
X64512Y-46864D01*
X64541Y-46883D01*
X64555Y-46921D01*
X64555Y-46959D01*
X64412Y-46998D01*
X64683Y-47131D02*
X64683Y-46864D01*
X64683Y-46940D02*
X64698Y-46902D01*
X64712Y-46883D01*
X64741Y-46864D01*
X64769Y-46864D01*
X63455Y-48114D02*
X63455Y-48343D01*
X63303Y-48229D02*
X63608Y-48229D01*
X69434Y-50029D02*
X69453Y-49986D01*
X69453Y-49915D01*
X69434Y-49886D01*
X69415Y-49872D01*
X69377Y-49857D01*
X69339Y-49857D01*
X69301Y-49872D01*
X69281Y-49886D01*
X69262Y-49915D01*
X69243Y-49972D01*
X69224Y-50000D01*
X69205Y-50015D01*
X69167Y-50029D01*
X69129Y-50029D01*
X69091Y-50015D01*
X69072Y-50000D01*
X69053Y-49972D01*
X69053Y-49900D01*
X69072Y-49857D01*
X69186Y-49771D02*
X69186Y-49657D01*
X69053Y-49729D02*
X69396Y-49729D01*
X69434Y-49714D01*
X69453Y-49686D01*
X69453Y-49657D01*
X69434Y-49443D02*
X69453Y-49472D01*
X69453Y-49529D01*
X69434Y-49558D01*
X69396Y-49572D01*
X69243Y-49572D01*
X69205Y-49558D01*
X69186Y-49529D01*
X69186Y-49472D01*
X69205Y-49443D01*
X69243Y-49429D01*
X69281Y-49429D01*
X69320Y-49572D01*
X69186Y-49329D02*
X69453Y-49258D01*
X69186Y-49186D01*
X69434Y-48957D02*
X69453Y-48986D01*
X69453Y-49043D01*
X69434Y-49072D01*
X69396Y-49086D01*
X69243Y-49086D01*
X69205Y-49072D01*
X69186Y-49043D01*
X69186Y-48986D01*
X69205Y-48957D01*
X69243Y-48943D01*
X69281Y-48943D01*
X69320Y-49086D01*
X69186Y-48815D02*
X69453Y-48815D01*
X69224Y-48815D02*
X69205Y-48800D01*
X69186Y-48772D01*
X69186Y-48729D01*
X69205Y-48700D01*
X69243Y-48686D01*
X69453Y-48686D01*
X69415Y-48143D02*
X69434Y-48157D01*
X69453Y-48200D01*
X69453Y-48229D01*
X69434Y-48272D01*
X69396Y-48300D01*
X69358Y-48315D01*
X69281Y-48329D01*
X69224Y-48329D01*
X69148Y-48315D01*
X69110Y-48300D01*
X69072Y-48272D01*
X69053Y-48229D01*
X69053Y-48200D01*
X69072Y-48157D01*
X69091Y-48143D01*
X69453Y-47886D02*
X69243Y-47886D01*
X69205Y-47900D01*
X69186Y-47929D01*
X69186Y-47986D01*
X69205Y-48015D01*
X69434Y-47886D02*
X69453Y-47915D01*
X69453Y-47986D01*
X69434Y-48015D01*
X69396Y-48029D01*
X69358Y-48029D01*
X69320Y-48015D01*
X69301Y-47986D01*
X69301Y-47915D01*
X69281Y-47886D01*
X69434Y-47758D02*
X69453Y-47729D01*
X69453Y-47672D01*
X69434Y-47644D01*
X69396Y-47629D01*
X69377Y-47629D01*
X69339Y-47644D01*
X69320Y-47672D01*
X69320Y-47715D01*
X69301Y-47744D01*
X69262Y-47758D01*
X69243Y-47758D01*
X69205Y-47744D01*
X69186Y-47715D01*
X69186Y-47672D01*
X69205Y-47644D01*
X69453Y-47372D02*
X69243Y-47372D01*
X69205Y-47386D01*
X69186Y-47415D01*
X69186Y-47472D01*
X69205Y-47501D01*
X69434Y-47372D02*
X69453Y-47401D01*
X69453Y-47472D01*
X69434Y-47501D01*
X69396Y-47515D01*
X69358Y-47515D01*
X69320Y-47501D01*
X69301Y-47472D01*
X69301Y-47401D01*
X69281Y-47372D01*
X69186Y-47101D02*
X69510Y-47101D01*
X69548Y-47115D01*
X69567Y-47130D01*
X69586Y-47158D01*
X69586Y-47201D01*
X69567Y-47230D01*
X69434Y-47101D02*
X69453Y-47130D01*
X69453Y-47187D01*
X69434Y-47215D01*
X69415Y-47230D01*
X69377Y-47244D01*
X69262Y-47244D01*
X69224Y-47230D01*
X69205Y-47215D01*
X69186Y-47187D01*
X69186Y-47130D01*
X69205Y-47101D01*
X69453Y-46959D02*
X69186Y-46959D01*
X69262Y-46959D02*
X69224Y-46944D01*
X69205Y-46930D01*
X69186Y-46901D01*
X69186Y-46873D01*
X69453Y-46644D02*
X69243Y-46644D01*
X69205Y-46658D01*
X69186Y-46687D01*
X69186Y-46744D01*
X69205Y-46773D01*
X69434Y-46644D02*
X69453Y-46673D01*
X69453Y-46744D01*
X69434Y-46773D01*
X69396Y-46787D01*
X69358Y-46787D01*
X69320Y-46773D01*
X69301Y-46744D01*
X69301Y-46673D01*
X69281Y-46644D01*
X69186Y-46502D02*
X69453Y-46502D01*
X69224Y-46502D02*
X69205Y-46487D01*
X69186Y-46459D01*
X69186Y-46416D01*
X69205Y-46387D01*
X69243Y-46373D01*
X69453Y-46373D01*
X69453Y-46102D02*
X69053Y-46102D01*
X69434Y-46102D02*
X69453Y-46131D01*
X69453Y-46188D01*
X69434Y-46216D01*
X69415Y-46231D01*
X69377Y-46245D01*
X69262Y-46245D01*
X69224Y-46231D01*
X69205Y-46216D01*
X69186Y-46188D01*
X69186Y-46131D01*
X69205Y-46102D01*
X69434Y-45845D02*
X69453Y-45874D01*
X69453Y-45931D01*
X69434Y-45960D01*
X69396Y-45974D01*
X69243Y-45974D01*
X69205Y-45960D01*
X69186Y-45931D01*
X69186Y-45874D01*
X69205Y-45845D01*
X69243Y-45831D01*
X69281Y-45831D01*
X69320Y-45974D01*
X69091Y-45488D02*
X69072Y-45474D01*
X69053Y-45445D01*
X69053Y-45374D01*
X69072Y-45345D01*
X69091Y-45331D01*
X69129Y-45316D01*
X69167Y-45316D01*
X69224Y-45331D01*
X69453Y-45502D01*
X69453Y-45316D01*
X69053Y-45130D02*
X69053Y-45102D01*
X69072Y-45073D01*
X69091Y-45059D01*
X69129Y-45045D01*
X69205Y-45030D01*
X69301Y-45030D01*
X69377Y-45045D01*
X69415Y-45059D01*
X69434Y-45073D01*
X69453Y-45102D01*
X69453Y-45130D01*
X69434Y-45159D01*
X69415Y-45173D01*
X69377Y-45188D01*
X69301Y-45202D01*
X69205Y-45202D01*
X69129Y-45188D01*
X69091Y-45173D01*
X69072Y-45159D01*
X69053Y-45130D01*
X69453Y-44744D02*
X69453Y-44916D01*
X69453Y-44830D02*
X69053Y-44830D01*
X69110Y-44859D01*
X69148Y-44887D01*
X69167Y-44916D01*
X69091Y-44630D02*
X69072Y-44616D01*
X69053Y-44587D01*
X69053Y-44516D01*
X69072Y-44487D01*
X69091Y-44473D01*
X69129Y-44458D01*
X69167Y-44458D01*
X69224Y-44473D01*
X69453Y-44644D01*
X69453Y-44458D01*
X67598Y-49965D02*
X67498Y-49774D01*
X67426Y-49965D02*
X67426Y-49565D01*
X67541Y-49565D01*
X67569Y-49584D01*
X67584Y-49603D01*
X67598Y-49641D01*
X67598Y-49698D01*
X67584Y-49736D01*
X67569Y-49755D01*
X67541Y-49774D01*
X67426Y-49774D01*
X67841Y-49946D02*
X67812Y-49965D01*
X67755Y-49965D01*
X67726Y-49946D01*
X67712Y-49908D01*
X67712Y-49755D01*
X67726Y-49717D01*
X67755Y-49698D01*
X67812Y-49698D01*
X67841Y-49717D01*
X67855Y-49755D01*
X67855Y-49793D01*
X67712Y-49832D01*
X67955Y-49698D02*
X68026Y-49965D01*
X68098Y-49698D01*
X68541Y-49755D02*
X68584Y-49774D01*
X68599Y-49793D01*
X68613Y-49832D01*
X68613Y-49889D01*
X68599Y-49927D01*
X68584Y-49946D01*
X68556Y-49965D01*
X68441Y-49965D01*
X68441Y-49565D01*
X68541Y-49565D01*
X68570Y-49584D01*
X68584Y-49603D01*
X68599Y-49641D01*
X68599Y-49679D01*
X68584Y-49717D01*
X68570Y-49736D01*
X68541Y-49755D01*
X68441Y-49755D01*
G54D12*
G36*
X67579Y-48523D02*
X67588Y-48518D01*
X67609Y-48505D01*
X67638Y-48486D01*
X67673Y-48463D01*
X67707Y-48439D01*
X67736Y-48420D01*
X67756Y-48407D01*
X67764Y-48403D01*
X67769Y-48404D01*
X67785Y-48412D01*
X67809Y-48425D01*
X67823Y-48432D01*
X67845Y-48441D01*
X67856Y-48443D01*
X67858Y-48440D01*
X67866Y-48424D01*
X67878Y-48395D01*
X67895Y-48357D01*
X67914Y-48312D01*
X67934Y-48264D01*
X67955Y-48216D01*
X67974Y-48169D01*
X67991Y-48127D01*
X68005Y-48093D01*
X68014Y-48069D01*
X68017Y-48059D01*
X68016Y-48057D01*
X68005Y-48046D01*
X67986Y-48032D01*
X67945Y-47998D01*
X67904Y-47947D01*
X67879Y-47889D01*
X67870Y-47824D01*
X67877Y-47765D01*
X67901Y-47708D01*
X67941Y-47656D01*
X67990Y-47618D01*
X68046Y-47593D01*
X68110Y-47585D01*
X68171Y-47592D01*
X68229Y-47615D01*
X68281Y-47655D01*
X68303Y-47680D01*
X68333Y-47732D01*
X68350Y-47788D01*
X68352Y-47802D01*
X68349Y-47864D01*
X68331Y-47923D01*
X68299Y-47975D01*
X68254Y-48019D01*
X68248Y-48023D01*
X68227Y-48038D01*
X68213Y-48049D01*
X68202Y-48058D01*
X68280Y-48247D01*
X68293Y-48277D01*
X68314Y-48328D01*
X68333Y-48373D01*
X68349Y-48408D01*
X68359Y-48432D01*
X68364Y-48441D01*
X68364Y-48442D01*
X68371Y-48443D01*
X68385Y-48438D01*
X68412Y-48425D01*
X68429Y-48416D01*
X68449Y-48406D01*
X68458Y-48403D01*
X68466Y-48407D01*
X68485Y-48419D01*
X68513Y-48438D01*
X68547Y-48461D01*
X68579Y-48483D01*
X68608Y-48502D01*
X68630Y-48516D01*
X68640Y-48522D01*
X68642Y-48522D01*
X68651Y-48517D01*
X68668Y-48502D01*
X68694Y-48478D01*
X68730Y-48442D01*
X68736Y-48437D01*
X68766Y-48406D01*
X68790Y-48381D01*
X68806Y-48363D01*
X68812Y-48354D01*
X68812Y-48354D01*
X68807Y-48344D01*
X68793Y-48323D01*
X68774Y-48293D01*
X68750Y-48258D01*
X68687Y-48167D01*
X68722Y-48081D01*
X68732Y-48055D01*
X68746Y-48023D01*
X68756Y-48001D01*
X68761Y-47991D01*
X68770Y-47987D01*
X68793Y-47982D01*
X68827Y-47975D01*
X68868Y-47967D01*
X68907Y-47960D01*
X68941Y-47953D01*
X68967Y-47948D01*
X68978Y-47946D01*
X68981Y-47945D01*
X68983Y-47939D01*
X68984Y-47927D01*
X68985Y-47906D01*
X68986Y-47873D01*
X68986Y-47824D01*
X68986Y-47819D01*
X68985Y-47773D01*
X68985Y-47736D01*
X68983Y-47713D01*
X68982Y-47703D01*
X68982Y-47703D01*
X68971Y-47701D01*
X68946Y-47695D01*
X68911Y-47689D01*
X68870Y-47681D01*
X68867Y-47680D01*
X68826Y-47672D01*
X68791Y-47665D01*
X68767Y-47659D01*
X68756Y-47656D01*
X68754Y-47653D01*
X68746Y-47637D01*
X68734Y-47611D01*
X68720Y-47580D01*
X68707Y-47547D01*
X68695Y-47518D01*
X68687Y-47496D01*
X68685Y-47486D01*
X68685Y-47486D01*
X68691Y-47476D01*
X68705Y-47455D01*
X68725Y-47425D01*
X68750Y-47390D01*
X68751Y-47387D01*
X68775Y-47352D01*
X68795Y-47322D01*
X68807Y-47301D01*
X68812Y-47292D01*
X68812Y-47291D01*
X68804Y-47281D01*
X68786Y-47261D01*
X68761Y-47234D01*
X68730Y-47203D01*
X68720Y-47193D01*
X68686Y-47160D01*
X68663Y-47138D01*
X68648Y-47127D01*
X68641Y-47124D01*
X68641Y-47124D01*
X68630Y-47131D01*
X68608Y-47145D01*
X68578Y-47166D01*
X68542Y-47190D01*
X68540Y-47191D01*
X68505Y-47215D01*
X68476Y-47235D01*
X68455Y-47249D01*
X68446Y-47254D01*
X68444Y-47254D01*
X68430Y-47250D01*
X68405Y-47241D01*
X68375Y-47229D01*
X68342Y-47216D01*
X68313Y-47204D01*
X68291Y-47194D01*
X68280Y-47188D01*
X68280Y-47187D01*
X68276Y-47175D01*
X68270Y-47149D01*
X68263Y-47113D01*
X68255Y-47070D01*
X68253Y-47063D01*
X68245Y-47021D01*
X68239Y-46987D01*
X68234Y-46963D01*
X68231Y-46953D01*
X68225Y-46952D01*
X68205Y-46950D01*
X68174Y-46949D01*
X68136Y-46949D01*
X68097Y-46949D01*
X68058Y-46950D01*
X68025Y-46951D01*
X68002Y-46953D01*
X67992Y-46955D01*
X67991Y-46955D01*
X67988Y-46968D01*
X67982Y-46994D01*
X67975Y-47031D01*
X67966Y-47074D01*
X67965Y-47081D01*
X67957Y-47123D01*
X67950Y-47157D01*
X67945Y-47181D01*
X67942Y-47190D01*
X67939Y-47192D01*
X67921Y-47199D01*
X67893Y-47211D01*
X67859Y-47225D01*
X67779Y-47257D01*
X67680Y-47190D01*
X67671Y-47184D01*
X67636Y-47160D01*
X67607Y-47140D01*
X67587Y-47127D01*
X67578Y-47123D01*
X67578Y-47123D01*
X67568Y-47132D01*
X67548Y-47150D01*
X67522Y-47176D01*
X67491Y-47207D01*
X67468Y-47229D01*
X67441Y-47257D01*
X67423Y-47276D01*
X67414Y-47288D01*
X67411Y-47295D01*
X67412Y-47300D01*
X67418Y-47310D01*
X67432Y-47331D01*
X67453Y-47361D01*
X67477Y-47396D01*
X67496Y-47425D01*
X67518Y-47458D01*
X67532Y-47482D01*
X67536Y-47493D01*
X67535Y-47498D01*
X67528Y-47517D01*
X67517Y-47546D01*
X67502Y-47581D01*
X67468Y-47659D01*
X67417Y-47669D01*
X67386Y-47674D01*
X67342Y-47683D01*
X67301Y-47691D01*
X67236Y-47703D01*
X67234Y-47940D01*
X67244Y-47944D01*
X67254Y-47947D01*
X67278Y-47952D01*
X67312Y-47959D01*
X67352Y-47967D01*
X67386Y-47973D01*
X67421Y-47980D01*
X67446Y-47985D01*
X67457Y-47987D01*
X67460Y-47991D01*
X67468Y-48007D01*
X67481Y-48034D01*
X67494Y-48066D01*
X67508Y-48099D01*
X67520Y-48130D01*
X67529Y-48153D01*
X67532Y-48166D01*
X67527Y-48175D01*
X67514Y-48195D01*
X67495Y-48224D01*
X67472Y-48258D01*
X67448Y-48293D01*
X67428Y-48322D01*
X67415Y-48343D01*
X67409Y-48353D01*
X67412Y-48360D01*
X67425Y-48376D01*
X67451Y-48403D01*
X67490Y-48441D01*
X67496Y-48447D01*
X67527Y-48477D01*
X67553Y-48501D01*
X67571Y-48517D01*
X67579Y-48523D01*
X67579Y-48523D01*
G37*
G54D13*
X61470Y-49110D02*
X61470Y-50410D01*
X56730Y-49110D02*
X56730Y-50410D01*
X61470Y-48410D02*
X62160Y-49100D01*
X62160Y-49100D02*
X61470Y-49790D01*
X56730Y-48410D02*
X56040Y-49100D01*
X56040Y-49100D02*
X56730Y-49790D01*
X56730Y-50410D02*
X61470Y-50410D01*
X61470Y-49100D02*
X61470Y-46850D01*
X61470Y-46850D02*
X56730Y-46850D01*
X56730Y-46850D02*
X56730Y-49100D01*
G54D14*
X52300Y-46450D02*
X51200Y-46450D01*
X52300Y-43950D02*
X51200Y-43950D01*
G54D15*
X51200Y-46450D02*
X51200Y-45550D01*
X52300Y-45550D02*
X52300Y-46450D01*
X51200Y-44850D02*
X51200Y-43950D01*
X52300Y-43950D02*
X52300Y-44850D01*
G54D13*
X70100Y-29000D02*
X70100Y-35450D01*
X70100Y-35450D02*
X48600Y-35450D01*
X48600Y-35450D02*
X48600Y-29000D01*
X70100Y-29000D02*
X48600Y-29000D01*
G54D16*
X48950Y-44000D02*
X49950Y-44000D01*
X49950Y-44000D02*
X49950Y-50000D01*
X49950Y-50000D02*
X48950Y-50000D01*
X48950Y-50000D02*
X48950Y-44000D01*
X48950Y-45000D02*
X49950Y-45000D01*
G54D17*
X61350Y-39950D02*
X61350Y-39050D01*
X61350Y-39050D02*
X61850Y-39050D01*
X61850Y-39050D02*
X61850Y-39950D01*
X61850Y-39950D02*
X61350Y-39950D01*
X60150Y-39950D02*
X60150Y-39050D01*
X60150Y-39050D02*
X60650Y-39050D01*
X60650Y-39050D02*
X60650Y-39950D01*
X60650Y-39950D02*
X60150Y-39950D01*
X58950Y-39950D02*
X58950Y-39050D01*
X58950Y-39050D02*
X59450Y-39050D01*
X59450Y-39050D02*
X59450Y-39950D01*
X59450Y-39950D02*
X58950Y-39950D01*
X57850Y-40350D02*
X57850Y-39450D01*
X57850Y-39450D02*
X58350Y-39450D01*
X58350Y-39450D02*
X58350Y-40350D01*
X58350Y-40350D02*
X57850Y-40350D01*
X64950Y-38550D02*
X64950Y-37650D01*
X64950Y-37650D02*
X65450Y-37650D01*
X65450Y-37650D02*
X65450Y-38550D01*
X65450Y-38550D02*
X64950Y-38550D01*
X65750Y-38550D02*
X65750Y-37650D01*
X65750Y-37650D02*
X66250Y-37650D01*
X66250Y-37650D02*
X66250Y-38550D01*
X66250Y-38550D02*
X65750Y-38550D01*
X66550Y-38550D02*
X66550Y-37650D01*
X66550Y-37650D02*
X67050Y-37650D01*
X67050Y-37650D02*
X67050Y-38550D01*
X67050Y-38550D02*
X66550Y-38550D01*
X67350Y-38550D02*
X67350Y-37650D01*
X67350Y-37650D02*
X67850Y-37650D01*
X67850Y-37650D02*
X67850Y-38550D01*
X67850Y-38550D02*
X67350Y-38550D01*
X68250Y-38550D02*
X68250Y-37650D01*
X68250Y-37650D02*
X68750Y-37650D01*
X68750Y-37650D02*
X68750Y-38550D01*
X68750Y-38550D02*
X68250Y-38550D01*
X51050Y-39650D02*
X51050Y-38750D01*
X51050Y-38750D02*
X51550Y-38750D01*
X51550Y-38750D02*
X51550Y-39650D01*
X51550Y-39650D02*
X51050Y-39650D01*
X49950Y-39750D02*
X49950Y-38850D01*
X49950Y-38850D02*
X50450Y-38850D01*
X50450Y-38850D02*
X50450Y-39750D01*
X50450Y-39750D02*
X49950Y-39750D01*
X48850Y-39750D02*
X48850Y-38850D01*
X48850Y-38850D02*
X49350Y-38850D01*
X49350Y-38850D02*
X49350Y-39750D01*
X49350Y-39750D02*
X48850Y-39750D01*
X52150Y-39650D02*
X52150Y-38750D01*
X52150Y-38750D02*
X52650Y-38750D01*
X52650Y-38750D02*
X52650Y-39650D01*
X52650Y-39650D02*
X52150Y-39650D01*
X49450Y-35950D02*
X50350Y-35950D01*
X50350Y-35950D02*
X50350Y-36450D01*
X50350Y-36450D02*
X49450Y-36450D01*
X49450Y-36450D02*
X49450Y-35950D01*
X49450Y-37150D02*
X50350Y-37150D01*
X50350Y-37150D02*
X50350Y-37650D01*
X50350Y-37650D02*
X49450Y-37650D01*
X49450Y-37650D02*
X49450Y-37150D01*
X57050Y-39650D02*
X57050Y-38750D01*
X57050Y-38750D02*
X57550Y-38750D01*
X57550Y-38750D02*
X57550Y-39650D01*
X57550Y-39650D02*
X57050Y-39650D01*
X55350Y-38950D02*
X54450Y-38950D01*
X54450Y-38950D02*
X54450Y-38450D01*
X54450Y-38450D02*
X55350Y-38450D01*
X55350Y-38450D02*
X55350Y-38950D01*
X68750Y-42950D02*
X68750Y-43850D01*
X68750Y-43850D02*
X68250Y-43850D01*
X68250Y-43850D02*
X68250Y-42950D01*
X68250Y-42950D02*
X68750Y-42950D01*
X54000Y-46500D02*
X53100Y-46500D01*
X53100Y-46500D02*
X53100Y-46000D01*
X53100Y-46000D02*
X54000Y-46000D01*
X54000Y-46000D02*
X54000Y-46500D01*
X50100Y-43750D02*
X50100Y-42850D01*
X50100Y-42850D02*
X50600Y-42850D01*
X50600Y-42850D02*
X50600Y-43750D01*
X50600Y-43750D02*
X50100Y-43750D01*
X63650Y-43750D02*
X63650Y-44650D01*
X63650Y-44650D02*
X63150Y-44650D01*
X63150Y-44650D02*
X63150Y-43750D01*
X63150Y-43750D02*
X63650Y-43750D01*
X62750Y-43750D02*
X62750Y-44650D01*
X62750Y-44650D02*
X62250Y-44650D01*
X62250Y-44650D02*
X62250Y-43750D01*
X62250Y-43750D02*
X62750Y-43750D01*
X68350Y-42050D02*
X69250Y-42050D01*
X69250Y-42050D02*
X69250Y-42550D01*
X69250Y-42550D02*
X68350Y-42550D01*
X68350Y-42550D02*
X68350Y-42050D01*
X58650Y-44250D02*
X58650Y-43350D01*
X58650Y-43350D02*
X59150Y-43350D01*
X59150Y-43350D02*
X59150Y-44250D01*
X59150Y-44250D02*
X58650Y-44250D01*
X52320Y-43360D02*
X51420Y-43360D01*
X51420Y-43360D02*
X51420Y-42860D01*
X51420Y-42860D02*
X52320Y-42860D01*
X52320Y-42860D02*
X52320Y-43360D01*
X65191Y-40800D02*
X65188Y-40827D01*
X65180Y-40853D01*
X65167Y-40878D01*
X65150Y-40899D01*
X65128Y-40916D01*
X65104Y-40929D01*
X65078Y-40938D01*
X65050Y-40940D01*
X65024Y-40938D01*
X64998Y-40930D01*
X64973Y-40917D01*
X64952Y-40900D01*
X64934Y-40879D01*
X64921Y-40855D01*
X64913Y-40829D01*
X64910Y-40801D01*
X64912Y-40775D01*
X64919Y-40749D01*
X64932Y-40724D01*
X64949Y-40703D01*
X64970Y-40685D01*
X64994Y-40671D01*
X65020Y-40663D01*
X65048Y-40660D01*
X65074Y-40662D01*
X65100Y-40669D01*
X65125Y-40681D01*
X65147Y-40698D01*
X65165Y-40719D01*
X65178Y-40743D01*
X65187Y-40769D01*
X65190Y-40797D01*
X65191Y-40800D01*
X66150Y-40600D02*
X66150Y-40900D01*
X66150Y-40900D02*
X65650Y-40900D01*
X65650Y-40900D02*
X65650Y-40600D01*
X64850Y-44650D02*
X64850Y-40600D01*
X66950Y-40600D02*
X66950Y-44650D01*
X66950Y-40600D02*
X64850Y-40600D01*
X66950Y-44650D02*
X64850Y-44650D01*
G54D16*
X53630Y-45120D02*
X53630Y-41180D01*
X53630Y-41180D02*
X57570Y-41180D01*
X57570Y-44930D02*
X57570Y-41180D01*
X57380Y-45120D02*
X53630Y-45120D01*
X57570Y-44930D02*
X57380Y-45120D01*
G54D15*
X57350Y-44650D02*
X57345Y-44698D01*
X57331Y-44745D01*
X57308Y-44788D01*
X57277Y-44826D01*
X57239Y-44857D01*
X57196Y-44880D01*
X57150Y-44894D01*
X57101Y-44899D01*
X57054Y-44895D01*
X57007Y-44881D01*
X56964Y-44859D01*
X56926Y-44828D01*
X56894Y-44791D01*
X56871Y-44748D01*
X56856Y-44701D01*
X56851Y-44653D01*
X56855Y-44605D01*
X56868Y-44558D01*
X56890Y-44515D01*
X56921Y-44477D01*
X56958Y-44445D01*
X57000Y-44421D01*
X57047Y-44406D01*
X57095Y-44401D01*
X57143Y-44404D01*
X57190Y-44417D01*
X57233Y-44439D01*
X57272Y-44469D01*
X57304Y-44506D01*
X57328Y-44549D01*
X57343Y-44595D01*
X57349Y-44644D01*
X57350Y-44650D01*
G54D17*
X65800Y-47400D02*
X66700Y-47400D01*
X66700Y-47400D02*
X66700Y-47900D01*
X66700Y-47900D02*
X65800Y-47900D01*
X65800Y-47900D02*
X65800Y-47400D01*
X65770Y-48569D02*
X66670Y-48569D01*
X66670Y-48569D02*
X66670Y-49069D01*
X66670Y-49069D02*
X65770Y-49069D01*
X65770Y-49069D02*
X65770Y-48569D01*
G54D14*
X51360Y-49780D02*
X51383Y-49708D01*
X51383Y-49589D01*
X51360Y-49542D01*
X51336Y-49518D01*
X51288Y-49494D01*
X51241Y-49494D01*
X51193Y-49518D01*
X51169Y-49542D01*
X51145Y-49589D01*
X51121Y-49685D01*
X51098Y-49732D01*
X51074Y-49756D01*
X51026Y-49780D01*
X50979Y-49780D01*
X50931Y-49756D01*
X50907Y-49732D01*
X50883Y-49685D01*
X50883Y-49565D01*
X50907Y-49494D01*
X50883Y-49328D02*
X51383Y-49209D01*
X51026Y-49113D01*
X51383Y-49018D01*
X50883Y-48899D01*
X51383Y-48447D02*
X51383Y-48733D01*
X51383Y-48590D02*
X50883Y-48590D01*
X50955Y-48638D01*
X51002Y-48685D01*
X51026Y-48733D01*
G54D18*
X64215Y-49041D02*
X63915Y-49041D01*
X63915Y-48969D01*
X63930Y-48926D01*
X63958Y-48898D01*
X63987Y-48883D01*
X64044Y-48869D01*
X64087Y-48869D01*
X64144Y-48883D01*
X64173Y-48898D01*
X64201Y-48926D01*
X64215Y-48969D01*
X64215Y-49041D01*
X63944Y-48755D02*
X63930Y-48741D01*
X63915Y-48712D01*
X63915Y-48641D01*
X63930Y-48612D01*
X63944Y-48598D01*
X63973Y-48583D01*
X64001Y-48583D01*
X64044Y-48598D01*
X64215Y-48769D01*
X64215Y-48583D01*
X64215Y-47860D02*
X63915Y-47860D01*
X63915Y-47788D01*
X63930Y-47745D01*
X63958Y-47717D01*
X63987Y-47702D01*
X64044Y-47688D01*
X64087Y-47688D01*
X64144Y-47702D01*
X64173Y-47717D01*
X64201Y-47745D01*
X64215Y-47788D01*
X64215Y-47860D01*
X64215Y-47402D02*
X64215Y-47574D01*
X64215Y-47488D02*
X63915Y-47488D01*
X63958Y-47517D01*
X63987Y-47545D01*
X64001Y-47574D01*
G54D16*
X58091Y-49320D02*
X58062Y-49348D01*
X57976Y-49377D01*
X57919Y-49377D01*
X57834Y-49348D01*
X57776Y-49291D01*
X57748Y-49234D01*
X57719Y-49120D01*
X57719Y-49034D01*
X57748Y-48920D01*
X57776Y-48863D01*
X57834Y-48805D01*
X57919Y-48777D01*
X57976Y-48777D01*
X58062Y-48805D01*
X58091Y-48834D01*
X58462Y-48777D02*
X58576Y-48777D01*
X58634Y-48805D01*
X58691Y-48863D01*
X58719Y-48977D01*
X58719Y-49177D01*
X58691Y-49291D01*
X58634Y-49348D01*
X58576Y-49377D01*
X58462Y-49377D01*
X58405Y-49348D01*
X58348Y-49291D01*
X58319Y-49177D01*
X58319Y-48977D01*
X58348Y-48863D01*
X58405Y-48805D01*
X58462Y-48777D01*
X58977Y-49377D02*
X58977Y-48777D01*
X59320Y-49377D01*
X59320Y-48777D01*
X59606Y-49377D02*
X59606Y-48777D01*
X59949Y-49377D01*
X59949Y-48777D01*
X60549Y-49377D02*
X60206Y-49377D01*
X60378Y-49377D02*
X60378Y-48777D01*
X60321Y-48863D01*
X60263Y-48920D01*
X60206Y-48948D01*
G54D10*
X52473Y-45166D02*
X52706Y-45516D01*
X52706Y-45166D02*
X52473Y-45516D01*
X53023Y-45516D02*
X52823Y-45516D01*
X52923Y-45516D02*
X52923Y-45166D01*
X52889Y-45216D01*
X52856Y-45249D01*
X52823Y-45266D01*
G54D16*
X53058Y-31643D02*
X53058Y-31043D01*
X53286Y-31043D01*
X53344Y-31071D01*
X53372Y-31100D01*
X53401Y-31157D01*
X53401Y-31243D01*
X53372Y-31300D01*
X53344Y-31329D01*
X53286Y-31357D01*
X53058Y-31357D01*
X53972Y-31643D02*
X53629Y-31643D01*
X53801Y-31643D02*
X53801Y-31043D01*
X53744Y-31129D01*
X53686Y-31186D01*
X53629Y-31214D01*
G54D15*
X50477Y-47460D02*
X50077Y-47460D01*
X50077Y-47307D01*
X50096Y-47269D01*
X50115Y-47250D01*
X50153Y-47231D01*
X50210Y-47231D01*
X50248Y-47250D01*
X50267Y-47269D01*
X50286Y-47307D01*
X50286Y-47460D01*
X50115Y-47079D02*
X50096Y-47060D01*
X50077Y-47022D01*
X50077Y-46926D01*
X50096Y-46888D01*
X50115Y-46869D01*
X50153Y-46850D01*
X50191Y-46850D01*
X50248Y-46869D01*
X50477Y-47098D01*
X50477Y-46850D01*
G54D19*
X61460Y-38932D02*
X61400Y-38799D01*
X61357Y-38932D02*
X61357Y-38652D01*
X61425Y-38652D01*
X61443Y-38666D01*
X61451Y-38679D01*
X61460Y-38706D01*
X61460Y-38746D01*
X61451Y-38772D01*
X61443Y-38786D01*
X61425Y-38799D01*
X61357Y-38799D01*
X61631Y-38932D02*
X61528Y-38932D01*
X61580Y-38932D02*
X61580Y-38652D01*
X61563Y-38692D01*
X61545Y-38719D01*
X61528Y-38732D01*
X61691Y-38652D02*
X61811Y-38652D01*
X61734Y-38932D01*
X60279Y-38932D02*
X60219Y-38799D01*
X60176Y-38932D02*
X60176Y-38652D01*
X60244Y-38652D01*
X60262Y-38666D01*
X60270Y-38679D01*
X60279Y-38706D01*
X60279Y-38746D01*
X60270Y-38772D01*
X60262Y-38786D01*
X60244Y-38799D01*
X60176Y-38799D01*
X60450Y-38932D02*
X60347Y-38932D01*
X60399Y-38932D02*
X60399Y-38652D01*
X60382Y-38692D01*
X60364Y-38719D01*
X60347Y-38732D01*
X60604Y-38652D02*
X60570Y-38652D01*
X60553Y-38666D01*
X60544Y-38679D01*
X60527Y-38719D01*
X60518Y-38772D01*
X60518Y-38879D01*
X60527Y-38906D01*
X60535Y-38919D01*
X60553Y-38932D01*
X60587Y-38932D01*
X60604Y-38919D01*
X60613Y-38906D01*
X60621Y-38879D01*
X60621Y-38812D01*
X60613Y-38786D01*
X60604Y-38772D01*
X60587Y-38759D01*
X60553Y-38759D01*
X60535Y-38772D01*
X60527Y-38786D01*
X60518Y-38812D01*
X59098Y-38932D02*
X59038Y-38799D01*
X58995Y-38932D02*
X58995Y-38652D01*
X59063Y-38652D01*
X59081Y-38666D01*
X59089Y-38679D01*
X59098Y-38706D01*
X59098Y-38746D01*
X59089Y-38772D01*
X59081Y-38786D01*
X59063Y-38799D01*
X58995Y-38799D01*
X59269Y-38932D02*
X59166Y-38932D01*
X59218Y-38932D02*
X59218Y-38652D01*
X59201Y-38692D01*
X59183Y-38719D01*
X59166Y-38732D01*
X59432Y-38652D02*
X59346Y-38652D01*
X59337Y-38786D01*
X59346Y-38772D01*
X59363Y-38759D01*
X59406Y-38759D01*
X59423Y-38772D01*
X59432Y-38786D01*
X59440Y-38812D01*
X59440Y-38879D01*
X59432Y-38906D01*
X59423Y-38919D01*
X59406Y-38932D01*
X59363Y-38932D01*
X59346Y-38919D01*
X59337Y-38906D01*
X57995Y-39326D02*
X57935Y-39193D01*
X57892Y-39326D02*
X57892Y-39046D01*
X57960Y-39046D01*
X57978Y-39060D01*
X57986Y-39073D01*
X57995Y-39100D01*
X57995Y-39140D01*
X57986Y-39166D01*
X57978Y-39180D01*
X57960Y-39193D01*
X57892Y-39193D01*
X58166Y-39326D02*
X58063Y-39326D01*
X58115Y-39326D02*
X58115Y-39046D01*
X58098Y-39086D01*
X58080Y-39113D01*
X58063Y-39126D01*
X58320Y-39140D02*
X58320Y-39326D01*
X58277Y-39033D02*
X58234Y-39233D01*
X58346Y-39233D01*
X65082Y-37515D02*
X65022Y-37382D01*
X64979Y-37515D02*
X64979Y-37235D01*
X65047Y-37235D01*
X65065Y-37249D01*
X65073Y-37262D01*
X65082Y-37289D01*
X65082Y-37329D01*
X65073Y-37355D01*
X65065Y-37369D01*
X65047Y-37382D01*
X64979Y-37382D01*
X65253Y-37515D02*
X65150Y-37515D01*
X65202Y-37515D02*
X65202Y-37235D01*
X65185Y-37275D01*
X65167Y-37302D01*
X65150Y-37315D01*
X65313Y-37235D02*
X65424Y-37235D01*
X65364Y-37342D01*
X65390Y-37342D01*
X65407Y-37355D01*
X65416Y-37369D01*
X65424Y-37395D01*
X65424Y-37462D01*
X65416Y-37489D01*
X65407Y-37502D01*
X65390Y-37515D01*
X65338Y-37515D01*
X65321Y-37502D01*
X65313Y-37489D01*
X65948Y-37515D02*
X65888Y-37382D01*
X65845Y-37515D02*
X65845Y-37235D01*
X65913Y-37235D01*
X65931Y-37249D01*
X65939Y-37262D01*
X65948Y-37289D01*
X65948Y-37329D01*
X65939Y-37355D01*
X65931Y-37369D01*
X65913Y-37382D01*
X65845Y-37382D01*
X66119Y-37515D02*
X66016Y-37515D01*
X66068Y-37515D02*
X66068Y-37235D01*
X66051Y-37275D01*
X66033Y-37302D01*
X66016Y-37315D01*
X66187Y-37262D02*
X66196Y-37249D01*
X66213Y-37235D01*
X66256Y-37235D01*
X66273Y-37249D01*
X66282Y-37262D01*
X66290Y-37289D01*
X66290Y-37315D01*
X66282Y-37355D01*
X66179Y-37515D01*
X66290Y-37515D01*
X66657Y-37515D02*
X66597Y-37382D01*
X66554Y-37515D02*
X66554Y-37235D01*
X66622Y-37235D01*
X66640Y-37249D01*
X66648Y-37262D01*
X66657Y-37289D01*
X66657Y-37329D01*
X66648Y-37355D01*
X66640Y-37369D01*
X66622Y-37382D01*
X66554Y-37382D01*
X66828Y-37515D02*
X66725Y-37515D01*
X66777Y-37515D02*
X66777Y-37235D01*
X66760Y-37275D01*
X66742Y-37302D01*
X66725Y-37315D01*
X66999Y-37515D02*
X66896Y-37515D01*
X66948Y-37515D02*
X66948Y-37235D01*
X66931Y-37275D01*
X66913Y-37302D01*
X66896Y-37315D01*
X67444Y-37515D02*
X67384Y-37382D01*
X67341Y-37515D02*
X67341Y-37235D01*
X67409Y-37235D01*
X67427Y-37249D01*
X67435Y-37262D01*
X67444Y-37289D01*
X67444Y-37329D01*
X67435Y-37355D01*
X67427Y-37369D01*
X67409Y-37382D01*
X67341Y-37382D01*
X67615Y-37515D02*
X67512Y-37515D01*
X67564Y-37515D02*
X67564Y-37235D01*
X67547Y-37275D01*
X67529Y-37302D01*
X67512Y-37315D01*
X67726Y-37235D02*
X67743Y-37235D01*
X67760Y-37249D01*
X67769Y-37262D01*
X67778Y-37289D01*
X67786Y-37342D01*
X67786Y-37409D01*
X67778Y-37462D01*
X67769Y-37489D01*
X67760Y-37502D01*
X67743Y-37515D01*
X67726Y-37515D01*
X67709Y-37502D01*
X67700Y-37489D01*
X67692Y-37462D01*
X67683Y-37409D01*
X67683Y-37342D01*
X67692Y-37289D01*
X67700Y-37262D01*
X67709Y-37249D01*
X67726Y-37235D01*
X68475Y-37515D02*
X68415Y-37382D01*
X68372Y-37515D02*
X68372Y-37235D01*
X68440Y-37235D01*
X68458Y-37249D01*
X68466Y-37262D01*
X68475Y-37289D01*
X68475Y-37329D01*
X68466Y-37355D01*
X68458Y-37369D01*
X68440Y-37382D01*
X68372Y-37382D01*
X68560Y-37515D02*
X68595Y-37515D01*
X68612Y-37502D01*
X68620Y-37489D01*
X68638Y-37449D01*
X68646Y-37395D01*
X68646Y-37289D01*
X68638Y-37262D01*
X68629Y-37249D01*
X68612Y-37235D01*
X68578Y-37235D01*
X68560Y-37249D01*
X68552Y-37262D01*
X68543Y-37289D01*
X68543Y-37355D01*
X68552Y-37382D01*
X68560Y-37395D01*
X68578Y-37409D01*
X68612Y-37409D01*
X68629Y-37395D01*
X68638Y-37382D01*
X68646Y-37355D01*
X51231Y-38617D02*
X51171Y-38484D01*
X51128Y-38617D02*
X51128Y-38337D01*
X51196Y-38337D01*
X51214Y-38351D01*
X51222Y-38364D01*
X51231Y-38391D01*
X51231Y-38431D01*
X51222Y-38457D01*
X51214Y-38471D01*
X51196Y-38484D01*
X51128Y-38484D01*
X51334Y-38457D02*
X51316Y-38444D01*
X51308Y-38431D01*
X51299Y-38404D01*
X51299Y-38391D01*
X51308Y-38364D01*
X51316Y-38351D01*
X51334Y-38337D01*
X51368Y-38337D01*
X51385Y-38351D01*
X51394Y-38364D01*
X51402Y-38391D01*
X51402Y-38404D01*
X51394Y-38431D01*
X51385Y-38444D01*
X51368Y-38457D01*
X51334Y-38457D01*
X51316Y-38471D01*
X51308Y-38484D01*
X51299Y-38511D01*
X51299Y-38564D01*
X51308Y-38591D01*
X51316Y-38604D01*
X51334Y-38617D01*
X51368Y-38617D01*
X51385Y-38604D01*
X51394Y-38591D01*
X51402Y-38564D01*
X51402Y-38511D01*
X51394Y-38484D01*
X51385Y-38471D01*
X51368Y-38457D01*
X50207Y-38696D02*
X50147Y-38563D01*
X50104Y-38696D02*
X50104Y-38416D01*
X50172Y-38416D01*
X50190Y-38430D01*
X50198Y-38443D01*
X50207Y-38470D01*
X50207Y-38510D01*
X50198Y-38536D01*
X50190Y-38550D01*
X50172Y-38563D01*
X50104Y-38563D01*
X50267Y-38416D02*
X50387Y-38416D01*
X50310Y-38696D01*
X49105Y-38696D02*
X49045Y-38563D01*
X49002Y-38696D02*
X49002Y-38416D01*
X49070Y-38416D01*
X49088Y-38430D01*
X49096Y-38443D01*
X49105Y-38470D01*
X49105Y-38510D01*
X49096Y-38536D01*
X49088Y-38550D01*
X49070Y-38563D01*
X49002Y-38563D01*
X49259Y-38416D02*
X49225Y-38416D01*
X49208Y-38430D01*
X49199Y-38443D01*
X49182Y-38483D01*
X49173Y-38536D01*
X49173Y-38643D01*
X49182Y-38670D01*
X49190Y-38683D01*
X49208Y-38696D01*
X49242Y-38696D01*
X49259Y-38683D01*
X49268Y-38670D01*
X49276Y-38643D01*
X49276Y-38576D01*
X49268Y-38550D01*
X49259Y-38536D01*
X49242Y-38523D01*
X49208Y-38523D01*
X49190Y-38536D01*
X49182Y-38550D01*
X49173Y-38576D01*
X52333Y-38617D02*
X52273Y-38484D01*
X52230Y-38617D02*
X52230Y-38337D01*
X52298Y-38337D01*
X52316Y-38351D01*
X52324Y-38364D01*
X52333Y-38391D01*
X52333Y-38431D01*
X52324Y-38457D01*
X52316Y-38471D01*
X52298Y-38484D01*
X52230Y-38484D01*
X52496Y-38337D02*
X52410Y-38337D01*
X52401Y-38471D01*
X52410Y-38457D01*
X52427Y-38444D01*
X52470Y-38444D01*
X52487Y-38457D01*
X52496Y-38471D01*
X52504Y-38497D01*
X52504Y-38564D01*
X52496Y-38591D01*
X52487Y-38604D01*
X52470Y-38617D01*
X52427Y-38617D01*
X52410Y-38604D01*
X52401Y-38591D01*
X50601Y-36333D02*
X50541Y-36200D01*
X50498Y-36333D02*
X50498Y-36053D01*
X50566Y-36053D01*
X50584Y-36067D01*
X50592Y-36080D01*
X50601Y-36107D01*
X50601Y-36147D01*
X50592Y-36173D01*
X50584Y-36187D01*
X50566Y-36200D01*
X50498Y-36200D01*
X50755Y-36147D02*
X50755Y-36333D01*
X50712Y-36040D02*
X50669Y-36240D01*
X50781Y-36240D01*
X50601Y-37515D02*
X50541Y-37382D01*
X50498Y-37515D02*
X50498Y-37235D01*
X50566Y-37235D01*
X50584Y-37249D01*
X50592Y-37262D01*
X50601Y-37289D01*
X50601Y-37329D01*
X50592Y-37355D01*
X50584Y-37369D01*
X50566Y-37382D01*
X50498Y-37382D01*
X50661Y-37235D02*
X50772Y-37235D01*
X50712Y-37342D01*
X50738Y-37342D01*
X50755Y-37355D01*
X50764Y-37369D01*
X50772Y-37395D01*
X50772Y-37462D01*
X50764Y-37489D01*
X50755Y-37502D01*
X50738Y-37515D01*
X50686Y-37515D01*
X50669Y-37502D01*
X50661Y-37489D01*
X57294Y-38538D02*
X57234Y-38405D01*
X57191Y-38538D02*
X57191Y-38258D01*
X57259Y-38258D01*
X57277Y-38272D01*
X57285Y-38285D01*
X57294Y-38312D01*
X57294Y-38352D01*
X57285Y-38378D01*
X57277Y-38392D01*
X57259Y-38405D01*
X57191Y-38405D01*
X57362Y-38285D02*
X57371Y-38272D01*
X57388Y-38258D01*
X57431Y-38258D01*
X57448Y-38272D01*
X57457Y-38285D01*
X57465Y-38312D01*
X57465Y-38338D01*
X57457Y-38378D01*
X57354Y-38538D01*
X57465Y-38538D01*
X54932Y-38302D02*
X54872Y-38169D01*
X54829Y-38302D02*
X54829Y-38022D01*
X54897Y-38022D01*
X54915Y-38036D01*
X54923Y-38049D01*
X54932Y-38076D01*
X54932Y-38116D01*
X54923Y-38142D01*
X54915Y-38156D01*
X54897Y-38169D01*
X54829Y-38169D01*
X55103Y-38302D02*
X55000Y-38302D01*
X55052Y-38302D02*
X55052Y-38022D01*
X55035Y-38062D01*
X55017Y-38089D01*
X55000Y-38102D01*
X69168Y-43415D02*
X69168Y-43501D01*
X68888Y-43501D01*
X69168Y-43261D02*
X69168Y-43364D01*
X69168Y-43312D02*
X68888Y-43312D01*
X68928Y-43329D01*
X68955Y-43347D01*
X68968Y-43364D01*
X52837Y-46315D02*
X52850Y-46324D01*
X52863Y-46350D01*
X52863Y-46367D01*
X52850Y-46392D01*
X52823Y-46410D01*
X52797Y-46418D01*
X52743Y-46427D01*
X52703Y-46427D01*
X52650Y-46418D01*
X52623Y-46410D01*
X52597Y-46392D01*
X52583Y-46367D01*
X52583Y-46350D01*
X52597Y-46324D01*
X52610Y-46315D01*
X52583Y-46255D02*
X52583Y-46135D01*
X52863Y-46212D01*
X49972Y-43357D02*
X49985Y-43366D01*
X49998Y-43392D01*
X49998Y-43409D01*
X49985Y-43434D01*
X49958Y-43452D01*
X49932Y-43460D01*
X49878Y-43469D01*
X49838Y-43469D01*
X49785Y-43460D01*
X49758Y-43452D01*
X49732Y-43434D01*
X49718Y-43409D01*
X49718Y-43392D01*
X49732Y-43366D01*
X49745Y-43357D01*
X49718Y-43203D02*
X49718Y-43237D01*
X49732Y-43254D01*
X49745Y-43263D01*
X49785Y-43280D01*
X49838Y-43289D01*
X49945Y-43289D01*
X49972Y-43280D01*
X49985Y-43272D01*
X49998Y-43254D01*
X49998Y-43220D01*
X49985Y-43203D01*
X49972Y-43194D01*
X49945Y-43186D01*
X49878Y-43186D01*
X49852Y-43194D01*
X49838Y-43203D01*
X49825Y-43220D01*
X49825Y-43254D01*
X49838Y-43272D01*
X49852Y-43280D01*
X49878Y-43289D01*
X63987Y-43729D02*
X64000Y-43738D01*
X64013Y-43764D01*
X64013Y-43781D01*
X64000Y-43806D01*
X63973Y-43824D01*
X63947Y-43832D01*
X63893Y-43841D01*
X63853Y-43841D01*
X63800Y-43832D01*
X63773Y-43824D01*
X63747Y-43806D01*
X63733Y-43781D01*
X63733Y-43764D01*
X63747Y-43738D01*
X63760Y-43729D01*
X63733Y-43566D02*
X63733Y-43652D01*
X63867Y-43661D01*
X63853Y-43652D01*
X63840Y-43635D01*
X63840Y-43592D01*
X63853Y-43575D01*
X63867Y-43566D01*
X63893Y-43558D01*
X63960Y-43558D01*
X63987Y-43566D01*
X64000Y-43575D01*
X64013Y-43592D01*
X64013Y-43635D01*
X64000Y-43652D01*
X63987Y-43661D01*
X62087Y-43829D02*
X62100Y-43838D01*
X62113Y-43864D01*
X62113Y-43881D01*
X62100Y-43906D01*
X62073Y-43924D01*
X62047Y-43932D01*
X61993Y-43941D01*
X61953Y-43941D01*
X61900Y-43932D01*
X61873Y-43924D01*
X61847Y-43906D01*
X61833Y-43881D01*
X61833Y-43864D01*
X61847Y-43838D01*
X61860Y-43829D01*
X61927Y-43675D02*
X62113Y-43675D01*
X61820Y-43718D02*
X62020Y-43761D01*
X62020Y-43649D01*
X68771Y-41887D02*
X68762Y-41900D01*
X68736Y-41913D01*
X68719Y-41913D01*
X68694Y-41900D01*
X68676Y-41873D01*
X68668Y-41847D01*
X68659Y-41793D01*
X68659Y-41753D01*
X68668Y-41700D01*
X68676Y-41673D01*
X68694Y-41647D01*
X68719Y-41633D01*
X68736Y-41633D01*
X68762Y-41647D01*
X68771Y-41660D01*
X68831Y-41633D02*
X68942Y-41633D01*
X68882Y-41740D01*
X68908Y-41740D01*
X68925Y-41753D01*
X68934Y-41767D01*
X68942Y-41793D01*
X68942Y-41860D01*
X68934Y-41887D01*
X68925Y-41900D01*
X68908Y-41913D01*
X68856Y-41913D01*
X68839Y-41900D01*
X68831Y-41887D01*
X59536Y-43631D02*
X59549Y-43640D01*
X59562Y-43666D01*
X59562Y-43683D01*
X59549Y-43708D01*
X59522Y-43726D01*
X59496Y-43734D01*
X59442Y-43743D01*
X59402Y-43743D01*
X59349Y-43734D01*
X59322Y-43726D01*
X59296Y-43708D01*
X59282Y-43683D01*
X59282Y-43666D01*
X59296Y-43640D01*
X59309Y-43631D01*
X59309Y-43563D02*
X59296Y-43554D01*
X59282Y-43537D01*
X59282Y-43494D01*
X59296Y-43477D01*
X59309Y-43468D01*
X59336Y-43460D01*
X59362Y-43460D01*
X59402Y-43468D01*
X59562Y-43571D01*
X59562Y-43460D01*
X51801Y-42695D02*
X51792Y-42708D01*
X51766Y-42721D01*
X51749Y-42721D01*
X51724Y-42708D01*
X51706Y-42681D01*
X51698Y-42655D01*
X51689Y-42601D01*
X51689Y-42561D01*
X51698Y-42508D01*
X51706Y-42481D01*
X51724Y-42455D01*
X51749Y-42441D01*
X51766Y-42441D01*
X51792Y-42455D01*
X51801Y-42468D01*
X51972Y-42721D02*
X51869Y-42721D01*
X51921Y-42721D02*
X51921Y-42441D01*
X51904Y-42481D01*
X51886Y-42508D01*
X51869Y-42521D01*
G54D17*
X66321Y-42879D02*
X66564Y-42879D01*
X66593Y-42864D01*
X66607Y-42850D01*
X66621Y-42821D01*
X66621Y-42764D01*
X66607Y-42736D01*
X66593Y-42721D01*
X66564Y-42707D01*
X66321Y-42707D01*
X66350Y-42579D02*
X66336Y-42565D01*
X66321Y-42536D01*
X66321Y-42465D01*
X66336Y-42436D01*
X66350Y-42422D01*
X66379Y-42407D01*
X66407Y-42407D01*
X66450Y-42422D01*
X66621Y-42593D01*
X66621Y-42407D01*
X65414Y-43372D02*
X65414Y-43472D01*
X65571Y-43472D02*
X65271Y-43472D01*
X65271Y-43329D01*
X65271Y-43257D02*
X65271Y-43086D01*
X65571Y-43172D02*
X65271Y-43172D01*
X65300Y-43000D02*
X65286Y-42986D01*
X65271Y-42957D01*
X65271Y-42886D01*
X65286Y-42857D01*
X65300Y-42843D01*
X65329Y-42828D01*
X65357Y-42828D01*
X65400Y-42843D01*
X65571Y-43014D01*
X65571Y-42828D01*
X65271Y-42728D02*
X65271Y-42542D01*
X65386Y-42642D01*
X65386Y-42600D01*
X65400Y-42571D01*
X65414Y-42557D01*
X65443Y-42542D01*
X65514Y-42542D01*
X65543Y-42557D01*
X65557Y-42571D01*
X65571Y-42600D01*
X65571Y-42685D01*
X65557Y-42714D01*
X65543Y-42728D01*
X65300Y-42428D02*
X65286Y-42414D01*
X65271Y-42385D01*
X65271Y-42314D01*
X65286Y-42285D01*
X65300Y-42271D01*
X65329Y-42256D01*
X65357Y-42256D01*
X65400Y-42271D01*
X65571Y-42442D01*
X65571Y-42256D01*
X65571Y-41956D02*
X65429Y-42056D01*
X65571Y-42128D02*
X65271Y-42128D01*
X65271Y-42013D01*
X65286Y-41985D01*
X65300Y-41970D01*
X65329Y-41956D01*
X65371Y-41956D01*
X65400Y-41970D01*
X65414Y-41985D01*
X65429Y-42013D01*
X65429Y-42128D01*
X65571Y-41685D02*
X65571Y-41828D01*
X65271Y-41828D01*
G54D15*
X57667Y-45214D02*
X57667Y-45700D01*
X57686Y-45757D01*
X57705Y-45785D01*
X57743Y-45814D01*
X57820Y-45814D01*
X57858Y-45785D01*
X57877Y-45757D01*
X57896Y-45700D01*
X57896Y-45214D01*
X58048Y-45214D02*
X58296Y-45214D01*
X58162Y-45442D01*
X58220Y-45442D01*
X58258Y-45471D01*
X58277Y-45500D01*
X58296Y-45557D01*
X58296Y-45700D01*
X58277Y-45757D01*
X58258Y-45785D01*
X58220Y-45814D01*
X58105Y-45814D01*
X58067Y-45785D01*
X58048Y-45757D01*
G54D11*
X54422Y-46462D02*
X54422Y-45962D01*
X54537Y-45962D01*
X54565Y-45986D01*
X54580Y-46010D01*
X54594Y-46058D01*
X54594Y-46129D01*
X54580Y-46177D01*
X54565Y-46200D01*
X54537Y-46224D01*
X54422Y-46224D01*
X54722Y-46462D02*
X54722Y-45962D01*
X55037Y-46415D02*
X55023Y-46439D01*
X54980Y-46462D01*
X54951Y-46462D01*
X54908Y-46439D01*
X54880Y-46391D01*
X54865Y-46343D01*
X54851Y-46248D01*
X54851Y-46177D01*
X54865Y-46081D01*
X54880Y-46034D01*
X54908Y-45986D01*
X54951Y-45962D01*
X54980Y-45962D01*
X55023Y-45986D01*
X55037Y-46010D01*
X55323Y-46462D02*
X55151Y-46462D01*
X55237Y-46462D02*
X55237Y-45962D01*
X55208Y-46034D01*
X55180Y-46081D01*
X55151Y-46105D01*
X55494Y-46177D02*
X55466Y-46153D01*
X55451Y-46129D01*
X55437Y-46081D01*
X55437Y-46058D01*
X55451Y-46010D01*
X55466Y-45986D01*
X55494Y-45962D01*
X55551Y-45962D01*
X55580Y-45986D01*
X55594Y-46010D01*
X55609Y-46058D01*
X55609Y-46081D01*
X55594Y-46129D01*
X55580Y-46153D01*
X55551Y-46177D01*
X55494Y-46177D01*
X55466Y-46200D01*
X55451Y-46224D01*
X55437Y-46272D01*
X55437Y-46367D01*
X55451Y-46415D01*
X55466Y-46439D01*
X55494Y-46462D01*
X55551Y-46462D01*
X55580Y-46439D01*
X55594Y-46415D01*
X55609Y-46367D01*
X55609Y-46272D01*
X55594Y-46224D01*
X55580Y-46200D01*
X55551Y-46177D01*
X55837Y-46200D02*
X55737Y-46200D01*
X55737Y-46462D02*
X55737Y-45962D01*
X55880Y-45962D01*
X56123Y-46129D02*
X56123Y-46462D01*
X56052Y-45939D02*
X55980Y-46296D01*
X56166Y-46296D01*
X56423Y-45962D02*
X56280Y-45962D01*
X56266Y-46200D01*
X56280Y-46177D01*
X56309Y-46153D01*
X56380Y-46153D01*
X56409Y-46177D01*
X56423Y-46200D01*
X56438Y-46248D01*
X56438Y-46367D01*
X56423Y-46415D01*
X56409Y-46439D01*
X56380Y-46462D01*
X56309Y-46462D01*
X56280Y-46439D01*
X56266Y-46415D01*
X56552Y-46010D02*
X56566Y-45986D01*
X56595Y-45962D01*
X56666Y-45962D01*
X56695Y-45986D01*
X56709Y-46010D01*
X56724Y-46058D01*
X56724Y-46105D01*
X56709Y-46177D01*
X56538Y-46462D01*
X56724Y-46462D01*
X56910Y-45962D02*
X56938Y-45962D01*
X56967Y-45986D01*
X56981Y-46010D01*
X56995Y-46058D01*
X57010Y-46153D01*
X57010Y-46272D01*
X56995Y-46367D01*
X56981Y-46415D01*
X56967Y-46439D01*
X56938Y-46462D01*
X56910Y-46462D01*
X56881Y-46439D01*
X56867Y-46415D01*
X56852Y-46367D01*
X56838Y-46272D01*
X56838Y-46153D01*
X56852Y-46058D01*
X56867Y-46010D01*
X56881Y-45986D01*
X56910Y-45962D01*
G54D19*
X66185Y-47263D02*
X66125Y-47130D01*
X66082Y-47263D02*
X66082Y-46983D01*
X66150Y-46983D01*
X66168Y-46997D01*
X66176Y-47010D01*
X66185Y-47037D01*
X66185Y-47077D01*
X66176Y-47103D01*
X66168Y-47117D01*
X66150Y-47130D01*
X66082Y-47130D01*
X66356Y-47263D02*
X66253Y-47263D01*
X66305Y-47263D02*
X66305Y-46983D01*
X66288Y-47023D01*
X66270Y-47050D01*
X66253Y-47063D01*
X66459Y-47103D02*
X66441Y-47090D01*
X66433Y-47077D01*
X66424Y-47050D01*
X66424Y-47037D01*
X66433Y-47010D01*
X66441Y-46997D01*
X66459Y-46983D01*
X66493Y-46983D01*
X66510Y-46997D01*
X66519Y-47010D01*
X66527Y-47037D01*
X66527Y-47050D01*
X66519Y-47077D01*
X66510Y-47090D01*
X66493Y-47103D01*
X66459Y-47103D01*
X66441Y-47117D01*
X66433Y-47130D01*
X66424Y-47157D01*
X66424Y-47210D01*
X66433Y-47237D01*
X66441Y-47250D01*
X66459Y-47263D01*
X66493Y-47263D01*
X66510Y-47250D01*
X66519Y-47237D01*
X66527Y-47210D01*
X66527Y-47157D01*
X66519Y-47130D01*
X66510Y-47117D01*
X66493Y-47103D01*
X66105Y-49372D02*
X66045Y-49277D01*
X66002Y-49372D02*
X66002Y-49172D01*
X66070Y-49172D01*
X66088Y-49181D01*
X66096Y-49191D01*
X66105Y-49210D01*
X66105Y-49239D01*
X66096Y-49258D01*
X66088Y-49267D01*
X66070Y-49277D01*
X66002Y-49277D01*
X66276Y-49372D02*
X66173Y-49372D01*
X66225Y-49372D02*
X66225Y-49172D01*
X66208Y-49201D01*
X66190Y-49220D01*
X66173Y-49229D01*
X66361Y-49372D02*
X66396Y-49372D01*
X66413Y-49362D01*
X66421Y-49353D01*
X66439Y-49324D01*
X66447Y-49286D01*
X66447Y-49210D01*
X66439Y-49191D01*
X66430Y-49181D01*
X66413Y-49172D01*
X66379Y-49172D01*
X66361Y-49181D01*
X66353Y-49191D01*
X66344Y-49210D01*
X66344Y-49258D01*
X66353Y-49277D01*
X66361Y-49286D01*
X66379Y-49296D01*
X66413Y-49296D01*
X66430Y-49286D01*
X66439Y-49277D01*
X66447Y-49258D01*
M02*
