%FSLAX34Y34*%
G04 Gerber Fmt 3.4, Leading zero omitted, Abs format*
G04 (created by PCBNEW (2013-11-28 BZR 4510)-product) date Thu 15 May 2014 01:53:52 PM EDT*
%MOIN*%
G01*
G70*
G90*
G04 APERTURE LIST*
%ADD10C,0.005906*%
%ADD11C,0.025000*%
%ADD12R,0.031496X0.017717*%
%ADD13R,0.059000X0.059000*%
%ADD14R,0.017717X0.031496*%
%ADD15R,0.078740X0.078740*%
%ADD16O,0.011811X0.023622*%
%ADD17O,0.023622X0.011811*%
%ADD18R,0.082677X0.055118*%
%ADD19R,0.023622X0.078740*%
%ADD20R,0.100000X0.080000*%
%ADD21R,0.025000X0.045000*%
%ADD22R,0.045000X0.025000*%
%ADD23R,0.016000X0.060000*%
%ADD24R,0.060000X0.016000*%
G04 APERTURE END LIST*
G54D10*
G54D11*
X65340Y-43816D03*
X62200Y-44920D03*
G54D12*
X67941Y-47291D03*
X68570Y-47291D03*
X68570Y-46976D03*
X67941Y-46976D03*
G54D13*
X69106Y-44776D03*
X69106Y-46036D03*
X68206Y-44758D03*
X68206Y-46018D03*
G54D12*
X67576Y-48726D03*
X66947Y-48726D03*
X66947Y-49041D03*
X67576Y-49041D03*
G54D14*
X64737Y-47204D03*
X64737Y-46575D03*
X64422Y-46575D03*
X64422Y-47204D03*
G54D15*
X64575Y-45275D03*
G54D16*
X64191Y-44645D03*
X64447Y-44645D03*
X64702Y-44645D03*
X64958Y-44645D03*
G54D17*
X65204Y-44891D03*
X65204Y-45147D03*
X65204Y-45402D03*
X65204Y-45658D03*
G54D16*
X64958Y-45904D03*
X64702Y-45904D03*
X64447Y-45904D03*
X64191Y-45904D03*
G54D17*
X63945Y-45658D03*
X63945Y-45402D03*
X63945Y-45147D03*
X63945Y-44891D03*
G54D18*
X52771Y-36014D03*
X52771Y-37785D03*
X49188Y-36014D03*
X49188Y-37785D03*
G54D19*
X63500Y-36274D03*
X63000Y-36274D03*
X62500Y-36274D03*
X62000Y-36274D03*
X61500Y-36274D03*
X61000Y-36274D03*
X60500Y-36274D03*
X60000Y-36274D03*
X59500Y-36274D03*
X59000Y-36274D03*
X58500Y-36274D03*
X57950Y-36274D03*
X63500Y-39975D03*
X63000Y-39975D03*
X62500Y-39975D03*
X62000Y-39975D03*
X61500Y-39975D03*
X61000Y-39975D03*
X60500Y-39975D03*
X60000Y-39975D03*
X59500Y-39975D03*
X59000Y-39975D03*
X58500Y-39975D03*
X58000Y-39975D03*
X68925Y-36274D03*
X68425Y-36274D03*
X67925Y-36274D03*
X67425Y-36274D03*
X66925Y-36274D03*
X66425Y-36274D03*
X65925Y-36274D03*
X65425Y-36274D03*
X64925Y-36274D03*
X64425Y-36274D03*
X64425Y-39975D03*
X64925Y-39975D03*
X65425Y-39975D03*
X65925Y-39975D03*
X66425Y-39975D03*
X66925Y-39975D03*
X67425Y-39975D03*
X67925Y-39975D03*
X68425Y-39975D03*
X68925Y-39975D03*
G54D13*
X63345Y-48450D03*
X64605Y-48450D03*
X63345Y-49300D03*
X64605Y-49300D03*
G54D20*
X51675Y-44875D03*
X51675Y-46475D03*
G54D21*
X55300Y-39775D03*
X55900Y-39775D03*
X65930Y-45430D03*
X66530Y-45430D03*
G54D22*
X61625Y-45700D03*
X61625Y-46300D03*
X60850Y-45700D03*
X60850Y-46300D03*
X68925Y-41200D03*
X68925Y-41800D03*
X59100Y-43750D03*
X59100Y-43150D03*
G54D21*
X53700Y-46625D03*
X53100Y-46625D03*
G54D22*
X50625Y-44125D03*
X50625Y-43525D03*
G54D21*
X52000Y-43140D03*
X51400Y-43140D03*
G54D23*
X55600Y-45700D03*
X55915Y-45700D03*
X56230Y-45700D03*
X56545Y-45700D03*
X56860Y-45700D03*
X57175Y-45700D03*
X55285Y-45700D03*
X54970Y-45700D03*
X54655Y-45700D03*
X54340Y-45700D03*
X54025Y-45700D03*
X55600Y-41200D03*
X55915Y-41200D03*
X56230Y-41200D03*
X56545Y-41200D03*
X56860Y-41200D03*
X57175Y-41200D03*
X55285Y-41200D03*
X54970Y-41200D03*
X54655Y-41200D03*
X54340Y-41200D03*
X54025Y-41200D03*
G54D24*
X57850Y-43450D03*
X53350Y-43450D03*
X57850Y-43135D03*
X53350Y-43135D03*
X53350Y-42820D03*
X57850Y-42820D03*
X57850Y-42505D03*
X53350Y-42505D03*
X53350Y-42190D03*
X57850Y-42190D03*
X57850Y-41875D03*
X53350Y-41875D03*
X53350Y-43765D03*
X57850Y-43765D03*
X57850Y-44080D03*
X53350Y-44080D03*
X53350Y-44395D03*
X57850Y-44395D03*
X57850Y-44710D03*
X53350Y-44710D03*
X53350Y-45025D03*
X57850Y-45025D03*
G54D22*
X67240Y-45410D03*
X67240Y-44810D03*
G54D21*
X63800Y-46670D03*
X63200Y-46670D03*
X65390Y-47210D03*
X65990Y-47210D03*
X66330Y-46330D03*
X66930Y-46330D03*
X63500Y-40950D03*
X62900Y-40950D03*
X55475Y-48875D03*
X54875Y-48875D03*
X55475Y-49600D03*
X54875Y-49600D03*
M02*
