%FSLAX34Y34*%
G04 Gerber Fmt 3.4, Leading zero omitted, Abs format*
G04 (created by PCBNEW (2013-11-28 BZR 4510)-product) date Thu 15 May 2014 01:53:52 PM EDT*
%MOIN*%
G01*
G70*
G90*
G04 APERTURE LIST*
%ADD10C,0.005906*%
%ADD11C,0.006000*%
G04 APERTURE END LIST*
G54D10*
G54D11*
X69107Y-49355D02*
X69107Y-48955D01*
X68992Y-48955D01*
X68964Y-48975D01*
X68950Y-48994D01*
X68935Y-49032D01*
X68935Y-49089D01*
X68950Y-49127D01*
X68964Y-49146D01*
X68992Y-49165D01*
X69107Y-49165D01*
X68635Y-49317D02*
X68650Y-49336D01*
X68692Y-49355D01*
X68721Y-49355D01*
X68764Y-49336D01*
X68792Y-49298D01*
X68807Y-49260D01*
X68821Y-49184D01*
X68821Y-49127D01*
X68807Y-49051D01*
X68792Y-49013D01*
X68764Y-48975D01*
X68721Y-48955D01*
X68692Y-48955D01*
X68650Y-48975D01*
X68635Y-48994D01*
X68407Y-49146D02*
X68364Y-49165D01*
X68350Y-49184D01*
X68335Y-49222D01*
X68335Y-49279D01*
X68350Y-49317D01*
X68364Y-49336D01*
X68392Y-49355D01*
X68507Y-49355D01*
X68507Y-48955D01*
X68407Y-48955D01*
X68378Y-48975D01*
X68364Y-48994D01*
X68350Y-49032D01*
X68350Y-49070D01*
X68364Y-49108D01*
X68378Y-49127D01*
X68407Y-49146D01*
X68507Y-49146D01*
X67978Y-49355D02*
X67978Y-49089D01*
X67978Y-49127D02*
X67964Y-49108D01*
X67935Y-49089D01*
X67892Y-49089D01*
X67864Y-49108D01*
X67850Y-49146D01*
X67850Y-49355D01*
X67850Y-49146D02*
X67835Y-49108D01*
X67807Y-49089D01*
X67764Y-49089D01*
X67735Y-49108D01*
X67721Y-49146D01*
X67721Y-49355D01*
X67450Y-49355D02*
X67450Y-49146D01*
X67464Y-49108D01*
X67492Y-49089D01*
X67550Y-49089D01*
X67578Y-49108D01*
X67450Y-49336D02*
X67478Y-49355D01*
X67550Y-49355D01*
X67578Y-49336D01*
X67592Y-49298D01*
X67592Y-49260D01*
X67578Y-49222D01*
X67550Y-49203D01*
X67478Y-49203D01*
X67450Y-49184D01*
X67178Y-49355D02*
X67178Y-48955D01*
X67178Y-49336D02*
X67207Y-49355D01*
X67264Y-49355D01*
X67292Y-49336D01*
X67307Y-49317D01*
X67321Y-49279D01*
X67321Y-49165D01*
X67307Y-49127D01*
X67292Y-49108D01*
X67264Y-49089D01*
X67207Y-49089D01*
X67178Y-49108D01*
X66921Y-49336D02*
X66949Y-49355D01*
X67007Y-49355D01*
X67035Y-49336D01*
X67049Y-49298D01*
X67049Y-49146D01*
X67035Y-49108D01*
X67007Y-49089D01*
X66949Y-49089D01*
X66921Y-49108D01*
X66907Y-49146D01*
X66907Y-49184D01*
X67049Y-49222D01*
X66549Y-49355D02*
X66549Y-49089D01*
X66549Y-48955D02*
X66564Y-48975D01*
X66549Y-48994D01*
X66535Y-48975D01*
X66549Y-48955D01*
X66549Y-48994D01*
X66407Y-49089D02*
X66407Y-49355D01*
X66407Y-49127D02*
X66392Y-49108D01*
X66364Y-49089D01*
X66321Y-49089D01*
X66292Y-49108D01*
X66278Y-49146D01*
X66278Y-49355D01*
X65907Y-48955D02*
X65907Y-49279D01*
X65892Y-49317D01*
X65878Y-49336D01*
X65850Y-49355D01*
X65792Y-49355D01*
X65764Y-49336D01*
X65750Y-49317D01*
X65735Y-49279D01*
X65735Y-48955D01*
X65607Y-49336D02*
X65564Y-49355D01*
X65492Y-49355D01*
X65464Y-49336D01*
X65449Y-49317D01*
X65435Y-49279D01*
X65435Y-49241D01*
X65449Y-49203D01*
X65464Y-49184D01*
X65492Y-49165D01*
X65549Y-49146D01*
X65578Y-49127D01*
X65592Y-49108D01*
X65607Y-49070D01*
X65607Y-49032D01*
X65592Y-48994D01*
X65578Y-48975D01*
X65549Y-48955D01*
X65478Y-48955D01*
X65435Y-48975D01*
X65321Y-49241D02*
X65178Y-49241D01*
X65350Y-49355D02*
X65250Y-48955D01*
X65150Y-49355D01*
X69535Y-49861D02*
X69392Y-49861D01*
X69564Y-49975D02*
X69464Y-49575D01*
X69364Y-49975D01*
X69278Y-49956D02*
X69250Y-49975D01*
X69192Y-49975D01*
X69164Y-49956D01*
X69150Y-49918D01*
X69150Y-49899D01*
X69164Y-49861D01*
X69192Y-49842D01*
X69235Y-49842D01*
X69264Y-49823D01*
X69278Y-49785D01*
X69278Y-49766D01*
X69264Y-49728D01*
X69235Y-49709D01*
X69192Y-49709D01*
X69164Y-49728D01*
X69035Y-49956D02*
X69007Y-49975D01*
X68950Y-49975D01*
X68921Y-49956D01*
X68907Y-49918D01*
X68907Y-49899D01*
X68921Y-49861D01*
X68950Y-49842D01*
X68992Y-49842D01*
X69021Y-49823D01*
X69035Y-49785D01*
X69035Y-49766D01*
X69021Y-49728D01*
X68992Y-49709D01*
X68950Y-49709D01*
X68921Y-49728D01*
X68664Y-49956D02*
X68692Y-49975D01*
X68750Y-49975D01*
X68778Y-49956D01*
X68792Y-49918D01*
X68792Y-49766D01*
X68778Y-49728D01*
X68750Y-49709D01*
X68692Y-49709D01*
X68664Y-49728D01*
X68650Y-49766D01*
X68650Y-49804D01*
X68792Y-49842D01*
X68521Y-49975D02*
X68521Y-49709D01*
X68521Y-49747D02*
X68507Y-49728D01*
X68478Y-49709D01*
X68435Y-49709D01*
X68407Y-49728D01*
X68392Y-49766D01*
X68392Y-49975D01*
X68392Y-49766D02*
X68378Y-49728D01*
X68350Y-49709D01*
X68307Y-49709D01*
X68278Y-49728D01*
X68264Y-49766D01*
X68264Y-49975D01*
X68121Y-49975D02*
X68121Y-49575D01*
X68121Y-49728D02*
X68092Y-49709D01*
X68035Y-49709D01*
X68007Y-49728D01*
X67992Y-49747D01*
X67978Y-49785D01*
X67978Y-49899D01*
X67992Y-49937D01*
X68007Y-49956D01*
X68035Y-49975D01*
X68092Y-49975D01*
X68121Y-49956D01*
X67807Y-49975D02*
X67835Y-49956D01*
X67850Y-49918D01*
X67850Y-49575D01*
X67578Y-49956D02*
X67607Y-49975D01*
X67664Y-49975D01*
X67692Y-49956D01*
X67707Y-49918D01*
X67707Y-49766D01*
X67692Y-49728D01*
X67664Y-49709D01*
X67607Y-49709D01*
X67578Y-49728D01*
X67564Y-49766D01*
X67564Y-49804D01*
X67707Y-49842D01*
X67307Y-49975D02*
X67307Y-49575D01*
X67307Y-49956D02*
X67335Y-49975D01*
X67392Y-49975D01*
X67421Y-49956D01*
X67435Y-49937D01*
X67450Y-49899D01*
X67450Y-49785D01*
X67435Y-49747D01*
X67421Y-49728D01*
X67392Y-49709D01*
X67335Y-49709D01*
X67307Y-49728D01*
X66935Y-49975D02*
X66935Y-49709D01*
X66935Y-49575D02*
X66950Y-49595D01*
X66935Y-49614D01*
X66921Y-49595D01*
X66935Y-49575D01*
X66935Y-49614D01*
X66792Y-49709D02*
X66792Y-49975D01*
X66792Y-49747D02*
X66778Y-49728D01*
X66750Y-49709D01*
X66707Y-49709D01*
X66678Y-49728D01*
X66664Y-49766D01*
X66664Y-49975D01*
X66121Y-49937D02*
X66135Y-49956D01*
X66178Y-49975D01*
X66207Y-49975D01*
X66250Y-49956D01*
X66278Y-49918D01*
X66292Y-49880D01*
X66307Y-49804D01*
X66307Y-49747D01*
X66292Y-49671D01*
X66278Y-49633D01*
X66250Y-49595D01*
X66207Y-49575D01*
X66178Y-49575D01*
X66135Y-49595D01*
X66121Y-49614D01*
X65864Y-49975D02*
X65864Y-49766D01*
X65878Y-49728D01*
X65907Y-49709D01*
X65964Y-49709D01*
X65992Y-49728D01*
X65864Y-49956D02*
X65892Y-49975D01*
X65964Y-49975D01*
X65992Y-49956D01*
X66007Y-49918D01*
X66007Y-49880D01*
X65992Y-49842D01*
X65964Y-49823D01*
X65892Y-49823D01*
X65864Y-49804D01*
X65721Y-49709D02*
X65721Y-49975D01*
X65721Y-49747D02*
X65707Y-49728D01*
X65678Y-49709D01*
X65635Y-49709D01*
X65607Y-49728D01*
X65592Y-49766D01*
X65592Y-49975D01*
X65321Y-49975D02*
X65321Y-49766D01*
X65335Y-49728D01*
X65364Y-49709D01*
X65421Y-49709D01*
X65449Y-49728D01*
X65321Y-49956D02*
X65349Y-49975D01*
X65421Y-49975D01*
X65449Y-49956D01*
X65464Y-49918D01*
X65464Y-49880D01*
X65449Y-49842D01*
X65421Y-49823D01*
X65349Y-49823D01*
X65321Y-49804D01*
X65049Y-49975D02*
X65049Y-49575D01*
X65049Y-49956D02*
X65078Y-49975D01*
X65135Y-49975D01*
X65164Y-49956D01*
X65178Y-49937D01*
X65192Y-49899D01*
X65192Y-49785D01*
X65178Y-49747D01*
X65164Y-49728D01*
X65135Y-49709D01*
X65078Y-49709D01*
X65049Y-49728D01*
X64778Y-49975D02*
X64778Y-49766D01*
X64792Y-49728D01*
X64821Y-49709D01*
X64878Y-49709D01*
X64907Y-49728D01*
X64778Y-49956D02*
X64807Y-49975D01*
X64878Y-49975D01*
X64907Y-49956D01*
X64921Y-49918D01*
X64921Y-49880D01*
X64907Y-49842D01*
X64878Y-49823D01*
X64807Y-49823D01*
X64778Y-49804D01*
M02*
