%FSLAX34Y34*%
G04 Gerber Fmt 3.4, Leading zero omitted, Abs format*
G04 (created by PCBNEW (2013-11-28 BZR 4510)-product) date Thu 28 Nov 2013 12:06:36 PM EST*
%MOIN*%
G01*
G70*
G90*
G04 APERTURE LIST*
%ADD10C,0.005906*%
%ADD11R,0.031496X0.017717*%
%ADD12R,0.017717X0.031496*%
%ADD13R,0.078740X0.078740*%
%ADD14O,0.011811X0.023622*%
%ADD15O,0.023622X0.011811*%
%ADD16R,0.082677X0.055118*%
%ADD17R,0.023622X0.078740*%
%ADD18R,0.059000X0.059000*%
%ADD19C,0.059100*%
%ADD20C,0.137800*%
%ADD21R,0.100000X0.080000*%
%ADD22C,0.060000*%
%ADD23C,0.126000*%
%ADD24R,0.060000X0.060000*%
%ADD25R,0.025000X0.045000*%
%ADD26R,0.045000X0.025000*%
%ADD27R,0.016000X0.060000*%
%ADD28R,0.060000X0.016000*%
%ADD29C,0.035000*%
%ADD30C,0.010000*%
%ADD31C,0.020000*%
%ADD32C,0.015000*%
%ADD33C,0.017000*%
G04 APERTURE END LIST*
G54D10*
G54D11*
X66364Y-48717D03*
X65735Y-48717D03*
X65735Y-49032D03*
X66364Y-49032D03*
G54D12*
X64737Y-47204D03*
X64737Y-46575D03*
X64422Y-46575D03*
X64422Y-47204D03*
G54D13*
X64575Y-45275D03*
G54D14*
X64191Y-44645D03*
X64447Y-44645D03*
X64702Y-44645D03*
X64958Y-44645D03*
G54D15*
X65204Y-44891D03*
X65204Y-45147D03*
X65204Y-45402D03*
X65204Y-45658D03*
G54D14*
X64958Y-45904D03*
X64702Y-45904D03*
X64447Y-45904D03*
X64191Y-45904D03*
G54D15*
X63945Y-45658D03*
X63945Y-45402D03*
X63945Y-45147D03*
X63945Y-44891D03*
G54D16*
X52771Y-36014D03*
X52771Y-37785D03*
X49188Y-36014D03*
X49188Y-37785D03*
G54D17*
X63500Y-36274D03*
X63000Y-36274D03*
X62500Y-36274D03*
X62000Y-36274D03*
X61500Y-36274D03*
X61000Y-36274D03*
X60500Y-36274D03*
X60000Y-36274D03*
X59500Y-36274D03*
X59000Y-36274D03*
X58500Y-36274D03*
X57950Y-36274D03*
X63500Y-39975D03*
X63000Y-39975D03*
X62500Y-39975D03*
X62000Y-39975D03*
X61500Y-39975D03*
X61000Y-39975D03*
X60500Y-39975D03*
X60000Y-39975D03*
X59500Y-39975D03*
X59000Y-39975D03*
X58500Y-39975D03*
X58000Y-39975D03*
X68925Y-36274D03*
X68425Y-36274D03*
X67925Y-36274D03*
X67425Y-36274D03*
X66925Y-36274D03*
X66425Y-36274D03*
X65925Y-36274D03*
X65425Y-36274D03*
X64925Y-36274D03*
X64425Y-36274D03*
X64425Y-39975D03*
X64925Y-39975D03*
X65425Y-39975D03*
X65925Y-39975D03*
X66425Y-39975D03*
X66925Y-39975D03*
X67425Y-39975D03*
X67925Y-39975D03*
X68425Y-39975D03*
X68925Y-39975D03*
G54D18*
X63345Y-48450D03*
X64605Y-48450D03*
X63345Y-49300D03*
X64605Y-49300D03*
G54D19*
X58610Y-48030D03*
X59590Y-48030D03*
X59590Y-47240D03*
X58610Y-47240D03*
G54D20*
X56730Y-49100D03*
X61470Y-49100D03*
G54D21*
X51675Y-44875D03*
X51675Y-46475D03*
G54D22*
X59775Y-33995D03*
X60625Y-33995D03*
X58075Y-33995D03*
X58925Y-33995D03*
X59775Y-32305D03*
X58925Y-32305D03*
X58075Y-32305D03*
X60625Y-32305D03*
X57225Y-33995D03*
X56375Y-33995D03*
X55525Y-33995D03*
X54675Y-33995D03*
X57225Y-32305D03*
X56375Y-32305D03*
X55525Y-32305D03*
X54675Y-32305D03*
X61475Y-33995D03*
X62325Y-33995D03*
X63175Y-33995D03*
X64025Y-33995D03*
X61475Y-32305D03*
X62325Y-32305D03*
X63175Y-32305D03*
X64025Y-32305D03*
G54D23*
X68565Y-33150D03*
X50135Y-33150D03*
G54D24*
X49450Y-39725D03*
G54D22*
X49450Y-40725D03*
X49450Y-41725D03*
X49450Y-42725D03*
X49450Y-43725D03*
X49450Y-44725D03*
G54D25*
X55300Y-39775D03*
X55900Y-39775D03*
X65930Y-45430D03*
X66530Y-45430D03*
G54D26*
X61625Y-45700D03*
X61625Y-46300D03*
X60850Y-45700D03*
X60850Y-46300D03*
X68925Y-41200D03*
X68925Y-41800D03*
X59100Y-43750D03*
X59100Y-43150D03*
G54D25*
X53700Y-46625D03*
X53100Y-46625D03*
G54D26*
X50625Y-44125D03*
X50625Y-43525D03*
G54D25*
X52000Y-43140D03*
X51400Y-43140D03*
G54D27*
X55600Y-45700D03*
X55915Y-45700D03*
X56230Y-45700D03*
X56545Y-45700D03*
X56860Y-45700D03*
X57175Y-45700D03*
X55285Y-45700D03*
X54970Y-45700D03*
X54655Y-45700D03*
X54340Y-45700D03*
X54025Y-45700D03*
X55600Y-41200D03*
X55915Y-41200D03*
X56230Y-41200D03*
X56545Y-41200D03*
X56860Y-41200D03*
X57175Y-41200D03*
X55285Y-41200D03*
X54970Y-41200D03*
X54655Y-41200D03*
X54340Y-41200D03*
X54025Y-41200D03*
G54D28*
X57850Y-43450D03*
X53350Y-43450D03*
X57850Y-43135D03*
X53350Y-43135D03*
X53350Y-42820D03*
X57850Y-42820D03*
X57850Y-42505D03*
X53350Y-42505D03*
X53350Y-42190D03*
X57850Y-42190D03*
X57850Y-41875D03*
X53350Y-41875D03*
X53350Y-43765D03*
X57850Y-43765D03*
X57850Y-44080D03*
X53350Y-44080D03*
X53350Y-44395D03*
X57850Y-44395D03*
X57850Y-44710D03*
X53350Y-44710D03*
X53350Y-45025D03*
X57850Y-45025D03*
G54D26*
X67240Y-45410D03*
X67240Y-44810D03*
G54D25*
X63800Y-46670D03*
X63200Y-46670D03*
X65390Y-47210D03*
X65990Y-47210D03*
X66330Y-46330D03*
X66930Y-46330D03*
X63500Y-40950D03*
X62900Y-40950D03*
X55475Y-48875D03*
X54875Y-48875D03*
X55475Y-49600D03*
X54875Y-49600D03*
G54D29*
X63190Y-44530D03*
X65550Y-46075D03*
X58475Y-39075D03*
X58975Y-44800D03*
X66260Y-48120D03*
X68860Y-42440D03*
X51580Y-36220D03*
X55640Y-44140D03*
X62520Y-45560D03*
X62175Y-40900D03*
X63950Y-36225D03*
X56400Y-42350D03*
X55600Y-42350D03*
X56725Y-34675D03*
X60575Y-35450D03*
X57325Y-36125D03*
X66975Y-35075D03*
X66375Y-35125D03*
X65725Y-35150D03*
X65075Y-35175D03*
X61000Y-34525D03*
X57500Y-34950D03*
X61500Y-34900D03*
X61325Y-35350D03*
X56150Y-35325D03*
X64000Y-35425D03*
X64200Y-47725D03*
X55060Y-42120D03*
X55240Y-37080D03*
X63800Y-47375D03*
X64750Y-43875D03*
X64425Y-39000D03*
X57050Y-43750D03*
X63900Y-36850D03*
X69380Y-45410D03*
X68970Y-38630D03*
X59925Y-43175D03*
X56600Y-39725D03*
X56900Y-42650D03*
X60600Y-37500D03*
G54D30*
X66330Y-46330D02*
X65805Y-46330D01*
X65805Y-46330D02*
X65550Y-46075D01*
X63551Y-44891D02*
X63945Y-44891D01*
X63190Y-44530D02*
X63551Y-44891D01*
X65379Y-45904D02*
X65170Y-45904D01*
X65550Y-46075D02*
X65379Y-45904D01*
X64958Y-45904D02*
X65170Y-45904D01*
X65204Y-45870D02*
X65204Y-45658D01*
X65170Y-45904D02*
X65204Y-45870D01*
X57950Y-38500D02*
X57925Y-38500D01*
X59500Y-39975D02*
X59500Y-39175D01*
X58825Y-38500D02*
X59500Y-39175D01*
X57950Y-38500D02*
X58825Y-38500D01*
X54655Y-40255D02*
X54655Y-41200D01*
X54225Y-39825D02*
X54655Y-40255D01*
X54225Y-39525D02*
X54225Y-39825D01*
X54825Y-38925D02*
X54225Y-39525D01*
X57500Y-38925D02*
X54825Y-38925D01*
X57925Y-38500D02*
X57500Y-38925D01*
X53625Y-39375D02*
X53625Y-39950D01*
X57800Y-38050D02*
X57792Y-38050D01*
X57792Y-38050D02*
X57367Y-38475D01*
X54525Y-38475D02*
X53625Y-39375D01*
X57367Y-38475D02*
X54525Y-38475D01*
X60500Y-39975D02*
X60500Y-39400D01*
X59150Y-38050D02*
X60500Y-39400D01*
X57800Y-38050D02*
X59150Y-38050D01*
X54025Y-40350D02*
X54025Y-41200D01*
X53625Y-39950D02*
X54025Y-40350D01*
X58475Y-39075D02*
X58400Y-39150D01*
X58400Y-39150D02*
X58150Y-39150D01*
X58150Y-39150D02*
X58000Y-39300D01*
X58000Y-39975D02*
X58000Y-39300D01*
X58885Y-44710D02*
X57850Y-44710D01*
X58975Y-44800D02*
X58885Y-44710D01*
X66364Y-48717D02*
X66364Y-48224D01*
X66364Y-48224D02*
X66260Y-48120D01*
G54D31*
X68925Y-41800D02*
X68925Y-42375D01*
X68925Y-42375D02*
X68860Y-42440D01*
G54D30*
X63045Y-45725D02*
X63055Y-45725D01*
X63377Y-45402D02*
X63945Y-45402D01*
X63055Y-45725D02*
X63377Y-45402D01*
X63200Y-46670D02*
X63200Y-46125D01*
G54D31*
X63175Y-46100D02*
X63175Y-45855D01*
G54D30*
X63200Y-46125D02*
X63175Y-46100D01*
X64958Y-44645D02*
X64958Y-44391D01*
X65250Y-44100D02*
X65520Y-44100D01*
X64958Y-44391D02*
X65250Y-44100D01*
X52771Y-36014D02*
X51785Y-36014D01*
X51785Y-36014D02*
X51580Y-36220D01*
X57950Y-36274D02*
X57950Y-36830D01*
X57920Y-36860D02*
X56560Y-36860D01*
X57950Y-36830D02*
X57920Y-36860D01*
G54D32*
X55635Y-43765D02*
X55635Y-44135D01*
X55635Y-44135D02*
X55640Y-44140D01*
X57850Y-43450D02*
X57264Y-43450D01*
X55635Y-43765D02*
X53350Y-43765D01*
X56014Y-43385D02*
X55635Y-43765D01*
X57200Y-43385D02*
X56014Y-43385D01*
X57264Y-43450D02*
X57200Y-43385D01*
X59100Y-43750D02*
X58810Y-43750D01*
X58510Y-43450D02*
X57850Y-43450D01*
X58810Y-43750D02*
X58510Y-43450D01*
X61625Y-46300D02*
X62260Y-46300D01*
G54D31*
X63175Y-45855D02*
X63045Y-45725D01*
X63045Y-45725D02*
X62880Y-45560D01*
X62880Y-45560D02*
X62520Y-45560D01*
G54D32*
X62520Y-46040D02*
X62520Y-45560D01*
X62260Y-46300D02*
X62520Y-46040D01*
X60850Y-46300D02*
X61625Y-46300D01*
G54D30*
X62850Y-40950D02*
X62225Y-40950D01*
X62225Y-40950D02*
X62175Y-40900D01*
X64425Y-36274D02*
X63999Y-36274D01*
X63999Y-36274D02*
X63950Y-36225D01*
X61000Y-43300D02*
X60900Y-43300D01*
X66980Y-42520D02*
X68425Y-41075D01*
X68425Y-39975D02*
X68425Y-41075D01*
X61000Y-43300D02*
X66200Y-43300D01*
X66200Y-43300D02*
X66980Y-42520D01*
X60420Y-42820D02*
X57850Y-42820D01*
X60900Y-43300D02*
X60420Y-42820D01*
X61225Y-43075D02*
X61025Y-43075D01*
X66670Y-42205D02*
X67925Y-40950D01*
X67925Y-39975D02*
X67925Y-40950D01*
X61225Y-43075D02*
X65800Y-43075D01*
X65800Y-43075D02*
X66670Y-42205D01*
X60455Y-42505D02*
X57850Y-42505D01*
X61025Y-43075D02*
X60455Y-42505D01*
X61425Y-42825D02*
X61100Y-42825D01*
X66410Y-41890D02*
X67425Y-40875D01*
X67425Y-39975D02*
X67425Y-40875D01*
X61425Y-42825D02*
X65475Y-42825D01*
X65475Y-42825D02*
X66410Y-41890D01*
X60465Y-42190D02*
X57850Y-42190D01*
X61100Y-42825D02*
X60465Y-42190D01*
X61650Y-42600D02*
X61200Y-42600D01*
X66125Y-41575D02*
X66925Y-40775D01*
X66925Y-39975D02*
X66925Y-40775D01*
X61650Y-42600D02*
X65100Y-42600D01*
X65100Y-42600D02*
X66125Y-41575D01*
X60475Y-41875D02*
X57850Y-41875D01*
X61200Y-42600D02*
X60475Y-41875D01*
X56545Y-41200D02*
X56545Y-41595D01*
X57550Y-41525D02*
X60500Y-41525D01*
X57200Y-41875D02*
X57550Y-41525D01*
X56825Y-41875D02*
X57200Y-41875D01*
X56545Y-41595D02*
X56825Y-41875D01*
X64725Y-42375D02*
X65775Y-41325D01*
X61350Y-42375D02*
X64725Y-42375D01*
X60500Y-41525D02*
X61350Y-42375D01*
X66425Y-40675D02*
X66425Y-39975D01*
X65775Y-41325D02*
X66425Y-40675D01*
X60000Y-41300D02*
X60650Y-41300D01*
X60650Y-41300D02*
X61500Y-42150D01*
X64425Y-42150D02*
X65475Y-41100D01*
X61500Y-42150D02*
X64425Y-42150D01*
X65925Y-40650D02*
X65925Y-39975D01*
X65475Y-41100D02*
X65925Y-40650D01*
X56230Y-40795D02*
X56300Y-40725D01*
X56300Y-40725D02*
X57325Y-40725D01*
X57325Y-40725D02*
X57425Y-40825D01*
X57425Y-40825D02*
X57425Y-41175D01*
X57425Y-41175D02*
X57550Y-41300D01*
X57550Y-41300D02*
X60000Y-41300D01*
X60000Y-41300D02*
X60025Y-41300D01*
X56230Y-40795D02*
X56230Y-41200D01*
X59825Y-41075D02*
X60750Y-41075D01*
X55915Y-40785D02*
X56200Y-40500D01*
X56200Y-40500D02*
X57400Y-40500D01*
X57400Y-40500D02*
X57650Y-40750D01*
X57650Y-40750D02*
X57650Y-41024D01*
X57650Y-41024D02*
X57700Y-41075D01*
X57700Y-41075D02*
X59825Y-41075D01*
X55915Y-41200D02*
X55915Y-40785D01*
X65425Y-40750D02*
X65425Y-39975D01*
X64250Y-41925D02*
X65425Y-40750D01*
X61600Y-41925D02*
X64250Y-41925D01*
X60750Y-41075D02*
X61600Y-41925D01*
G54D32*
X56400Y-42350D02*
X55915Y-41865D01*
X55915Y-41735D02*
X55915Y-41865D01*
G54D33*
X55915Y-41200D02*
X55915Y-41735D01*
X55915Y-41735D02*
X55900Y-41750D01*
G54D30*
X59825Y-40850D02*
X60850Y-40850D01*
X55600Y-40725D02*
X56075Y-40250D01*
X56075Y-40250D02*
X57475Y-40250D01*
X57475Y-40250D02*
X57950Y-40725D01*
X57950Y-40725D02*
X57950Y-40824D01*
X57950Y-40824D02*
X57975Y-40850D01*
X57975Y-40850D02*
X59825Y-40850D01*
X55600Y-41200D02*
X55600Y-40725D01*
X64925Y-40800D02*
X64925Y-39975D01*
X64025Y-41700D02*
X64925Y-40800D01*
X61700Y-41700D02*
X64025Y-41700D01*
X60850Y-40850D02*
X61700Y-41700D01*
G54D33*
X55600Y-41750D02*
X55600Y-42350D01*
X55600Y-41200D02*
X55600Y-41750D01*
G54D30*
X57850Y-38275D02*
X57425Y-38700D01*
X57850Y-38275D02*
X59000Y-38275D01*
X59000Y-38275D02*
X60000Y-39275D01*
X60000Y-39975D02*
X60000Y-39275D01*
X54340Y-40265D02*
X54340Y-41200D01*
X53975Y-39900D02*
X54340Y-40265D01*
X53975Y-39425D02*
X53975Y-39900D01*
X54700Y-38700D02*
X53975Y-39425D01*
X57425Y-38700D02*
X54700Y-38700D01*
X56860Y-45700D02*
X56860Y-47635D01*
X62750Y-49300D02*
X63345Y-49300D01*
X62600Y-49150D02*
X62750Y-49300D01*
X62600Y-48600D02*
X62600Y-49150D01*
X62100Y-48100D02*
X62600Y-48600D01*
X61150Y-48100D02*
X62100Y-48100D01*
X60125Y-49125D02*
X61150Y-48100D01*
X58350Y-49125D02*
X60125Y-49125D01*
X56860Y-47635D02*
X58350Y-49125D01*
X62477Y-45147D02*
X60032Y-45147D01*
X57175Y-46205D02*
X57175Y-45700D01*
X57480Y-46510D02*
X57175Y-46205D01*
X58670Y-46510D02*
X57480Y-46510D01*
X60032Y-45147D02*
X58670Y-46510D01*
X63945Y-45147D02*
X62477Y-45147D01*
X62477Y-45147D02*
X62475Y-45150D01*
X57850Y-45025D02*
X58455Y-45025D01*
X64447Y-44317D02*
X64447Y-44645D01*
X64310Y-44180D02*
X64447Y-44317D01*
X60320Y-44180D02*
X64310Y-44180D01*
X59260Y-45240D02*
X60320Y-44180D01*
X58670Y-45240D02*
X59260Y-45240D01*
X58455Y-45025D02*
X58670Y-45240D01*
X59500Y-36274D02*
X59500Y-35650D01*
X56725Y-34925D02*
X56725Y-34675D01*
X57275Y-35475D02*
X56725Y-34925D01*
X59325Y-35475D02*
X57275Y-35475D01*
X59500Y-35650D02*
X59325Y-35475D01*
X59775Y-33995D02*
X59775Y-33750D01*
X60500Y-35525D02*
X60500Y-36274D01*
X60575Y-35450D02*
X60500Y-35525D01*
X56950Y-36125D02*
X57325Y-36125D01*
X56575Y-35750D02*
X56950Y-36125D01*
X55925Y-35750D02*
X56575Y-35750D01*
X55225Y-35050D02*
X55925Y-35750D01*
X54375Y-35050D02*
X55225Y-35050D01*
X53825Y-34500D02*
X54375Y-35050D01*
X53825Y-33500D02*
X53825Y-34500D01*
X54150Y-33175D02*
X53825Y-33500D01*
X59200Y-33175D02*
X54150Y-33175D01*
X59775Y-33750D02*
X59200Y-33175D01*
X68425Y-36274D02*
X68425Y-34850D01*
X67570Y-33995D02*
X64025Y-33995D01*
X68425Y-34850D02*
X67570Y-33995D01*
X67925Y-36274D02*
X67925Y-35500D01*
X63175Y-34075D02*
X63175Y-33995D01*
X63675Y-34575D02*
X63175Y-34075D01*
X64250Y-34575D02*
X63675Y-34575D01*
X64575Y-34250D02*
X64250Y-34575D01*
X67525Y-34250D02*
X64575Y-34250D01*
X68175Y-34900D02*
X67525Y-34250D01*
X68175Y-35250D02*
X68175Y-34900D01*
X67925Y-35500D02*
X68175Y-35250D01*
X67425Y-36274D02*
X67425Y-35575D01*
X62855Y-34525D02*
X62325Y-33995D01*
X63175Y-34525D02*
X62855Y-34525D01*
X63475Y-34825D02*
X63175Y-34525D01*
X64350Y-34825D02*
X63475Y-34825D01*
X64675Y-34500D02*
X64350Y-34825D01*
X67450Y-34500D02*
X64675Y-34500D01*
X67825Y-34875D02*
X67450Y-34500D01*
X67825Y-35175D02*
X67825Y-34875D01*
X67425Y-35575D02*
X67825Y-35175D01*
X66925Y-36274D02*
X66925Y-35750D01*
X61930Y-34450D02*
X61475Y-33995D01*
X62475Y-34450D02*
X61930Y-34450D01*
X62775Y-34750D02*
X62475Y-34450D01*
X63099Y-34750D02*
X62775Y-34750D01*
X63399Y-35050D02*
X63099Y-34750D01*
X64425Y-35050D02*
X63399Y-35050D01*
X64750Y-34725D02*
X64425Y-35050D01*
X67392Y-34725D02*
X64750Y-34725D01*
X67550Y-34882D02*
X67392Y-34725D01*
X67550Y-35125D02*
X67550Y-34882D01*
X66925Y-35750D02*
X67550Y-35125D01*
X66425Y-35625D02*
X66425Y-36274D01*
X66975Y-35075D02*
X66425Y-35625D01*
X65925Y-35575D02*
X66375Y-35125D01*
X65925Y-35575D02*
X65925Y-36274D01*
X65425Y-35450D02*
X65725Y-35150D01*
X65425Y-35450D02*
X65425Y-36274D01*
X64925Y-35325D02*
X64925Y-36274D01*
X64925Y-35325D02*
X65075Y-35175D01*
X60000Y-36274D02*
X60000Y-35250D01*
X60625Y-34625D02*
X60625Y-33995D01*
X60000Y-35250D02*
X60625Y-34625D01*
X62000Y-36274D02*
X62000Y-34900D01*
X61625Y-34525D02*
X61000Y-34525D01*
X62000Y-34900D02*
X61625Y-34525D01*
X61500Y-36274D02*
X61500Y-35700D01*
X57850Y-34220D02*
X58075Y-33995D01*
X57850Y-34600D02*
X57850Y-34220D01*
X57500Y-34950D02*
X57850Y-34600D01*
X61725Y-35125D02*
X61500Y-34900D01*
X61725Y-35475D02*
X61725Y-35125D01*
X61500Y-35700D02*
X61725Y-35475D01*
X58925Y-33995D02*
X58925Y-33775D01*
X61025Y-36249D02*
X61000Y-36274D01*
X61025Y-35650D02*
X61025Y-36249D01*
X61150Y-35525D02*
X61025Y-35650D01*
X61325Y-35350D02*
X61150Y-35525D01*
X55550Y-34725D02*
X56150Y-35325D01*
X54600Y-34725D02*
X55550Y-34725D01*
X54100Y-34225D02*
X54600Y-34725D01*
X54100Y-33700D02*
X54100Y-34225D01*
X54300Y-33500D02*
X54100Y-33700D01*
X58650Y-33500D02*
X54300Y-33500D01*
X58925Y-33775D02*
X58650Y-33500D01*
X62500Y-36274D02*
X62500Y-35625D01*
X62700Y-35425D02*
X64000Y-35425D01*
X62500Y-35625D02*
X62700Y-35425D01*
X59000Y-36274D02*
X59000Y-35700D01*
X56375Y-34975D02*
X56375Y-33995D01*
X57100Y-35700D02*
X56375Y-34975D01*
X59000Y-35700D02*
X57100Y-35700D01*
X52375Y-41950D02*
X52375Y-42300D01*
X52375Y-41950D02*
X52375Y-39550D01*
X52375Y-39550D02*
X54175Y-37750D01*
X54175Y-37750D02*
X57025Y-37750D01*
X57025Y-37750D02*
X57425Y-37350D01*
X57425Y-37350D02*
X59500Y-37350D01*
X59500Y-37350D02*
X61000Y-38850D01*
X61000Y-38850D02*
X61600Y-38850D01*
X61600Y-38850D02*
X62000Y-39250D01*
X62000Y-39975D02*
X62000Y-39250D01*
X52580Y-42505D02*
X53350Y-42505D01*
X52375Y-42300D02*
X52580Y-42505D01*
X51675Y-44875D02*
X50900Y-44875D01*
X50625Y-44600D02*
X50625Y-44125D01*
X50900Y-44875D02*
X50625Y-44600D01*
X51675Y-44875D02*
X51675Y-44375D01*
X51970Y-44080D02*
X53350Y-44080D01*
X51675Y-44375D02*
X51970Y-44080D01*
X64816Y-47204D02*
X65384Y-47204D01*
X65384Y-47204D02*
X65390Y-47210D01*
X64200Y-47725D02*
X64685Y-47725D01*
X64816Y-47593D02*
X64816Y-47204D01*
X64685Y-47725D02*
X64816Y-47593D01*
X64200Y-47725D02*
X64300Y-47625D01*
X51675Y-46475D02*
X52500Y-46475D01*
X52650Y-46625D02*
X53100Y-46625D01*
X52500Y-46475D02*
X52650Y-46625D01*
X51675Y-46475D02*
X51675Y-46225D01*
X52730Y-44395D02*
X53350Y-44395D01*
X52650Y-44475D02*
X52730Y-44395D01*
X52650Y-45250D02*
X52650Y-44475D01*
X51675Y-46225D02*
X52650Y-45250D01*
X52771Y-37785D02*
X53454Y-37785D01*
X54160Y-37080D02*
X54380Y-37080D01*
X53454Y-37785D02*
X54160Y-37080D01*
X54380Y-37080D02*
X55240Y-37080D01*
X55285Y-41895D02*
X55285Y-41200D01*
X55060Y-42120D02*
X55285Y-41895D01*
X49450Y-39725D02*
X51395Y-39725D01*
X52771Y-38348D02*
X52771Y-37785D01*
X51395Y-39725D02*
X52771Y-38348D01*
X55300Y-39775D02*
X55300Y-41185D01*
X55300Y-41185D02*
X55285Y-41200D01*
X63800Y-47375D02*
X63800Y-46670D01*
X63800Y-47375D02*
X63905Y-47375D01*
X64075Y-47204D02*
X64343Y-47204D01*
X63905Y-47375D02*
X64075Y-47204D01*
X55475Y-48875D02*
X56505Y-48875D01*
X56505Y-48875D02*
X56730Y-49100D01*
X55475Y-48875D02*
X55475Y-49600D01*
X64605Y-48450D02*
X65060Y-48450D01*
X65327Y-48717D02*
X65735Y-48717D01*
X65060Y-48450D02*
X65327Y-48717D01*
X64605Y-49300D02*
X65060Y-49300D01*
X65327Y-49032D02*
X65735Y-49032D01*
X65060Y-49300D02*
X65327Y-49032D01*
X65204Y-45402D02*
X65902Y-45402D01*
X65902Y-45402D02*
X65930Y-45430D01*
X52650Y-41775D02*
X52650Y-42025D01*
X52650Y-41775D02*
X52650Y-39625D01*
X52650Y-39625D02*
X54275Y-38000D01*
X54275Y-38000D02*
X57200Y-38000D01*
X57200Y-38000D02*
X57600Y-37600D01*
X57600Y-37600D02*
X59450Y-37600D01*
X59450Y-37600D02*
X60925Y-39075D01*
X60925Y-39075D02*
X61350Y-39075D01*
X61350Y-39075D02*
X61500Y-39225D01*
X61500Y-39975D02*
X61500Y-39225D01*
X52815Y-42190D02*
X53350Y-42190D01*
X52650Y-42025D02*
X52815Y-42190D01*
X53350Y-41875D02*
X53350Y-39300D01*
X61000Y-39400D02*
X61000Y-39975D01*
X60900Y-39300D02*
X61000Y-39400D01*
X60750Y-39300D02*
X60900Y-39300D01*
X59275Y-37825D02*
X60750Y-39300D01*
X57700Y-37825D02*
X59275Y-37825D01*
X57275Y-38250D02*
X57700Y-37825D01*
X54400Y-38250D02*
X57275Y-38250D01*
X53350Y-39300D02*
X54400Y-38250D01*
X59780Y-44095D02*
X59755Y-44095D01*
X59780Y-44095D02*
X60000Y-43875D01*
X64625Y-43875D02*
X64750Y-43875D01*
X64725Y-43875D02*
X64625Y-43875D01*
X60000Y-43875D02*
X64725Y-43875D01*
X64425Y-39975D02*
X64425Y-39000D01*
X59455Y-44395D02*
X57850Y-44395D01*
X59755Y-44095D02*
X59455Y-44395D01*
X52075Y-42100D02*
X52075Y-42500D01*
X52075Y-42100D02*
X52075Y-39525D01*
X52075Y-39525D02*
X54100Y-37500D01*
X54100Y-37500D02*
X56975Y-37500D01*
X56975Y-37500D02*
X57375Y-37100D01*
X57375Y-37100D02*
X59550Y-37100D01*
X59550Y-37100D02*
X61050Y-38600D01*
X61050Y-38600D02*
X61900Y-38600D01*
X61900Y-38600D02*
X62500Y-39200D01*
X62500Y-39975D02*
X62500Y-39200D01*
X52395Y-42820D02*
X53350Y-42820D01*
X52075Y-42500D02*
X52395Y-42820D01*
X57850Y-43765D02*
X57065Y-43765D01*
X57065Y-43765D02*
X57050Y-43750D01*
X63500Y-36450D02*
X63500Y-36274D01*
X63500Y-36450D02*
X63900Y-36850D01*
X57850Y-43765D02*
X57835Y-43750D01*
X58075Y-38725D02*
X58025Y-38725D01*
X58075Y-38725D02*
X58725Y-38725D01*
X58725Y-38725D02*
X59000Y-39000D01*
X59000Y-39975D02*
X59000Y-39000D01*
X54970Y-40270D02*
X54970Y-41200D01*
X54525Y-39825D02*
X54970Y-40270D01*
X54525Y-39575D02*
X54525Y-39825D01*
X54950Y-39150D02*
X54525Y-39575D01*
X57600Y-39150D02*
X54950Y-39150D01*
X58025Y-38725D02*
X57600Y-39150D01*
X59745Y-43780D02*
X59695Y-43780D01*
X68150Y-41700D02*
X66325Y-43525D01*
X66325Y-43525D02*
X60000Y-43525D01*
X60000Y-43525D02*
X59745Y-43780D01*
X69475Y-40925D02*
X69475Y-37500D01*
X69475Y-37500D02*
X69200Y-37225D01*
X69000Y-37225D02*
X69200Y-37225D01*
X69475Y-41450D02*
X69475Y-40925D01*
X69425Y-41500D02*
X69475Y-41450D01*
X68450Y-41500D02*
X69425Y-41500D01*
X68250Y-41700D02*
X68450Y-41500D01*
X68250Y-41700D02*
X68150Y-41700D01*
X59395Y-44080D02*
X57850Y-44080D01*
X59695Y-43780D02*
X59395Y-44080D01*
X68700Y-37225D02*
X63250Y-37225D01*
X68825Y-37225D02*
X68700Y-37225D01*
X63000Y-36975D02*
X63000Y-36274D01*
X63250Y-37225D02*
X63000Y-36975D01*
X68925Y-37125D02*
X68925Y-37150D01*
X68925Y-37150D02*
X69000Y-37225D01*
X68925Y-36274D02*
X68925Y-37125D01*
X68925Y-37125D02*
X68825Y-37225D01*
X69000Y-37225D02*
X68825Y-37225D01*
X64447Y-45904D02*
X64447Y-46550D01*
X64447Y-46550D02*
X64422Y-46575D01*
X64702Y-45904D02*
X64702Y-46540D01*
X64702Y-46540D02*
X64737Y-46575D01*
G54D31*
X68637Y-38962D02*
X68970Y-38630D01*
X69380Y-45410D02*
X67240Y-45410D01*
G54D30*
X66530Y-45430D02*
X67220Y-45430D01*
X67220Y-45430D02*
X67240Y-45410D01*
X60850Y-45700D02*
X60050Y-45700D01*
X59100Y-43150D02*
X59900Y-43150D01*
X59900Y-43150D02*
X59925Y-43175D01*
G54D32*
X52000Y-43140D02*
X52000Y-42800D01*
X51265Y-40725D02*
X49450Y-40725D01*
X51740Y-41200D02*
X51265Y-40725D01*
X51740Y-42540D02*
X51740Y-41200D01*
X52000Y-42800D02*
X51740Y-42540D01*
X53350Y-43450D02*
X52830Y-43450D01*
X52520Y-43140D02*
X52000Y-43140D01*
X52830Y-43450D02*
X52520Y-43140D01*
G54D31*
X63175Y-47375D02*
X63175Y-47675D01*
X63345Y-47845D02*
X63345Y-48450D01*
X63175Y-47675D02*
X63345Y-47845D01*
X60190Y-47240D02*
X63040Y-47240D01*
X63040Y-47240D02*
X63175Y-47375D01*
G54D30*
X59900Y-43150D02*
X59925Y-43175D01*
G54D32*
X56825Y-43135D02*
X56825Y-42725D01*
G54D30*
X56550Y-39775D02*
X56600Y-39725D01*
X56550Y-39775D02*
X55900Y-39775D01*
G54D32*
X56825Y-42725D02*
X56900Y-42650D01*
X53350Y-43450D02*
X55550Y-43450D01*
X55865Y-43135D02*
X56825Y-43135D01*
X56825Y-43135D02*
X57850Y-43135D01*
X55550Y-43450D02*
X55865Y-43135D01*
G54D30*
X59100Y-43150D02*
X57865Y-43150D01*
X57865Y-43150D02*
X57850Y-43135D01*
G54D31*
X60600Y-37500D02*
X61250Y-38150D01*
X61250Y-38150D02*
X62500Y-38150D01*
X62500Y-38150D02*
X63500Y-39150D01*
X59590Y-47240D02*
X59590Y-46160D01*
X60050Y-45700D02*
X61625Y-45700D01*
X59590Y-46160D02*
X60050Y-45700D01*
X59590Y-47240D02*
X60190Y-47240D01*
X63500Y-39975D02*
X63500Y-40900D01*
G54D30*
X63500Y-40900D02*
X63450Y-40950D01*
G54D31*
X63500Y-39975D02*
X63500Y-39150D01*
X68925Y-39250D02*
X68825Y-39150D01*
X63500Y-39150D02*
X64100Y-38550D01*
X64100Y-38550D02*
X68225Y-38550D01*
X68225Y-38550D02*
X68637Y-38962D01*
X68637Y-38962D02*
X68825Y-39150D01*
X68925Y-39250D02*
X68925Y-39975D01*
X68925Y-39975D02*
X68925Y-41200D01*
G54D10*
G36*
X55377Y-34475D02*
X54963Y-34475D01*
X54990Y-34380D01*
X54675Y-34065D01*
X54669Y-34071D01*
X54598Y-34000D01*
X54604Y-33995D01*
X54598Y-33989D01*
X54669Y-33918D01*
X54675Y-33924D01*
X54680Y-33918D01*
X54751Y-33989D01*
X54745Y-33995D01*
X55060Y-34310D01*
X55117Y-34294D01*
X55241Y-34418D01*
X55377Y-34475D01*
X55377Y-34475D01*
G37*
G54D30*
X55377Y-34475D02*
X54963Y-34475D01*
X54990Y-34380D01*
X54675Y-34065D01*
X54669Y-34071D01*
X54598Y-34000D01*
X54604Y-33995D01*
X54598Y-33989D01*
X54669Y-33918D01*
X54675Y-33924D01*
X54680Y-33918D01*
X54751Y-33989D01*
X54745Y-33995D01*
X55060Y-34310D01*
X55117Y-34294D01*
X55241Y-34418D01*
X55377Y-34475D01*
G54D10*
G36*
X58007Y-36324D02*
X58000Y-36324D01*
X58000Y-36332D01*
X57900Y-36332D01*
X57900Y-36324D01*
X57892Y-36324D01*
X57892Y-36224D01*
X57900Y-36224D01*
X57900Y-36216D01*
X58000Y-36216D01*
X58000Y-36224D01*
X58007Y-36224D01*
X58007Y-36324D01*
X58007Y-36324D01*
G37*
G54D30*
X58007Y-36324D02*
X58000Y-36324D01*
X58000Y-36332D01*
X57900Y-36332D01*
X57900Y-36324D01*
X57892Y-36324D01*
X57892Y-36224D01*
X57900Y-36224D01*
X57900Y-36216D01*
X58000Y-36216D01*
X58000Y-36224D01*
X58007Y-36224D01*
X58007Y-36324D01*
G54D10*
G36*
X59157Y-43800D02*
X59150Y-43800D01*
X59150Y-43807D01*
X59050Y-43807D01*
X59050Y-43800D01*
X58687Y-43800D01*
X58657Y-43830D01*
X58350Y-43830D01*
X58350Y-43805D01*
X58350Y-43683D01*
X58361Y-43671D01*
X58400Y-43579D01*
X58400Y-43552D01*
X58337Y-43490D01*
X58201Y-43490D01*
X58189Y-43485D01*
X58110Y-43485D01*
X57510Y-43485D01*
X57498Y-43490D01*
X57362Y-43490D01*
X57341Y-43511D01*
X57262Y-43432D01*
X57209Y-43410D01*
X57300Y-43410D01*
X57362Y-43410D01*
X57498Y-43410D01*
X57510Y-43415D01*
X57589Y-43415D01*
X58189Y-43415D01*
X58201Y-43410D01*
X58337Y-43410D01*
X58347Y-43400D01*
X58400Y-43400D01*
X58717Y-43400D01*
X58731Y-43414D01*
X58663Y-43483D01*
X58625Y-43575D01*
X58625Y-43637D01*
X58687Y-43700D01*
X59050Y-43700D01*
X59050Y-43692D01*
X59150Y-43692D01*
X59150Y-43700D01*
X59157Y-43700D01*
X59157Y-43800D01*
X59157Y-43800D01*
G37*
G54D30*
X59157Y-43800D02*
X59150Y-43800D01*
X59150Y-43807D01*
X59050Y-43807D01*
X59050Y-43800D01*
X58687Y-43800D01*
X58657Y-43830D01*
X58350Y-43830D01*
X58350Y-43805D01*
X58350Y-43683D01*
X58361Y-43671D01*
X58400Y-43579D01*
X58400Y-43552D01*
X58337Y-43490D01*
X58201Y-43490D01*
X58189Y-43485D01*
X58110Y-43485D01*
X57510Y-43485D01*
X57498Y-43490D01*
X57362Y-43490D01*
X57341Y-43511D01*
X57262Y-43432D01*
X57209Y-43410D01*
X57300Y-43410D01*
X57362Y-43410D01*
X57498Y-43410D01*
X57510Y-43415D01*
X57589Y-43415D01*
X58189Y-43415D01*
X58201Y-43410D01*
X58337Y-43410D01*
X58347Y-43400D01*
X58400Y-43400D01*
X58717Y-43400D01*
X58731Y-43414D01*
X58663Y-43483D01*
X58625Y-43575D01*
X58625Y-43637D01*
X58687Y-43700D01*
X59050Y-43700D01*
X59050Y-43692D01*
X59150Y-43692D01*
X59150Y-43700D01*
X59157Y-43700D01*
X59157Y-43800D01*
G54D10*
G36*
X63030Y-47955D02*
X63010Y-47955D01*
X62936Y-47985D01*
X62880Y-48041D01*
X62850Y-48115D01*
X62850Y-48194D01*
X62850Y-48600D01*
X62830Y-48504D01*
X62776Y-48423D01*
X62276Y-47923D01*
X62195Y-47869D01*
X62100Y-47850D01*
X61150Y-47850D01*
X61054Y-47869D01*
X60973Y-47923D01*
X60140Y-48756D01*
X60140Y-48110D01*
X60129Y-47893D01*
X60067Y-47744D01*
X59972Y-47718D01*
X59660Y-48030D01*
X59972Y-48341D01*
X60067Y-48315D01*
X60140Y-48110D01*
X60140Y-48756D01*
X60021Y-48875D01*
X59901Y-48875D01*
X59901Y-48412D01*
X59590Y-48100D01*
X59278Y-48412D01*
X59304Y-48507D01*
X59509Y-48580D01*
X59726Y-48569D01*
X59875Y-48507D01*
X59901Y-48412D01*
X59901Y-48875D01*
X58453Y-48875D01*
X57110Y-47531D01*
X57110Y-46493D01*
X57303Y-46686D01*
X57384Y-46740D01*
X57480Y-46760D01*
X58474Y-46760D01*
X58329Y-46819D01*
X58190Y-46958D01*
X58114Y-47141D01*
X58114Y-47338D01*
X58189Y-47520D01*
X58304Y-47635D01*
X58190Y-47748D01*
X58114Y-47931D01*
X58114Y-48128D01*
X58189Y-48310D01*
X58328Y-48449D01*
X58511Y-48525D01*
X58708Y-48525D01*
X58890Y-48450D01*
X59029Y-48311D01*
X59070Y-48213D01*
X59112Y-48315D01*
X59207Y-48341D01*
X59519Y-48030D01*
X59207Y-47718D01*
X59112Y-47744D01*
X59073Y-47854D01*
X59030Y-47749D01*
X58915Y-47634D01*
X59029Y-47521D01*
X59100Y-47351D01*
X59169Y-47520D01*
X59282Y-47632D01*
X59278Y-47647D01*
X59590Y-47959D01*
X59901Y-47647D01*
X59897Y-47632D01*
X59990Y-47540D01*
X60190Y-47540D01*
X62875Y-47540D01*
X62875Y-47675D01*
X62897Y-47789D01*
X62962Y-47887D01*
X63030Y-47955D01*
X63030Y-47955D01*
G37*
G54D30*
X63030Y-47955D02*
X63010Y-47955D01*
X62936Y-47985D01*
X62880Y-48041D01*
X62850Y-48115D01*
X62850Y-48194D01*
X62850Y-48600D01*
X62830Y-48504D01*
X62776Y-48423D01*
X62276Y-47923D01*
X62195Y-47869D01*
X62100Y-47850D01*
X61150Y-47850D01*
X61054Y-47869D01*
X60973Y-47923D01*
X60140Y-48756D01*
X60140Y-48110D01*
X60129Y-47893D01*
X60067Y-47744D01*
X59972Y-47718D01*
X59660Y-48030D01*
X59972Y-48341D01*
X60067Y-48315D01*
X60140Y-48110D01*
X60140Y-48756D01*
X60021Y-48875D01*
X59901Y-48875D01*
X59901Y-48412D01*
X59590Y-48100D01*
X59278Y-48412D01*
X59304Y-48507D01*
X59509Y-48580D01*
X59726Y-48569D01*
X59875Y-48507D01*
X59901Y-48412D01*
X59901Y-48875D01*
X58453Y-48875D01*
X57110Y-47531D01*
X57110Y-46493D01*
X57303Y-46686D01*
X57384Y-46740D01*
X57480Y-46760D01*
X58474Y-46760D01*
X58329Y-46819D01*
X58190Y-46958D01*
X58114Y-47141D01*
X58114Y-47338D01*
X58189Y-47520D01*
X58304Y-47635D01*
X58190Y-47748D01*
X58114Y-47931D01*
X58114Y-48128D01*
X58189Y-48310D01*
X58328Y-48449D01*
X58511Y-48525D01*
X58708Y-48525D01*
X58890Y-48450D01*
X59029Y-48311D01*
X59070Y-48213D01*
X59112Y-48315D01*
X59207Y-48341D01*
X59519Y-48030D01*
X59207Y-47718D01*
X59112Y-47744D01*
X59073Y-47854D01*
X59030Y-47749D01*
X58915Y-47634D01*
X59029Y-47521D01*
X59100Y-47351D01*
X59169Y-47520D01*
X59282Y-47632D01*
X59278Y-47647D01*
X59590Y-47959D01*
X59901Y-47647D01*
X59897Y-47632D01*
X59990Y-47540D01*
X60190Y-47540D01*
X62875Y-47540D01*
X62875Y-47675D01*
X62897Y-47789D01*
X62962Y-47887D01*
X63030Y-47955D01*
G54D10*
G36*
X64208Y-46890D02*
X64164Y-46934D01*
X64155Y-46954D01*
X64116Y-46954D01*
X64125Y-46934D01*
X64125Y-46855D01*
X64125Y-46405D01*
X64094Y-46331D01*
X64038Y-46275D01*
X63964Y-46245D01*
X63885Y-46245D01*
X63635Y-46245D01*
X63561Y-46275D01*
X63535Y-46301D01*
X63466Y-46233D01*
X63374Y-46195D01*
X63312Y-46195D01*
X63250Y-46257D01*
X63250Y-46620D01*
X63257Y-46620D01*
X63257Y-46720D01*
X63250Y-46720D01*
X63250Y-46727D01*
X63150Y-46727D01*
X63150Y-46720D01*
X63150Y-46620D01*
X63150Y-46257D01*
X63087Y-46195D01*
X63025Y-46195D01*
X62933Y-46233D01*
X62863Y-46303D01*
X62825Y-46395D01*
X62825Y-46494D01*
X62825Y-46557D01*
X62887Y-46620D01*
X63150Y-46620D01*
X63150Y-46720D01*
X62887Y-46720D01*
X62825Y-46782D01*
X62825Y-46845D01*
X62825Y-46940D01*
X62100Y-46940D01*
X62100Y-46474D01*
X62100Y-46412D01*
X62037Y-46350D01*
X61675Y-46350D01*
X61675Y-46612D01*
X61737Y-46675D01*
X61800Y-46675D01*
X61899Y-46675D01*
X61991Y-46636D01*
X62061Y-46566D01*
X62100Y-46474D01*
X62100Y-46940D01*
X61575Y-46940D01*
X61575Y-46612D01*
X61575Y-46350D01*
X61262Y-46350D01*
X61212Y-46350D01*
X60900Y-46350D01*
X60900Y-46612D01*
X60962Y-46675D01*
X61025Y-46675D01*
X61124Y-46675D01*
X61216Y-46636D01*
X61237Y-46616D01*
X61258Y-46636D01*
X61350Y-46675D01*
X61449Y-46675D01*
X61512Y-46675D01*
X61575Y-46612D01*
X61575Y-46940D01*
X60800Y-46940D01*
X60800Y-46612D01*
X60800Y-46350D01*
X60437Y-46350D01*
X60375Y-46412D01*
X60375Y-46474D01*
X60413Y-46566D01*
X60483Y-46636D01*
X60575Y-46675D01*
X60674Y-46675D01*
X60737Y-46675D01*
X60800Y-46612D01*
X60800Y-46940D01*
X60190Y-46940D01*
X59990Y-46940D01*
X59890Y-46839D01*
X59890Y-46284D01*
X60174Y-46000D01*
X60446Y-46000D01*
X60413Y-46033D01*
X60375Y-46125D01*
X60375Y-46187D01*
X60437Y-46250D01*
X60800Y-46250D01*
X60800Y-46242D01*
X60900Y-46242D01*
X60900Y-46250D01*
X61212Y-46250D01*
X61262Y-46250D01*
X61575Y-46250D01*
X61575Y-46242D01*
X61675Y-46242D01*
X61675Y-46250D01*
X62037Y-46250D01*
X62100Y-46187D01*
X62100Y-46125D01*
X62061Y-46033D01*
X61993Y-45964D01*
X62019Y-45938D01*
X62050Y-45864D01*
X62050Y-45785D01*
X62050Y-45535D01*
X62019Y-45461D01*
X61963Y-45405D01*
X61943Y-45397D01*
X62460Y-45397D01*
X62475Y-45400D01*
X62489Y-45397D01*
X63834Y-45397D01*
X63863Y-45402D01*
X63780Y-45419D01*
X63761Y-45432D01*
X63641Y-45432D01*
X63586Y-45480D01*
X63586Y-45484D01*
X63635Y-45582D01*
X63620Y-45658D01*
X63640Y-45757D01*
X63696Y-45842D01*
X63780Y-45898D01*
X63879Y-45917D01*
X63932Y-45917D01*
X63932Y-45970D01*
X63951Y-46069D01*
X64007Y-46153D01*
X64092Y-46209D01*
X64191Y-46229D01*
X64197Y-46228D01*
X64197Y-46271D01*
X64164Y-46304D01*
X64133Y-46377D01*
X64133Y-46457D01*
X64133Y-46772D01*
X64164Y-46845D01*
X64208Y-46890D01*
X64208Y-46890D01*
G37*
G54D30*
X64208Y-46890D02*
X64164Y-46934D01*
X64155Y-46954D01*
X64116Y-46954D01*
X64125Y-46934D01*
X64125Y-46855D01*
X64125Y-46405D01*
X64094Y-46331D01*
X64038Y-46275D01*
X63964Y-46245D01*
X63885Y-46245D01*
X63635Y-46245D01*
X63561Y-46275D01*
X63535Y-46301D01*
X63466Y-46233D01*
X63374Y-46195D01*
X63312Y-46195D01*
X63250Y-46257D01*
X63250Y-46620D01*
X63257Y-46620D01*
X63257Y-46720D01*
X63250Y-46720D01*
X63250Y-46727D01*
X63150Y-46727D01*
X63150Y-46720D01*
X63150Y-46620D01*
X63150Y-46257D01*
X63087Y-46195D01*
X63025Y-46195D01*
X62933Y-46233D01*
X62863Y-46303D01*
X62825Y-46395D01*
X62825Y-46494D01*
X62825Y-46557D01*
X62887Y-46620D01*
X63150Y-46620D01*
X63150Y-46720D01*
X62887Y-46720D01*
X62825Y-46782D01*
X62825Y-46845D01*
X62825Y-46940D01*
X62100Y-46940D01*
X62100Y-46474D01*
X62100Y-46412D01*
X62037Y-46350D01*
X61675Y-46350D01*
X61675Y-46612D01*
X61737Y-46675D01*
X61800Y-46675D01*
X61899Y-46675D01*
X61991Y-46636D01*
X62061Y-46566D01*
X62100Y-46474D01*
X62100Y-46940D01*
X61575Y-46940D01*
X61575Y-46612D01*
X61575Y-46350D01*
X61262Y-46350D01*
X61212Y-46350D01*
X60900Y-46350D01*
X60900Y-46612D01*
X60962Y-46675D01*
X61025Y-46675D01*
X61124Y-46675D01*
X61216Y-46636D01*
X61237Y-46616D01*
X61258Y-46636D01*
X61350Y-46675D01*
X61449Y-46675D01*
X61512Y-46675D01*
X61575Y-46612D01*
X61575Y-46940D01*
X60800Y-46940D01*
X60800Y-46612D01*
X60800Y-46350D01*
X60437Y-46350D01*
X60375Y-46412D01*
X60375Y-46474D01*
X60413Y-46566D01*
X60483Y-46636D01*
X60575Y-46675D01*
X60674Y-46675D01*
X60737Y-46675D01*
X60800Y-46612D01*
X60800Y-46940D01*
X60190Y-46940D01*
X59990Y-46940D01*
X59890Y-46839D01*
X59890Y-46284D01*
X60174Y-46000D01*
X60446Y-46000D01*
X60413Y-46033D01*
X60375Y-46125D01*
X60375Y-46187D01*
X60437Y-46250D01*
X60800Y-46250D01*
X60800Y-46242D01*
X60900Y-46242D01*
X60900Y-46250D01*
X61212Y-46250D01*
X61262Y-46250D01*
X61575Y-46250D01*
X61575Y-46242D01*
X61675Y-46242D01*
X61675Y-46250D01*
X62037Y-46250D01*
X62100Y-46187D01*
X62100Y-46125D01*
X62061Y-46033D01*
X61993Y-45964D01*
X62019Y-45938D01*
X62050Y-45864D01*
X62050Y-45785D01*
X62050Y-45535D01*
X62019Y-45461D01*
X61963Y-45405D01*
X61943Y-45397D01*
X62460Y-45397D01*
X62475Y-45400D01*
X62489Y-45397D01*
X63834Y-45397D01*
X63863Y-45402D01*
X63780Y-45419D01*
X63761Y-45432D01*
X63641Y-45432D01*
X63586Y-45480D01*
X63586Y-45484D01*
X63635Y-45582D01*
X63620Y-45658D01*
X63640Y-45757D01*
X63696Y-45842D01*
X63780Y-45898D01*
X63879Y-45917D01*
X63932Y-45917D01*
X63932Y-45970D01*
X63951Y-46069D01*
X64007Y-46153D01*
X64092Y-46209D01*
X64191Y-46229D01*
X64197Y-46228D01*
X64197Y-46271D01*
X64164Y-46304D01*
X64133Y-46377D01*
X64133Y-46457D01*
X64133Y-46772D01*
X64164Y-46845D01*
X64208Y-46890D01*
G54D10*
G36*
X64675Y-40696D02*
X63921Y-41450D01*
X62850Y-41450D01*
X62850Y-41362D01*
X62850Y-41000D01*
X62587Y-41000D01*
X62525Y-41062D01*
X62525Y-41125D01*
X62525Y-41224D01*
X62563Y-41316D01*
X62633Y-41386D01*
X62725Y-41425D01*
X62787Y-41425D01*
X62850Y-41362D01*
X62850Y-41450D01*
X61803Y-41450D01*
X61026Y-40673D01*
X60945Y-40619D01*
X60850Y-40600D01*
X59825Y-40600D01*
X58161Y-40600D01*
X58140Y-40569D01*
X58157Y-40569D01*
X58231Y-40538D01*
X58250Y-40520D01*
X58268Y-40538D01*
X58342Y-40569D01*
X58421Y-40569D01*
X58657Y-40569D01*
X58731Y-40538D01*
X58750Y-40520D01*
X58768Y-40538D01*
X58842Y-40569D01*
X58921Y-40569D01*
X59157Y-40569D01*
X59231Y-40538D01*
X59250Y-40520D01*
X59268Y-40538D01*
X59342Y-40569D01*
X59421Y-40569D01*
X59657Y-40569D01*
X59731Y-40538D01*
X59750Y-40520D01*
X59768Y-40538D01*
X59842Y-40569D01*
X59921Y-40569D01*
X60157Y-40569D01*
X60231Y-40538D01*
X60250Y-40520D01*
X60268Y-40538D01*
X60342Y-40569D01*
X60421Y-40569D01*
X60657Y-40569D01*
X60731Y-40538D01*
X60750Y-40520D01*
X60768Y-40538D01*
X60842Y-40569D01*
X60921Y-40569D01*
X61157Y-40569D01*
X61231Y-40538D01*
X61250Y-40520D01*
X61268Y-40538D01*
X61342Y-40569D01*
X61421Y-40569D01*
X61657Y-40569D01*
X61731Y-40538D01*
X61750Y-40520D01*
X61768Y-40538D01*
X61842Y-40569D01*
X61921Y-40569D01*
X62157Y-40569D01*
X62231Y-40538D01*
X62250Y-40520D01*
X62268Y-40538D01*
X62342Y-40569D01*
X62421Y-40569D01*
X62577Y-40569D01*
X62563Y-40583D01*
X62525Y-40675D01*
X62525Y-40774D01*
X62525Y-40837D01*
X62587Y-40900D01*
X62850Y-40900D01*
X62850Y-40892D01*
X62950Y-40892D01*
X62950Y-40900D01*
X62957Y-40900D01*
X62957Y-41000D01*
X62950Y-41000D01*
X62950Y-41362D01*
X63012Y-41425D01*
X63074Y-41425D01*
X63166Y-41386D01*
X63235Y-41318D01*
X63261Y-41344D01*
X63335Y-41375D01*
X63414Y-41375D01*
X63664Y-41375D01*
X63738Y-41344D01*
X63794Y-41288D01*
X63825Y-41214D01*
X63825Y-41135D01*
X63825Y-40685D01*
X63800Y-40624D01*
X63800Y-40452D01*
X63818Y-40408D01*
X63818Y-40329D01*
X63818Y-39541D01*
X63800Y-39498D01*
X63800Y-39274D01*
X64049Y-39024D01*
X64049Y-39074D01*
X64106Y-39212D01*
X64175Y-39280D01*
X64175Y-39430D01*
X64137Y-39468D01*
X64106Y-39541D01*
X64106Y-39621D01*
X64106Y-40408D01*
X64137Y-40482D01*
X64193Y-40538D01*
X64267Y-40569D01*
X64346Y-40569D01*
X64582Y-40569D01*
X64656Y-40538D01*
X64675Y-40520D01*
X64675Y-40696D01*
X64675Y-40696D01*
G37*
G54D30*
X64675Y-40696D02*
X63921Y-41450D01*
X62850Y-41450D01*
X62850Y-41362D01*
X62850Y-41000D01*
X62587Y-41000D01*
X62525Y-41062D01*
X62525Y-41125D01*
X62525Y-41224D01*
X62563Y-41316D01*
X62633Y-41386D01*
X62725Y-41425D01*
X62787Y-41425D01*
X62850Y-41362D01*
X62850Y-41450D01*
X61803Y-41450D01*
X61026Y-40673D01*
X60945Y-40619D01*
X60850Y-40600D01*
X59825Y-40600D01*
X58161Y-40600D01*
X58140Y-40569D01*
X58157Y-40569D01*
X58231Y-40538D01*
X58250Y-40520D01*
X58268Y-40538D01*
X58342Y-40569D01*
X58421Y-40569D01*
X58657Y-40569D01*
X58731Y-40538D01*
X58750Y-40520D01*
X58768Y-40538D01*
X58842Y-40569D01*
X58921Y-40569D01*
X59157Y-40569D01*
X59231Y-40538D01*
X59250Y-40520D01*
X59268Y-40538D01*
X59342Y-40569D01*
X59421Y-40569D01*
X59657Y-40569D01*
X59731Y-40538D01*
X59750Y-40520D01*
X59768Y-40538D01*
X59842Y-40569D01*
X59921Y-40569D01*
X60157Y-40569D01*
X60231Y-40538D01*
X60250Y-40520D01*
X60268Y-40538D01*
X60342Y-40569D01*
X60421Y-40569D01*
X60657Y-40569D01*
X60731Y-40538D01*
X60750Y-40520D01*
X60768Y-40538D01*
X60842Y-40569D01*
X60921Y-40569D01*
X61157Y-40569D01*
X61231Y-40538D01*
X61250Y-40520D01*
X61268Y-40538D01*
X61342Y-40569D01*
X61421Y-40569D01*
X61657Y-40569D01*
X61731Y-40538D01*
X61750Y-40520D01*
X61768Y-40538D01*
X61842Y-40569D01*
X61921Y-40569D01*
X62157Y-40569D01*
X62231Y-40538D01*
X62250Y-40520D01*
X62268Y-40538D01*
X62342Y-40569D01*
X62421Y-40569D01*
X62577Y-40569D01*
X62563Y-40583D01*
X62525Y-40675D01*
X62525Y-40774D01*
X62525Y-40837D01*
X62587Y-40900D01*
X62850Y-40900D01*
X62850Y-40892D01*
X62950Y-40892D01*
X62950Y-40900D01*
X62957Y-40900D01*
X62957Y-41000D01*
X62950Y-41000D01*
X62950Y-41362D01*
X63012Y-41425D01*
X63074Y-41425D01*
X63166Y-41386D01*
X63235Y-41318D01*
X63261Y-41344D01*
X63335Y-41375D01*
X63414Y-41375D01*
X63664Y-41375D01*
X63738Y-41344D01*
X63794Y-41288D01*
X63825Y-41214D01*
X63825Y-41135D01*
X63825Y-40685D01*
X63800Y-40624D01*
X63800Y-40452D01*
X63818Y-40408D01*
X63818Y-40329D01*
X63818Y-39541D01*
X63800Y-39498D01*
X63800Y-39274D01*
X64049Y-39024D01*
X64049Y-39074D01*
X64106Y-39212D01*
X64175Y-39280D01*
X64175Y-39430D01*
X64137Y-39468D01*
X64106Y-39541D01*
X64106Y-39621D01*
X64106Y-40408D01*
X64137Y-40482D01*
X64193Y-40538D01*
X64267Y-40569D01*
X64346Y-40569D01*
X64582Y-40569D01*
X64656Y-40538D01*
X64675Y-40520D01*
X64675Y-40696D01*
G54D10*
G36*
X68675Y-36975D02*
X64254Y-36975D01*
X64274Y-36924D01*
X64274Y-36918D01*
X64312Y-36918D01*
X64375Y-36855D01*
X64375Y-36324D01*
X64119Y-36324D01*
X64056Y-36387D01*
X64056Y-36509D01*
X63974Y-36475D01*
X63878Y-36474D01*
X63818Y-36414D01*
X63818Y-35841D01*
X63787Y-35767D01*
X63731Y-35711D01*
X63657Y-35680D01*
X63578Y-35680D01*
X63342Y-35680D01*
X63268Y-35711D01*
X63250Y-35729D01*
X63231Y-35711D01*
X63157Y-35680D01*
X63078Y-35680D01*
X62842Y-35680D01*
X62768Y-35711D01*
X62750Y-35729D01*
X62750Y-35728D01*
X62803Y-35675D01*
X63719Y-35675D01*
X63787Y-35742D01*
X63925Y-35799D01*
X64069Y-35800D01*
X64056Y-35831D01*
X64056Y-35930D01*
X64056Y-36162D01*
X64119Y-36224D01*
X64375Y-36224D01*
X64375Y-35693D01*
X64318Y-35636D01*
X64374Y-35499D01*
X64375Y-35350D01*
X64354Y-35300D01*
X64425Y-35300D01*
X64520Y-35280D01*
X64601Y-35226D01*
X64700Y-35128D01*
X64699Y-35220D01*
X64694Y-35229D01*
X64675Y-35325D01*
X64675Y-35664D01*
X64592Y-35630D01*
X64537Y-35630D01*
X64475Y-35693D01*
X64475Y-36224D01*
X64482Y-36224D01*
X64482Y-36324D01*
X64475Y-36324D01*
X64475Y-36855D01*
X64537Y-36918D01*
X64592Y-36918D01*
X64684Y-36880D01*
X64717Y-36847D01*
X64767Y-36868D01*
X64846Y-36868D01*
X65082Y-36868D01*
X65156Y-36837D01*
X65175Y-36819D01*
X65193Y-36837D01*
X65267Y-36868D01*
X65346Y-36868D01*
X65582Y-36868D01*
X65656Y-36837D01*
X65675Y-36819D01*
X65693Y-36837D01*
X65767Y-36868D01*
X65846Y-36868D01*
X66082Y-36868D01*
X66156Y-36837D01*
X66175Y-36819D01*
X66193Y-36837D01*
X66267Y-36868D01*
X66346Y-36868D01*
X66582Y-36868D01*
X66656Y-36837D01*
X66675Y-36819D01*
X66693Y-36837D01*
X66767Y-36868D01*
X66846Y-36868D01*
X67082Y-36868D01*
X67156Y-36837D01*
X67175Y-36819D01*
X67193Y-36837D01*
X67267Y-36868D01*
X67346Y-36868D01*
X67582Y-36868D01*
X67656Y-36837D01*
X67675Y-36819D01*
X67693Y-36837D01*
X67767Y-36868D01*
X67846Y-36868D01*
X68082Y-36868D01*
X68156Y-36837D01*
X68175Y-36819D01*
X68193Y-36837D01*
X68267Y-36868D01*
X68346Y-36868D01*
X68582Y-36868D01*
X68656Y-36837D01*
X68675Y-36819D01*
X68675Y-36975D01*
X68675Y-36975D01*
G37*
G54D30*
X68675Y-36975D02*
X64254Y-36975D01*
X64274Y-36924D01*
X64274Y-36918D01*
X64312Y-36918D01*
X64375Y-36855D01*
X64375Y-36324D01*
X64119Y-36324D01*
X64056Y-36387D01*
X64056Y-36509D01*
X63974Y-36475D01*
X63878Y-36474D01*
X63818Y-36414D01*
X63818Y-35841D01*
X63787Y-35767D01*
X63731Y-35711D01*
X63657Y-35680D01*
X63578Y-35680D01*
X63342Y-35680D01*
X63268Y-35711D01*
X63250Y-35729D01*
X63231Y-35711D01*
X63157Y-35680D01*
X63078Y-35680D01*
X62842Y-35680D01*
X62768Y-35711D01*
X62750Y-35729D01*
X62750Y-35728D01*
X62803Y-35675D01*
X63719Y-35675D01*
X63787Y-35742D01*
X63925Y-35799D01*
X64069Y-35800D01*
X64056Y-35831D01*
X64056Y-35930D01*
X64056Y-36162D01*
X64119Y-36224D01*
X64375Y-36224D01*
X64375Y-35693D01*
X64318Y-35636D01*
X64374Y-35499D01*
X64375Y-35350D01*
X64354Y-35300D01*
X64425Y-35300D01*
X64520Y-35280D01*
X64601Y-35226D01*
X64700Y-35128D01*
X64699Y-35220D01*
X64694Y-35229D01*
X64675Y-35325D01*
X64675Y-35664D01*
X64592Y-35630D01*
X64537Y-35630D01*
X64475Y-35693D01*
X64475Y-36224D01*
X64482Y-36224D01*
X64482Y-36324D01*
X64475Y-36324D01*
X64475Y-36855D01*
X64537Y-36918D01*
X64592Y-36918D01*
X64684Y-36880D01*
X64717Y-36847D01*
X64767Y-36868D01*
X64846Y-36868D01*
X65082Y-36868D01*
X65156Y-36837D01*
X65175Y-36819D01*
X65193Y-36837D01*
X65267Y-36868D01*
X65346Y-36868D01*
X65582Y-36868D01*
X65656Y-36837D01*
X65675Y-36819D01*
X65693Y-36837D01*
X65767Y-36868D01*
X65846Y-36868D01*
X66082Y-36868D01*
X66156Y-36837D01*
X66175Y-36819D01*
X66193Y-36837D01*
X66267Y-36868D01*
X66346Y-36868D01*
X66582Y-36868D01*
X66656Y-36837D01*
X66675Y-36819D01*
X66693Y-36837D01*
X66767Y-36868D01*
X66846Y-36868D01*
X67082Y-36868D01*
X67156Y-36837D01*
X67175Y-36819D01*
X67193Y-36837D01*
X67267Y-36868D01*
X67346Y-36868D01*
X67582Y-36868D01*
X67656Y-36837D01*
X67675Y-36819D01*
X67693Y-36837D01*
X67767Y-36868D01*
X67846Y-36868D01*
X68082Y-36868D01*
X68156Y-36837D01*
X68175Y-36819D01*
X68193Y-36837D01*
X68267Y-36868D01*
X68346Y-36868D01*
X68582Y-36868D01*
X68656Y-36837D01*
X68675Y-36819D01*
X68675Y-36975D01*
G54D10*
G36*
X69867Y-29258D02*
X69864Y-50225D01*
X69755Y-50225D01*
X69755Y-45335D01*
X69698Y-45197D01*
X69592Y-45092D01*
X69454Y-45035D01*
X69400Y-45035D01*
X69400Y-41974D01*
X69400Y-41912D01*
X69337Y-41850D01*
X68975Y-41850D01*
X68975Y-42112D01*
X69037Y-42175D01*
X69100Y-42175D01*
X69199Y-42175D01*
X69291Y-42136D01*
X69361Y-42066D01*
X69400Y-41974D01*
X69400Y-45035D01*
X69305Y-45034D01*
X69167Y-45091D01*
X69149Y-45110D01*
X68875Y-45110D01*
X67643Y-45110D01*
X67676Y-45076D01*
X67715Y-44984D01*
X67715Y-44922D01*
X67715Y-44697D01*
X67715Y-44635D01*
X67676Y-44543D01*
X67606Y-44473D01*
X67514Y-44435D01*
X67415Y-44435D01*
X67352Y-44435D01*
X67290Y-44497D01*
X67290Y-44760D01*
X67652Y-44760D01*
X67715Y-44697D01*
X67715Y-44922D01*
X67652Y-44860D01*
X67290Y-44860D01*
X67290Y-44867D01*
X67190Y-44867D01*
X67190Y-44860D01*
X67190Y-44760D01*
X67190Y-44497D01*
X67127Y-44435D01*
X67064Y-44435D01*
X66965Y-44435D01*
X66873Y-44473D01*
X66803Y-44543D01*
X66765Y-44635D01*
X66765Y-44697D01*
X66827Y-44760D01*
X67190Y-44760D01*
X67190Y-44860D01*
X66827Y-44860D01*
X66765Y-44922D01*
X66765Y-44984D01*
X66798Y-45065D01*
X66768Y-45035D01*
X66694Y-45005D01*
X66615Y-45005D01*
X66365Y-45005D01*
X66291Y-45035D01*
X66235Y-45091D01*
X66230Y-45104D01*
X66224Y-45091D01*
X66168Y-45035D01*
X66094Y-45005D01*
X66015Y-45005D01*
X65765Y-45005D01*
X65691Y-45035D01*
X65635Y-45091D01*
X65610Y-45152D01*
X65528Y-45152D01*
X65529Y-45147D01*
X65509Y-45047D01*
X65490Y-45019D01*
X65509Y-44990D01*
X65529Y-44891D01*
X65509Y-44792D01*
X65453Y-44707D01*
X65369Y-44651D01*
X65270Y-44632D01*
X65267Y-44632D01*
X65267Y-44595D01*
X65266Y-44595D01*
X65206Y-44595D01*
X65266Y-44546D01*
X65227Y-44431D01*
X65148Y-44340D01*
X65039Y-44286D01*
X65036Y-44286D01*
X64988Y-44341D01*
X64988Y-44595D01*
X65016Y-44595D01*
X65016Y-44667D01*
X64996Y-44681D01*
X64962Y-44681D01*
X64962Y-44579D01*
X64942Y-44480D01*
X64929Y-44461D01*
X64929Y-44341D01*
X64881Y-44286D01*
X64877Y-44286D01*
X64779Y-44335D01*
X64702Y-44320D01*
X64697Y-44321D01*
X64697Y-44317D01*
X64683Y-44249D01*
X64824Y-44250D01*
X64962Y-44193D01*
X65067Y-44087D01*
X65124Y-43949D01*
X65125Y-43800D01*
X65114Y-43775D01*
X66325Y-43775D01*
X66420Y-43755D01*
X66501Y-43701D01*
X68254Y-41949D01*
X68345Y-41930D01*
X68426Y-41876D01*
X68453Y-41850D01*
X68512Y-41850D01*
X68450Y-41912D01*
X68450Y-41974D01*
X68488Y-42066D01*
X68558Y-42136D01*
X68650Y-42175D01*
X68749Y-42175D01*
X68812Y-42175D01*
X68875Y-42112D01*
X68875Y-41850D01*
X68867Y-41850D01*
X68867Y-41750D01*
X68875Y-41750D01*
X68975Y-41750D01*
X69337Y-41750D01*
X69425Y-41750D01*
X69520Y-41730D01*
X69601Y-41676D01*
X69651Y-41626D01*
X69705Y-41545D01*
X69725Y-41450D01*
X69725Y-40925D01*
X69725Y-37500D01*
X69705Y-37404D01*
X69651Y-37323D01*
X69395Y-37066D01*
X69395Y-32985D01*
X69269Y-32680D01*
X69035Y-32446D01*
X68730Y-32320D01*
X68400Y-32319D01*
X68095Y-32445D01*
X67861Y-32679D01*
X67735Y-32984D01*
X67734Y-33314D01*
X67860Y-33619D01*
X68094Y-33853D01*
X68399Y-33979D01*
X68729Y-33980D01*
X69034Y-33854D01*
X69268Y-33620D01*
X69394Y-33315D01*
X69395Y-32985D01*
X69395Y-37066D01*
X69376Y-37048D01*
X69295Y-36994D01*
X69200Y-36975D01*
X69175Y-36975D01*
X69175Y-36819D01*
X69212Y-36781D01*
X69243Y-36708D01*
X69243Y-36628D01*
X69243Y-35841D01*
X69212Y-35767D01*
X69156Y-35711D01*
X69082Y-35680D01*
X69003Y-35680D01*
X68767Y-35680D01*
X68693Y-35711D01*
X68675Y-35729D01*
X68675Y-34850D01*
X68675Y-34850D01*
X68675Y-34850D01*
X68655Y-34754D01*
X68601Y-34673D01*
X67746Y-33818D01*
X67665Y-33764D01*
X67570Y-33745D01*
X64525Y-33745D01*
X64525Y-32205D01*
X64449Y-32022D01*
X64308Y-31881D01*
X64124Y-31805D01*
X63925Y-31804D01*
X63742Y-31880D01*
X63601Y-32021D01*
X63600Y-32024D01*
X63599Y-32022D01*
X63458Y-31881D01*
X63274Y-31805D01*
X63075Y-31804D01*
X62892Y-31880D01*
X62751Y-32021D01*
X62750Y-32024D01*
X62749Y-32022D01*
X62608Y-31881D01*
X62424Y-31805D01*
X62225Y-31804D01*
X62042Y-31880D01*
X61901Y-32021D01*
X61900Y-32024D01*
X61899Y-32022D01*
X61758Y-31881D01*
X61574Y-31805D01*
X61375Y-31804D01*
X61192Y-31880D01*
X61051Y-32021D01*
X61050Y-32024D01*
X61049Y-32022D01*
X60908Y-31881D01*
X60724Y-31805D01*
X60525Y-31804D01*
X60342Y-31880D01*
X60216Y-32005D01*
X60160Y-31989D01*
X60090Y-32060D01*
X60090Y-31919D01*
X60062Y-31823D01*
X59856Y-31750D01*
X59638Y-31761D01*
X59487Y-31823D01*
X59459Y-31919D01*
X59775Y-32234D01*
X60090Y-31919D01*
X60090Y-32060D01*
X59845Y-32305D01*
X60160Y-32620D01*
X60217Y-32604D01*
X60341Y-32728D01*
X60525Y-32804D01*
X60724Y-32805D01*
X60907Y-32729D01*
X61048Y-32588D01*
X61049Y-32585D01*
X61050Y-32587D01*
X61191Y-32728D01*
X61375Y-32804D01*
X61574Y-32805D01*
X61757Y-32729D01*
X61898Y-32588D01*
X61899Y-32585D01*
X61900Y-32587D01*
X62041Y-32728D01*
X62225Y-32804D01*
X62424Y-32805D01*
X62607Y-32729D01*
X62748Y-32588D01*
X62749Y-32585D01*
X62750Y-32587D01*
X62891Y-32728D01*
X63075Y-32804D01*
X63274Y-32805D01*
X63457Y-32729D01*
X63598Y-32588D01*
X63599Y-32585D01*
X63600Y-32587D01*
X63741Y-32728D01*
X63925Y-32804D01*
X64124Y-32805D01*
X64307Y-32729D01*
X64448Y-32588D01*
X64524Y-32404D01*
X64525Y-32205D01*
X64525Y-33745D01*
X64462Y-33745D01*
X64449Y-33712D01*
X64308Y-33571D01*
X64124Y-33495D01*
X63925Y-33494D01*
X63742Y-33570D01*
X63601Y-33711D01*
X63600Y-33714D01*
X63599Y-33712D01*
X63458Y-33571D01*
X63274Y-33495D01*
X63075Y-33494D01*
X62892Y-33570D01*
X62751Y-33711D01*
X62750Y-33714D01*
X62749Y-33712D01*
X62608Y-33571D01*
X62424Y-33495D01*
X62225Y-33494D01*
X62042Y-33570D01*
X61901Y-33711D01*
X61900Y-33714D01*
X61899Y-33712D01*
X61758Y-33571D01*
X61574Y-33495D01*
X61375Y-33494D01*
X61192Y-33570D01*
X61051Y-33711D01*
X61050Y-33714D01*
X61049Y-33712D01*
X60908Y-33571D01*
X60724Y-33495D01*
X60525Y-33494D01*
X60342Y-33570D01*
X60201Y-33711D01*
X60200Y-33714D01*
X60199Y-33712D01*
X60090Y-33603D01*
X60090Y-32690D01*
X59775Y-32375D01*
X59704Y-32446D01*
X59704Y-32305D01*
X59389Y-31989D01*
X59350Y-32001D01*
X59310Y-31989D01*
X59240Y-32060D01*
X59240Y-31919D01*
X59212Y-31823D01*
X59006Y-31750D01*
X58788Y-31761D01*
X58637Y-31823D01*
X58609Y-31919D01*
X58925Y-32234D01*
X59240Y-31919D01*
X59240Y-32060D01*
X58995Y-32305D01*
X59310Y-32620D01*
X59350Y-32608D01*
X59389Y-32620D01*
X59704Y-32305D01*
X59704Y-32446D01*
X59459Y-32690D01*
X59487Y-32786D01*
X59693Y-32859D01*
X59911Y-32848D01*
X60062Y-32786D01*
X60090Y-32690D01*
X60090Y-33603D01*
X60058Y-33571D01*
X59874Y-33495D01*
X59873Y-33495D01*
X59376Y-32998D01*
X59295Y-32944D01*
X59240Y-32932D01*
X59240Y-32690D01*
X58925Y-32375D01*
X58854Y-32446D01*
X58854Y-32305D01*
X58539Y-31989D01*
X58500Y-32001D01*
X58460Y-31989D01*
X58390Y-32060D01*
X58390Y-31919D01*
X58362Y-31823D01*
X58156Y-31750D01*
X57938Y-31761D01*
X57787Y-31823D01*
X57759Y-31919D01*
X58075Y-32234D01*
X58390Y-31919D01*
X58390Y-32060D01*
X58145Y-32305D01*
X58460Y-32620D01*
X58500Y-32608D01*
X58539Y-32620D01*
X58854Y-32305D01*
X58854Y-32446D01*
X58609Y-32690D01*
X58637Y-32786D01*
X58843Y-32859D01*
X59061Y-32848D01*
X59212Y-32786D01*
X59240Y-32690D01*
X59240Y-32932D01*
X59200Y-32925D01*
X58390Y-32925D01*
X58390Y-32690D01*
X58075Y-32375D01*
X58004Y-32446D01*
X58004Y-32305D01*
X57689Y-31989D01*
X57650Y-32001D01*
X57610Y-31989D01*
X57540Y-32060D01*
X57540Y-31919D01*
X57512Y-31823D01*
X57306Y-31750D01*
X57088Y-31761D01*
X56937Y-31823D01*
X56909Y-31919D01*
X57225Y-32234D01*
X57540Y-31919D01*
X57540Y-32060D01*
X57295Y-32305D01*
X57610Y-32620D01*
X57650Y-32608D01*
X57689Y-32620D01*
X58004Y-32305D01*
X58004Y-32446D01*
X57759Y-32690D01*
X57787Y-32786D01*
X57993Y-32859D01*
X58211Y-32848D01*
X58362Y-32786D01*
X58390Y-32690D01*
X58390Y-32925D01*
X57540Y-32925D01*
X57540Y-32690D01*
X57225Y-32375D01*
X57154Y-32446D01*
X57154Y-32305D01*
X56839Y-31989D01*
X56800Y-32001D01*
X56760Y-31989D01*
X56690Y-32060D01*
X56690Y-31919D01*
X56662Y-31823D01*
X56456Y-31750D01*
X56238Y-31761D01*
X56087Y-31823D01*
X56059Y-31919D01*
X56375Y-32234D01*
X56690Y-31919D01*
X56690Y-32060D01*
X56445Y-32305D01*
X56760Y-32620D01*
X56800Y-32608D01*
X56839Y-32620D01*
X57154Y-32305D01*
X57154Y-32446D01*
X56909Y-32690D01*
X56937Y-32786D01*
X57143Y-32859D01*
X57361Y-32848D01*
X57512Y-32786D01*
X57540Y-32690D01*
X57540Y-32925D01*
X56690Y-32925D01*
X56690Y-32690D01*
X56375Y-32375D01*
X56304Y-32446D01*
X56304Y-32305D01*
X55989Y-31989D01*
X55950Y-32001D01*
X55910Y-31989D01*
X55840Y-32060D01*
X55840Y-31919D01*
X55812Y-31823D01*
X55606Y-31750D01*
X55388Y-31761D01*
X55237Y-31823D01*
X55209Y-31919D01*
X55525Y-32234D01*
X55840Y-31919D01*
X55840Y-32060D01*
X55595Y-32305D01*
X55910Y-32620D01*
X55950Y-32608D01*
X55989Y-32620D01*
X56304Y-32305D01*
X56304Y-32446D01*
X56059Y-32690D01*
X56087Y-32786D01*
X56293Y-32859D01*
X56511Y-32848D01*
X56662Y-32786D01*
X56690Y-32690D01*
X56690Y-32925D01*
X55840Y-32925D01*
X55840Y-32690D01*
X55525Y-32375D01*
X55454Y-32446D01*
X55454Y-32305D01*
X55139Y-31989D01*
X55100Y-32001D01*
X55060Y-31989D01*
X54990Y-32060D01*
X54990Y-31919D01*
X54962Y-31823D01*
X54756Y-31750D01*
X54538Y-31761D01*
X54387Y-31823D01*
X54359Y-31919D01*
X54675Y-32234D01*
X54990Y-31919D01*
X54990Y-32060D01*
X54745Y-32305D01*
X55060Y-32620D01*
X55100Y-32608D01*
X55139Y-32620D01*
X55454Y-32305D01*
X55454Y-32446D01*
X55209Y-32690D01*
X55237Y-32786D01*
X55443Y-32859D01*
X55661Y-32848D01*
X55812Y-32786D01*
X55840Y-32690D01*
X55840Y-32925D01*
X54990Y-32925D01*
X54990Y-32690D01*
X54675Y-32375D01*
X54604Y-32446D01*
X54604Y-32305D01*
X54289Y-31989D01*
X54193Y-32017D01*
X54120Y-32223D01*
X54131Y-32441D01*
X54193Y-32592D01*
X54289Y-32620D01*
X54604Y-32305D01*
X54604Y-32446D01*
X54359Y-32690D01*
X54387Y-32786D01*
X54593Y-32859D01*
X54811Y-32848D01*
X54962Y-32786D01*
X54990Y-32690D01*
X54990Y-32925D01*
X54150Y-32925D01*
X54054Y-32944D01*
X53973Y-32998D01*
X53648Y-33323D01*
X53594Y-33404D01*
X53575Y-33500D01*
X53575Y-34500D01*
X53594Y-34595D01*
X53648Y-34676D01*
X54198Y-35226D01*
X54279Y-35280D01*
X54279Y-35280D01*
X54375Y-35300D01*
X55121Y-35300D01*
X55748Y-35926D01*
X55829Y-35980D01*
X55925Y-36000D01*
X56471Y-36000D01*
X56773Y-36301D01*
X56854Y-36355D01*
X56854Y-36355D01*
X56950Y-36375D01*
X57044Y-36375D01*
X57112Y-36442D01*
X57250Y-36499D01*
X57399Y-36500D01*
X57537Y-36443D01*
X57581Y-36398D01*
X57581Y-36618D01*
X57581Y-36718D01*
X57619Y-36809D01*
X57660Y-36850D01*
X57375Y-36850D01*
X57279Y-36869D01*
X57198Y-36923D01*
X56871Y-37250D01*
X55575Y-37250D01*
X55614Y-37154D01*
X55615Y-37005D01*
X55558Y-36867D01*
X55452Y-36762D01*
X55314Y-36705D01*
X55165Y-36704D01*
X55027Y-36761D01*
X54959Y-36830D01*
X54380Y-36830D01*
X54160Y-36830D01*
X54064Y-36849D01*
X53983Y-36903D01*
X53434Y-37451D01*
X53434Y-36339D01*
X53434Y-36126D01*
X53434Y-35901D01*
X53434Y-35688D01*
X53396Y-35596D01*
X53326Y-35526D01*
X53234Y-35488D01*
X53134Y-35488D01*
X52883Y-35488D01*
X52821Y-35551D01*
X52821Y-35964D01*
X53372Y-35964D01*
X53434Y-35901D01*
X53434Y-36126D01*
X53372Y-36064D01*
X52821Y-36064D01*
X52821Y-36477D01*
X52883Y-36539D01*
X53134Y-36539D01*
X53234Y-36539D01*
X53326Y-36501D01*
X53396Y-36431D01*
X53434Y-36339D01*
X53434Y-37451D01*
X53384Y-37501D01*
X53384Y-37470D01*
X53354Y-37396D01*
X53298Y-37340D01*
X53224Y-37310D01*
X53144Y-37310D01*
X52721Y-37310D01*
X52721Y-36477D01*
X52721Y-36064D01*
X52721Y-35964D01*
X52721Y-35551D01*
X52658Y-35488D01*
X52407Y-35488D01*
X52308Y-35488D01*
X52216Y-35526D01*
X52146Y-35596D01*
X52107Y-35688D01*
X52107Y-35901D01*
X52170Y-35964D01*
X52721Y-35964D01*
X52721Y-36064D01*
X52170Y-36064D01*
X52107Y-36126D01*
X52107Y-36339D01*
X52146Y-36431D01*
X52216Y-36501D01*
X52308Y-36539D01*
X52407Y-36539D01*
X52658Y-36539D01*
X52721Y-36477D01*
X52721Y-37310D01*
X52318Y-37310D01*
X52244Y-37340D01*
X52188Y-37396D01*
X52157Y-37470D01*
X52157Y-37550D01*
X52157Y-38101D01*
X52188Y-38174D01*
X52244Y-38230D01*
X52318Y-38261D01*
X52397Y-38261D01*
X52505Y-38261D01*
X51291Y-39475D01*
X50965Y-39475D01*
X50965Y-32985D01*
X50839Y-32680D01*
X50605Y-32446D01*
X50300Y-32320D01*
X49970Y-32319D01*
X49665Y-32445D01*
X49431Y-32679D01*
X49305Y-32984D01*
X49304Y-33314D01*
X49430Y-33619D01*
X49664Y-33853D01*
X49969Y-33979D01*
X50299Y-33980D01*
X50604Y-33854D01*
X50838Y-33620D01*
X50964Y-33315D01*
X50965Y-32985D01*
X50965Y-39475D01*
X49950Y-39475D01*
X49950Y-39385D01*
X49919Y-39311D01*
X49863Y-39255D01*
X49789Y-39225D01*
X49710Y-39225D01*
X49110Y-39225D01*
X49036Y-39255D01*
X48980Y-39311D01*
X48950Y-39385D01*
X48950Y-39464D01*
X48950Y-40064D01*
X48980Y-40138D01*
X49036Y-40194D01*
X49110Y-40225D01*
X49189Y-40225D01*
X49350Y-40225D01*
X49167Y-40300D01*
X49026Y-40441D01*
X48950Y-40625D01*
X48949Y-40824D01*
X49025Y-41007D01*
X49166Y-41148D01*
X49278Y-41195D01*
X49162Y-41243D01*
X49134Y-41339D01*
X49450Y-41654D01*
X49765Y-41339D01*
X49737Y-41243D01*
X49612Y-41198D01*
X49732Y-41149D01*
X49873Y-41008D01*
X49877Y-41000D01*
X51151Y-41000D01*
X51465Y-41313D01*
X51465Y-42540D01*
X51485Y-42645D01*
X51504Y-42673D01*
X51450Y-42727D01*
X51450Y-43090D01*
X51457Y-43090D01*
X51457Y-43190D01*
X51450Y-43190D01*
X51450Y-43552D01*
X51512Y-43615D01*
X51574Y-43615D01*
X51666Y-43576D01*
X51735Y-43508D01*
X51761Y-43534D01*
X51835Y-43565D01*
X51914Y-43565D01*
X52164Y-43565D01*
X52238Y-43534D01*
X52294Y-43478D01*
X52320Y-43415D01*
X52406Y-43415D01*
X52635Y-43644D01*
X52724Y-43704D01*
X52724Y-43704D01*
X52800Y-43719D01*
X52830Y-43725D01*
X52862Y-43725D01*
X52998Y-43725D01*
X53010Y-43730D01*
X53089Y-43730D01*
X53689Y-43730D01*
X53701Y-43725D01*
X53837Y-43725D01*
X53900Y-43725D01*
X55550Y-43725D01*
X55655Y-43704D01*
X55655Y-43704D01*
X55744Y-43644D01*
X55978Y-43410D01*
X56825Y-43410D01*
X56890Y-43410D01*
X56837Y-43431D01*
X56732Y-43537D01*
X56675Y-43675D01*
X56674Y-43824D01*
X56731Y-43962D01*
X56837Y-44067D01*
X56975Y-44124D01*
X57124Y-44125D01*
X57262Y-44068D01*
X57315Y-44015D01*
X57350Y-44015D01*
X57350Y-44039D01*
X57350Y-44199D01*
X57365Y-44237D01*
X57350Y-44275D01*
X57350Y-44354D01*
X57350Y-44514D01*
X57365Y-44552D01*
X57350Y-44590D01*
X57350Y-44669D01*
X57350Y-44829D01*
X57365Y-44867D01*
X57350Y-44905D01*
X57350Y-44984D01*
X57350Y-45144D01*
X57380Y-45218D01*
X57436Y-45274D01*
X57510Y-45305D01*
X57589Y-45305D01*
X58189Y-45305D01*
X58262Y-45275D01*
X58351Y-45275D01*
X58493Y-45416D01*
X58574Y-45470D01*
X58670Y-45490D01*
X59260Y-45490D01*
X59355Y-45471D01*
X58566Y-46260D01*
X57583Y-46260D01*
X57428Y-46104D01*
X57455Y-46039D01*
X57455Y-45960D01*
X57455Y-45360D01*
X57424Y-45286D01*
X57368Y-45230D01*
X57294Y-45200D01*
X57215Y-45200D01*
X57055Y-45200D01*
X57017Y-45215D01*
X56979Y-45200D01*
X56900Y-45200D01*
X56740Y-45200D01*
X56702Y-45215D01*
X56664Y-45200D01*
X56585Y-45200D01*
X56425Y-45200D01*
X56387Y-45215D01*
X56349Y-45200D01*
X56270Y-45200D01*
X56110Y-45200D01*
X56072Y-45215D01*
X56034Y-45200D01*
X55955Y-45200D01*
X55795Y-45200D01*
X55757Y-45215D01*
X55719Y-45200D01*
X55640Y-45200D01*
X55480Y-45200D01*
X55442Y-45215D01*
X55404Y-45200D01*
X55325Y-45200D01*
X55165Y-45200D01*
X55127Y-45215D01*
X55089Y-45200D01*
X55010Y-45200D01*
X54850Y-45200D01*
X54812Y-45215D01*
X54774Y-45200D01*
X54695Y-45200D01*
X54535Y-45200D01*
X54497Y-45215D01*
X54459Y-45200D01*
X54380Y-45200D01*
X54220Y-45200D01*
X54182Y-45215D01*
X54144Y-45200D01*
X54065Y-45200D01*
X53905Y-45200D01*
X53900Y-45202D01*
X53900Y-43894D01*
X53900Y-43867D01*
X53837Y-43805D01*
X53701Y-43805D01*
X53689Y-43800D01*
X53610Y-43800D01*
X53010Y-43800D01*
X52998Y-43805D01*
X52862Y-43805D01*
X52837Y-43830D01*
X52800Y-43830D01*
X51970Y-43830D01*
X51874Y-43849D01*
X51793Y-43903D01*
X51498Y-44198D01*
X51446Y-44275D01*
X51350Y-44275D01*
X51135Y-44275D01*
X51061Y-44305D01*
X51030Y-44336D01*
X51050Y-44289D01*
X51050Y-44210D01*
X51050Y-43960D01*
X51019Y-43886D01*
X50993Y-43860D01*
X51061Y-43791D01*
X51100Y-43699D01*
X51100Y-43637D01*
X51037Y-43575D01*
X51100Y-43575D01*
X51100Y-43543D01*
X51133Y-43576D01*
X51225Y-43615D01*
X51287Y-43615D01*
X51350Y-43552D01*
X51350Y-43190D01*
X51350Y-43090D01*
X51350Y-42727D01*
X51287Y-42665D01*
X51225Y-42665D01*
X51133Y-42703D01*
X51063Y-42773D01*
X51025Y-42865D01*
X51025Y-42964D01*
X51025Y-43027D01*
X51087Y-43090D01*
X51350Y-43090D01*
X51350Y-43190D01*
X51087Y-43190D01*
X51040Y-43236D01*
X50991Y-43188D01*
X50899Y-43150D01*
X50800Y-43150D01*
X50737Y-43150D01*
X50675Y-43212D01*
X50675Y-43475D01*
X50682Y-43475D01*
X50682Y-43575D01*
X50675Y-43575D01*
X50675Y-43582D01*
X50575Y-43582D01*
X50575Y-43575D01*
X50575Y-43475D01*
X50575Y-43212D01*
X50512Y-43150D01*
X50449Y-43150D01*
X50350Y-43150D01*
X50258Y-43188D01*
X50188Y-43258D01*
X50150Y-43350D01*
X50150Y-43412D01*
X50212Y-43475D01*
X50575Y-43475D01*
X50575Y-43575D01*
X50212Y-43575D01*
X50150Y-43637D01*
X50150Y-43699D01*
X50188Y-43791D01*
X50256Y-43860D01*
X50230Y-43886D01*
X50200Y-43960D01*
X50200Y-44039D01*
X50200Y-44289D01*
X50230Y-44363D01*
X50286Y-44419D01*
X50360Y-44450D01*
X50375Y-44450D01*
X50375Y-44600D01*
X50394Y-44695D01*
X50448Y-44776D01*
X50723Y-45051D01*
X50804Y-45105D01*
X50900Y-45125D01*
X50975Y-45125D01*
X50975Y-45314D01*
X51005Y-45388D01*
X51061Y-45444D01*
X51135Y-45475D01*
X51214Y-45475D01*
X52071Y-45475D01*
X51671Y-45875D01*
X51135Y-45875D01*
X51061Y-45905D01*
X51005Y-45961D01*
X50975Y-46035D01*
X50975Y-46114D01*
X50975Y-46914D01*
X51005Y-46988D01*
X51061Y-47044D01*
X51135Y-47075D01*
X51214Y-47075D01*
X52214Y-47075D01*
X52288Y-47044D01*
X52344Y-46988D01*
X52375Y-46914D01*
X52375Y-46835D01*
X52375Y-46725D01*
X52396Y-46725D01*
X52473Y-46801D01*
X52554Y-46855D01*
X52554Y-46855D01*
X52650Y-46875D01*
X52775Y-46875D01*
X52775Y-46889D01*
X52805Y-46963D01*
X52861Y-47019D01*
X52935Y-47050D01*
X53014Y-47050D01*
X53264Y-47050D01*
X53338Y-47019D01*
X53364Y-46993D01*
X53433Y-47061D01*
X53525Y-47100D01*
X53587Y-47100D01*
X53650Y-47037D01*
X53650Y-46675D01*
X53642Y-46675D01*
X53642Y-46575D01*
X53650Y-46575D01*
X53650Y-46212D01*
X53587Y-46150D01*
X53525Y-46150D01*
X53433Y-46188D01*
X53364Y-46256D01*
X53338Y-46230D01*
X53264Y-46200D01*
X53185Y-46200D01*
X52935Y-46200D01*
X52861Y-46230D01*
X52805Y-46286D01*
X52775Y-46360D01*
X52775Y-46375D01*
X52753Y-46375D01*
X52676Y-46298D01*
X52595Y-46244D01*
X52500Y-46225D01*
X52375Y-46225D01*
X52375Y-46035D01*
X52344Y-45961D01*
X52318Y-45935D01*
X52826Y-45426D01*
X52880Y-45345D01*
X52900Y-45250D01*
X52900Y-45237D01*
X52936Y-45274D01*
X53010Y-45305D01*
X53089Y-45305D01*
X53689Y-45305D01*
X53763Y-45274D01*
X53819Y-45218D01*
X53850Y-45144D01*
X53850Y-45065D01*
X53850Y-44905D01*
X53834Y-44867D01*
X53850Y-44829D01*
X53850Y-44750D01*
X53850Y-44590D01*
X53834Y-44552D01*
X53850Y-44514D01*
X53850Y-44435D01*
X53850Y-44275D01*
X53834Y-44237D01*
X53850Y-44199D01*
X53850Y-44120D01*
X53850Y-43998D01*
X53861Y-43986D01*
X53900Y-43894D01*
X53900Y-45202D01*
X53831Y-45230D01*
X53775Y-45286D01*
X53745Y-45360D01*
X53745Y-45439D01*
X53745Y-46039D01*
X53775Y-46113D01*
X53812Y-46150D01*
X53750Y-46212D01*
X53750Y-46575D01*
X54012Y-46575D01*
X54075Y-46512D01*
X54075Y-46449D01*
X54075Y-46350D01*
X54036Y-46258D01*
X53978Y-46200D01*
X53984Y-46200D01*
X54144Y-46200D01*
X54182Y-46184D01*
X54220Y-46200D01*
X54299Y-46200D01*
X54459Y-46200D01*
X54497Y-46184D01*
X54535Y-46200D01*
X54614Y-46200D01*
X54774Y-46200D01*
X54812Y-46184D01*
X54850Y-46200D01*
X54929Y-46200D01*
X55089Y-46200D01*
X55127Y-46184D01*
X55165Y-46200D01*
X55244Y-46200D01*
X55404Y-46200D01*
X55442Y-46184D01*
X55480Y-46200D01*
X55559Y-46200D01*
X55719Y-46200D01*
X55757Y-46184D01*
X55795Y-46200D01*
X55874Y-46200D01*
X56034Y-46200D01*
X56072Y-46184D01*
X56110Y-46200D01*
X56189Y-46200D01*
X56349Y-46200D01*
X56387Y-46184D01*
X56425Y-46200D01*
X56504Y-46200D01*
X56610Y-46200D01*
X56610Y-47635D01*
X56629Y-47730D01*
X56683Y-47811D01*
X57206Y-48335D01*
X56907Y-48211D01*
X56553Y-48210D01*
X56227Y-48345D01*
X55976Y-48595D01*
X55964Y-48625D01*
X55800Y-48625D01*
X55800Y-48610D01*
X55769Y-48536D01*
X55713Y-48480D01*
X55639Y-48450D01*
X55560Y-48450D01*
X55310Y-48450D01*
X55236Y-48480D01*
X55210Y-48506D01*
X55141Y-48438D01*
X55049Y-48400D01*
X54987Y-48400D01*
X54925Y-48462D01*
X54925Y-48825D01*
X54932Y-48825D01*
X54932Y-48925D01*
X54925Y-48925D01*
X54925Y-49187D01*
X54925Y-49287D01*
X54925Y-49550D01*
X54932Y-49550D01*
X54932Y-49650D01*
X54925Y-49650D01*
X54925Y-50012D01*
X54987Y-50075D01*
X55049Y-50075D01*
X55141Y-50036D01*
X55210Y-49968D01*
X55236Y-49994D01*
X55310Y-50025D01*
X55389Y-50025D01*
X55639Y-50025D01*
X55713Y-49994D01*
X55769Y-49938D01*
X55800Y-49864D01*
X55800Y-49785D01*
X55800Y-49335D01*
X55769Y-49261D01*
X55745Y-49237D01*
X55769Y-49213D01*
X55800Y-49139D01*
X55800Y-49125D01*
X55840Y-49125D01*
X55840Y-49276D01*
X55975Y-49602D01*
X56225Y-49853D01*
X56552Y-49988D01*
X56906Y-49989D01*
X57232Y-49854D01*
X57483Y-49604D01*
X57618Y-49277D01*
X57619Y-48923D01*
X57495Y-48623D01*
X58173Y-49301D01*
X58254Y-49355D01*
X58350Y-49375D01*
X58350Y-49375D01*
X58350Y-49375D01*
X60125Y-49375D01*
X60220Y-49355D01*
X60301Y-49301D01*
X60581Y-49022D01*
X60580Y-49276D01*
X60715Y-49602D01*
X60965Y-49853D01*
X61292Y-49988D01*
X61646Y-49989D01*
X61972Y-49854D01*
X62223Y-49604D01*
X62358Y-49277D01*
X62358Y-49194D01*
X62369Y-49245D01*
X62423Y-49326D01*
X62573Y-49476D01*
X62654Y-49530D01*
X62654Y-49530D01*
X62750Y-49550D01*
X62850Y-49550D01*
X62850Y-49634D01*
X62880Y-49708D01*
X62936Y-49764D01*
X63010Y-49795D01*
X63089Y-49795D01*
X63679Y-49795D01*
X63753Y-49764D01*
X63809Y-49708D01*
X63840Y-49634D01*
X63840Y-49555D01*
X63840Y-48965D01*
X63809Y-48891D01*
X63792Y-48875D01*
X63809Y-48858D01*
X63840Y-48784D01*
X63840Y-48705D01*
X63840Y-48115D01*
X63809Y-48041D01*
X63753Y-47985D01*
X63679Y-47955D01*
X63645Y-47955D01*
X63645Y-47845D01*
X63622Y-47730D01*
X63600Y-47698D01*
X63725Y-47749D01*
X63824Y-47750D01*
X63824Y-47799D01*
X63881Y-47937D01*
X63987Y-48042D01*
X64117Y-48096D01*
X64110Y-48115D01*
X64110Y-48194D01*
X64110Y-48784D01*
X64140Y-48858D01*
X64157Y-48875D01*
X64140Y-48891D01*
X64110Y-48965D01*
X64110Y-49044D01*
X64110Y-49634D01*
X64140Y-49708D01*
X64196Y-49764D01*
X64270Y-49795D01*
X64349Y-49795D01*
X64939Y-49795D01*
X65013Y-49764D01*
X65069Y-49708D01*
X65100Y-49634D01*
X65100Y-49555D01*
X65100Y-49542D01*
X65155Y-49530D01*
X65236Y-49476D01*
X65431Y-49282D01*
X65456Y-49282D01*
X65464Y-49290D01*
X65537Y-49321D01*
X65617Y-49321D01*
X65932Y-49321D01*
X66005Y-49290D01*
X66014Y-49281D01*
X66065Y-49333D01*
X66157Y-49371D01*
X66252Y-49371D01*
X66314Y-49308D01*
X66314Y-49076D01*
X66307Y-49076D01*
X66307Y-49001D01*
X66314Y-48993D01*
X66314Y-48988D01*
X66314Y-48761D01*
X66314Y-48756D01*
X66307Y-48748D01*
X66307Y-48673D01*
X66314Y-48673D01*
X66314Y-48441D01*
X66252Y-48378D01*
X66157Y-48378D01*
X66065Y-48416D01*
X66014Y-48468D01*
X66005Y-48459D01*
X65932Y-48428D01*
X65852Y-48428D01*
X65537Y-48428D01*
X65464Y-48459D01*
X65456Y-48467D01*
X65431Y-48467D01*
X65236Y-48273D01*
X65155Y-48219D01*
X65100Y-48207D01*
X65100Y-48115D01*
X65069Y-48041D01*
X65013Y-47985D01*
X64939Y-47955D01*
X64860Y-47955D01*
X64782Y-47955D01*
X64861Y-47901D01*
X64992Y-47770D01*
X65047Y-47689D01*
X65047Y-47689D01*
X65066Y-47593D01*
X65066Y-47477D01*
X65095Y-47548D01*
X65151Y-47604D01*
X65225Y-47635D01*
X65304Y-47635D01*
X65554Y-47635D01*
X65628Y-47604D01*
X65654Y-47578D01*
X65723Y-47646D01*
X65815Y-47685D01*
X65877Y-47685D01*
X65940Y-47622D01*
X65940Y-47260D01*
X65932Y-47260D01*
X65932Y-47160D01*
X65940Y-47160D01*
X65940Y-46797D01*
X65877Y-46735D01*
X65815Y-46735D01*
X65723Y-46773D01*
X65654Y-46841D01*
X65628Y-46815D01*
X65554Y-46785D01*
X65475Y-46785D01*
X65225Y-46785D01*
X65151Y-46815D01*
X65095Y-46871D01*
X65065Y-46945D01*
X65065Y-46954D01*
X65004Y-46954D01*
X64995Y-46934D01*
X64951Y-46890D01*
X64995Y-46845D01*
X65026Y-46772D01*
X65026Y-46692D01*
X65026Y-46377D01*
X64995Y-46304D01*
X64952Y-46261D01*
X64952Y-46228D01*
X64958Y-46229D01*
X65057Y-46209D01*
X65139Y-46154D01*
X65170Y-46154D01*
X65177Y-46154D01*
X65231Y-46287D01*
X65337Y-46392D01*
X65475Y-46449D01*
X65571Y-46450D01*
X65628Y-46506D01*
X65709Y-46560D01*
X65805Y-46580D01*
X66005Y-46580D01*
X66005Y-46594D01*
X66035Y-46668D01*
X66091Y-46724D01*
X66116Y-46735D01*
X66102Y-46735D01*
X66040Y-46797D01*
X66040Y-47160D01*
X66302Y-47160D01*
X66365Y-47097D01*
X66365Y-47034D01*
X66365Y-46935D01*
X66326Y-46843D01*
X66256Y-46773D01*
X66213Y-46755D01*
X66244Y-46755D01*
X66494Y-46755D01*
X66568Y-46724D01*
X66594Y-46698D01*
X66663Y-46766D01*
X66755Y-46805D01*
X66817Y-46805D01*
X66880Y-46742D01*
X66880Y-46380D01*
X66872Y-46380D01*
X66872Y-46280D01*
X66880Y-46280D01*
X66880Y-45917D01*
X66817Y-45855D01*
X66755Y-45855D01*
X66663Y-45893D01*
X66594Y-45961D01*
X66568Y-45935D01*
X66494Y-45905D01*
X66415Y-45905D01*
X66165Y-45905D01*
X66091Y-45935D01*
X66035Y-45991D01*
X66005Y-46065D01*
X66005Y-46080D01*
X65924Y-46080D01*
X65925Y-46000D01*
X65868Y-45862D01*
X65860Y-45855D01*
X66094Y-45855D01*
X66168Y-45824D01*
X66224Y-45768D01*
X66229Y-45755D01*
X66235Y-45768D01*
X66291Y-45824D01*
X66365Y-45855D01*
X66444Y-45855D01*
X66694Y-45855D01*
X66768Y-45824D01*
X66824Y-45768D01*
X66855Y-45694D01*
X66855Y-45680D01*
X66877Y-45680D01*
X66901Y-45704D01*
X66975Y-45735D01*
X67054Y-45735D01*
X67504Y-45735D01*
X67565Y-45710D01*
X69149Y-45710D01*
X69167Y-45727D01*
X69305Y-45784D01*
X69454Y-45785D01*
X69592Y-45728D01*
X69697Y-45622D01*
X69754Y-45484D01*
X69755Y-45335D01*
X69755Y-50225D01*
X68112Y-50225D01*
X67305Y-50220D01*
X67305Y-46604D01*
X67305Y-46505D01*
X67305Y-46442D01*
X67305Y-46217D01*
X67305Y-46154D01*
X67305Y-46055D01*
X67266Y-45963D01*
X67196Y-45893D01*
X67104Y-45855D01*
X67042Y-45855D01*
X66980Y-45917D01*
X66980Y-46280D01*
X67242Y-46280D01*
X67305Y-46217D01*
X67305Y-46442D01*
X67242Y-46380D01*
X66980Y-46380D01*
X66980Y-46742D01*
X67042Y-46805D01*
X67104Y-46805D01*
X67196Y-46766D01*
X67266Y-46696D01*
X67305Y-46604D01*
X67305Y-50220D01*
X66772Y-50216D01*
X66772Y-49170D01*
X66772Y-49139D01*
X66772Y-48925D01*
X66772Y-48894D01*
X66764Y-48875D01*
X66772Y-48855D01*
X66772Y-48824D01*
X66772Y-48610D01*
X66772Y-48579D01*
X66734Y-48487D01*
X66664Y-48416D01*
X66572Y-48378D01*
X66477Y-48378D01*
X66414Y-48441D01*
X66414Y-48673D01*
X66709Y-48673D01*
X66772Y-48610D01*
X66772Y-48824D01*
X66709Y-48761D01*
X66693Y-48761D01*
X66664Y-48731D01*
X66572Y-48693D01*
X66477Y-48693D01*
X66414Y-48756D01*
X66414Y-48761D01*
X66414Y-48988D01*
X66414Y-48993D01*
X66477Y-49056D01*
X66572Y-49056D01*
X66664Y-49018D01*
X66693Y-48988D01*
X66709Y-48988D01*
X66772Y-48925D01*
X66772Y-49139D01*
X66709Y-49076D01*
X66414Y-49076D01*
X66414Y-49308D01*
X66477Y-49371D01*
X66572Y-49371D01*
X66664Y-49333D01*
X66734Y-49262D01*
X66772Y-49170D01*
X66772Y-50216D01*
X66365Y-50214D01*
X66365Y-47484D01*
X66365Y-47385D01*
X66365Y-47322D01*
X66302Y-47260D01*
X66040Y-47260D01*
X66040Y-47622D01*
X66102Y-47685D01*
X66164Y-47685D01*
X66256Y-47646D01*
X66326Y-47576D01*
X66365Y-47484D01*
X66365Y-50214D01*
X54825Y-50143D01*
X54825Y-50012D01*
X54825Y-49650D01*
X54825Y-49550D01*
X54825Y-49287D01*
X54825Y-49187D01*
X54825Y-48925D01*
X54825Y-48825D01*
X54825Y-48462D01*
X54762Y-48400D01*
X54700Y-48400D01*
X54608Y-48438D01*
X54538Y-48508D01*
X54500Y-48600D01*
X54500Y-48699D01*
X54500Y-48762D01*
X54562Y-48825D01*
X54825Y-48825D01*
X54825Y-48925D01*
X54562Y-48925D01*
X54500Y-48987D01*
X54500Y-49050D01*
X54500Y-49149D01*
X54536Y-49237D01*
X54500Y-49325D01*
X54500Y-49424D01*
X54500Y-49487D01*
X54562Y-49550D01*
X54825Y-49550D01*
X54825Y-49650D01*
X54562Y-49650D01*
X54500Y-49712D01*
X54500Y-49775D01*
X54500Y-49874D01*
X54538Y-49966D01*
X54608Y-50036D01*
X54700Y-50075D01*
X54762Y-50075D01*
X54825Y-50012D01*
X54825Y-50143D01*
X54075Y-50139D01*
X54075Y-46899D01*
X54075Y-46800D01*
X54075Y-46737D01*
X54012Y-46675D01*
X53750Y-46675D01*
X53750Y-47037D01*
X53812Y-47100D01*
X53874Y-47100D01*
X53966Y-47061D01*
X54036Y-46991D01*
X54075Y-46899D01*
X54075Y-50139D01*
X50004Y-50114D01*
X50004Y-41806D01*
X49993Y-41588D01*
X49931Y-41437D01*
X49835Y-41409D01*
X49520Y-41725D01*
X49835Y-42040D01*
X49931Y-42012D01*
X50004Y-41806D01*
X50004Y-50114D01*
X49950Y-50114D01*
X49950Y-44625D01*
X49874Y-44442D01*
X49733Y-44301D01*
X49549Y-44225D01*
X49549Y-44225D01*
X49732Y-44149D01*
X49873Y-44008D01*
X49949Y-43824D01*
X49950Y-43625D01*
X49874Y-43442D01*
X49733Y-43301D01*
X49549Y-43225D01*
X49549Y-43225D01*
X49732Y-43149D01*
X49873Y-43008D01*
X49949Y-42824D01*
X49950Y-42625D01*
X49874Y-42442D01*
X49733Y-42301D01*
X49621Y-42254D01*
X49737Y-42206D01*
X49765Y-42110D01*
X49450Y-41795D01*
X49379Y-41866D01*
X49379Y-41725D01*
X49064Y-41409D01*
X48968Y-41437D01*
X48895Y-41643D01*
X48906Y-41861D01*
X48968Y-42012D01*
X49064Y-42040D01*
X49379Y-41725D01*
X49379Y-41866D01*
X49134Y-42110D01*
X49162Y-42206D01*
X49287Y-42251D01*
X49167Y-42300D01*
X49026Y-42441D01*
X48950Y-42625D01*
X48949Y-42824D01*
X49025Y-43007D01*
X49166Y-43148D01*
X49350Y-43224D01*
X49350Y-43224D01*
X49167Y-43300D01*
X49026Y-43441D01*
X48950Y-43625D01*
X48949Y-43824D01*
X49025Y-44007D01*
X49166Y-44148D01*
X49350Y-44224D01*
X49350Y-44224D01*
X49167Y-44300D01*
X49026Y-44441D01*
X48950Y-44625D01*
X48949Y-44824D01*
X49025Y-45007D01*
X49166Y-45148D01*
X49350Y-45224D01*
X49549Y-45225D01*
X49732Y-45149D01*
X49873Y-45008D01*
X49949Y-44824D01*
X49950Y-44625D01*
X49950Y-50114D01*
X48829Y-50107D01*
X48809Y-38261D01*
X48815Y-38261D01*
X49641Y-38261D01*
X49715Y-38230D01*
X49771Y-38174D01*
X49802Y-38101D01*
X49802Y-38021D01*
X49802Y-37470D01*
X49771Y-37396D01*
X49715Y-37340D01*
X49641Y-37310D01*
X49562Y-37310D01*
X48807Y-37310D01*
X48806Y-36489D01*
X48815Y-36489D01*
X49641Y-36489D01*
X49715Y-36459D01*
X49771Y-36403D01*
X49802Y-36329D01*
X49802Y-36249D01*
X49802Y-35698D01*
X49771Y-35625D01*
X49715Y-35569D01*
X49641Y-35538D01*
X49562Y-35538D01*
X48804Y-35538D01*
X48794Y-29209D01*
X69867Y-29258D01*
X69867Y-29258D01*
G37*
G54D30*
X69867Y-29258D02*
X69864Y-50225D01*
X69755Y-50225D01*
X69755Y-45335D01*
X69698Y-45197D01*
X69592Y-45092D01*
X69454Y-45035D01*
X69400Y-45035D01*
X69400Y-41974D01*
X69400Y-41912D01*
X69337Y-41850D01*
X68975Y-41850D01*
X68975Y-42112D01*
X69037Y-42175D01*
X69100Y-42175D01*
X69199Y-42175D01*
X69291Y-42136D01*
X69361Y-42066D01*
X69400Y-41974D01*
X69400Y-45035D01*
X69305Y-45034D01*
X69167Y-45091D01*
X69149Y-45110D01*
X68875Y-45110D01*
X67643Y-45110D01*
X67676Y-45076D01*
X67715Y-44984D01*
X67715Y-44922D01*
X67715Y-44697D01*
X67715Y-44635D01*
X67676Y-44543D01*
X67606Y-44473D01*
X67514Y-44435D01*
X67415Y-44435D01*
X67352Y-44435D01*
X67290Y-44497D01*
X67290Y-44760D01*
X67652Y-44760D01*
X67715Y-44697D01*
X67715Y-44922D01*
X67652Y-44860D01*
X67290Y-44860D01*
X67290Y-44867D01*
X67190Y-44867D01*
X67190Y-44860D01*
X67190Y-44760D01*
X67190Y-44497D01*
X67127Y-44435D01*
X67064Y-44435D01*
X66965Y-44435D01*
X66873Y-44473D01*
X66803Y-44543D01*
X66765Y-44635D01*
X66765Y-44697D01*
X66827Y-44760D01*
X67190Y-44760D01*
X67190Y-44860D01*
X66827Y-44860D01*
X66765Y-44922D01*
X66765Y-44984D01*
X66798Y-45065D01*
X66768Y-45035D01*
X66694Y-45005D01*
X66615Y-45005D01*
X66365Y-45005D01*
X66291Y-45035D01*
X66235Y-45091D01*
X66230Y-45104D01*
X66224Y-45091D01*
X66168Y-45035D01*
X66094Y-45005D01*
X66015Y-45005D01*
X65765Y-45005D01*
X65691Y-45035D01*
X65635Y-45091D01*
X65610Y-45152D01*
X65528Y-45152D01*
X65529Y-45147D01*
X65509Y-45047D01*
X65490Y-45019D01*
X65509Y-44990D01*
X65529Y-44891D01*
X65509Y-44792D01*
X65453Y-44707D01*
X65369Y-44651D01*
X65270Y-44632D01*
X65267Y-44632D01*
X65267Y-44595D01*
X65266Y-44595D01*
X65206Y-44595D01*
X65266Y-44546D01*
X65227Y-44431D01*
X65148Y-44340D01*
X65039Y-44286D01*
X65036Y-44286D01*
X64988Y-44341D01*
X64988Y-44595D01*
X65016Y-44595D01*
X65016Y-44667D01*
X64996Y-44681D01*
X64962Y-44681D01*
X64962Y-44579D01*
X64942Y-44480D01*
X64929Y-44461D01*
X64929Y-44341D01*
X64881Y-44286D01*
X64877Y-44286D01*
X64779Y-44335D01*
X64702Y-44320D01*
X64697Y-44321D01*
X64697Y-44317D01*
X64683Y-44249D01*
X64824Y-44250D01*
X64962Y-44193D01*
X65067Y-44087D01*
X65124Y-43949D01*
X65125Y-43800D01*
X65114Y-43775D01*
X66325Y-43775D01*
X66420Y-43755D01*
X66501Y-43701D01*
X68254Y-41949D01*
X68345Y-41930D01*
X68426Y-41876D01*
X68453Y-41850D01*
X68512Y-41850D01*
X68450Y-41912D01*
X68450Y-41974D01*
X68488Y-42066D01*
X68558Y-42136D01*
X68650Y-42175D01*
X68749Y-42175D01*
X68812Y-42175D01*
X68875Y-42112D01*
X68875Y-41850D01*
X68867Y-41850D01*
X68867Y-41750D01*
X68875Y-41750D01*
X68975Y-41750D01*
X69337Y-41750D01*
X69425Y-41750D01*
X69520Y-41730D01*
X69601Y-41676D01*
X69651Y-41626D01*
X69705Y-41545D01*
X69725Y-41450D01*
X69725Y-40925D01*
X69725Y-37500D01*
X69705Y-37404D01*
X69651Y-37323D01*
X69395Y-37066D01*
X69395Y-32985D01*
X69269Y-32680D01*
X69035Y-32446D01*
X68730Y-32320D01*
X68400Y-32319D01*
X68095Y-32445D01*
X67861Y-32679D01*
X67735Y-32984D01*
X67734Y-33314D01*
X67860Y-33619D01*
X68094Y-33853D01*
X68399Y-33979D01*
X68729Y-33980D01*
X69034Y-33854D01*
X69268Y-33620D01*
X69394Y-33315D01*
X69395Y-32985D01*
X69395Y-37066D01*
X69376Y-37048D01*
X69295Y-36994D01*
X69200Y-36975D01*
X69175Y-36975D01*
X69175Y-36819D01*
X69212Y-36781D01*
X69243Y-36708D01*
X69243Y-36628D01*
X69243Y-35841D01*
X69212Y-35767D01*
X69156Y-35711D01*
X69082Y-35680D01*
X69003Y-35680D01*
X68767Y-35680D01*
X68693Y-35711D01*
X68675Y-35729D01*
X68675Y-34850D01*
X68675Y-34850D01*
X68675Y-34850D01*
X68655Y-34754D01*
X68601Y-34673D01*
X67746Y-33818D01*
X67665Y-33764D01*
X67570Y-33745D01*
X64525Y-33745D01*
X64525Y-32205D01*
X64449Y-32022D01*
X64308Y-31881D01*
X64124Y-31805D01*
X63925Y-31804D01*
X63742Y-31880D01*
X63601Y-32021D01*
X63600Y-32024D01*
X63599Y-32022D01*
X63458Y-31881D01*
X63274Y-31805D01*
X63075Y-31804D01*
X62892Y-31880D01*
X62751Y-32021D01*
X62750Y-32024D01*
X62749Y-32022D01*
X62608Y-31881D01*
X62424Y-31805D01*
X62225Y-31804D01*
X62042Y-31880D01*
X61901Y-32021D01*
X61900Y-32024D01*
X61899Y-32022D01*
X61758Y-31881D01*
X61574Y-31805D01*
X61375Y-31804D01*
X61192Y-31880D01*
X61051Y-32021D01*
X61050Y-32024D01*
X61049Y-32022D01*
X60908Y-31881D01*
X60724Y-31805D01*
X60525Y-31804D01*
X60342Y-31880D01*
X60216Y-32005D01*
X60160Y-31989D01*
X60090Y-32060D01*
X60090Y-31919D01*
X60062Y-31823D01*
X59856Y-31750D01*
X59638Y-31761D01*
X59487Y-31823D01*
X59459Y-31919D01*
X59775Y-32234D01*
X60090Y-31919D01*
X60090Y-32060D01*
X59845Y-32305D01*
X60160Y-32620D01*
X60217Y-32604D01*
X60341Y-32728D01*
X60525Y-32804D01*
X60724Y-32805D01*
X60907Y-32729D01*
X61048Y-32588D01*
X61049Y-32585D01*
X61050Y-32587D01*
X61191Y-32728D01*
X61375Y-32804D01*
X61574Y-32805D01*
X61757Y-32729D01*
X61898Y-32588D01*
X61899Y-32585D01*
X61900Y-32587D01*
X62041Y-32728D01*
X62225Y-32804D01*
X62424Y-32805D01*
X62607Y-32729D01*
X62748Y-32588D01*
X62749Y-32585D01*
X62750Y-32587D01*
X62891Y-32728D01*
X63075Y-32804D01*
X63274Y-32805D01*
X63457Y-32729D01*
X63598Y-32588D01*
X63599Y-32585D01*
X63600Y-32587D01*
X63741Y-32728D01*
X63925Y-32804D01*
X64124Y-32805D01*
X64307Y-32729D01*
X64448Y-32588D01*
X64524Y-32404D01*
X64525Y-32205D01*
X64525Y-33745D01*
X64462Y-33745D01*
X64449Y-33712D01*
X64308Y-33571D01*
X64124Y-33495D01*
X63925Y-33494D01*
X63742Y-33570D01*
X63601Y-33711D01*
X63600Y-33714D01*
X63599Y-33712D01*
X63458Y-33571D01*
X63274Y-33495D01*
X63075Y-33494D01*
X62892Y-33570D01*
X62751Y-33711D01*
X62750Y-33714D01*
X62749Y-33712D01*
X62608Y-33571D01*
X62424Y-33495D01*
X62225Y-33494D01*
X62042Y-33570D01*
X61901Y-33711D01*
X61900Y-33714D01*
X61899Y-33712D01*
X61758Y-33571D01*
X61574Y-33495D01*
X61375Y-33494D01*
X61192Y-33570D01*
X61051Y-33711D01*
X61050Y-33714D01*
X61049Y-33712D01*
X60908Y-33571D01*
X60724Y-33495D01*
X60525Y-33494D01*
X60342Y-33570D01*
X60201Y-33711D01*
X60200Y-33714D01*
X60199Y-33712D01*
X60090Y-33603D01*
X60090Y-32690D01*
X59775Y-32375D01*
X59704Y-32446D01*
X59704Y-32305D01*
X59389Y-31989D01*
X59350Y-32001D01*
X59310Y-31989D01*
X59240Y-32060D01*
X59240Y-31919D01*
X59212Y-31823D01*
X59006Y-31750D01*
X58788Y-31761D01*
X58637Y-31823D01*
X58609Y-31919D01*
X58925Y-32234D01*
X59240Y-31919D01*
X59240Y-32060D01*
X58995Y-32305D01*
X59310Y-32620D01*
X59350Y-32608D01*
X59389Y-32620D01*
X59704Y-32305D01*
X59704Y-32446D01*
X59459Y-32690D01*
X59487Y-32786D01*
X59693Y-32859D01*
X59911Y-32848D01*
X60062Y-32786D01*
X60090Y-32690D01*
X60090Y-33603D01*
X60058Y-33571D01*
X59874Y-33495D01*
X59873Y-33495D01*
X59376Y-32998D01*
X59295Y-32944D01*
X59240Y-32932D01*
X59240Y-32690D01*
X58925Y-32375D01*
X58854Y-32446D01*
X58854Y-32305D01*
X58539Y-31989D01*
X58500Y-32001D01*
X58460Y-31989D01*
X58390Y-32060D01*
X58390Y-31919D01*
X58362Y-31823D01*
X58156Y-31750D01*
X57938Y-31761D01*
X57787Y-31823D01*
X57759Y-31919D01*
X58075Y-32234D01*
X58390Y-31919D01*
X58390Y-32060D01*
X58145Y-32305D01*
X58460Y-32620D01*
X58500Y-32608D01*
X58539Y-32620D01*
X58854Y-32305D01*
X58854Y-32446D01*
X58609Y-32690D01*
X58637Y-32786D01*
X58843Y-32859D01*
X59061Y-32848D01*
X59212Y-32786D01*
X59240Y-32690D01*
X59240Y-32932D01*
X59200Y-32925D01*
X58390Y-32925D01*
X58390Y-32690D01*
X58075Y-32375D01*
X58004Y-32446D01*
X58004Y-32305D01*
X57689Y-31989D01*
X57650Y-32001D01*
X57610Y-31989D01*
X57540Y-32060D01*
X57540Y-31919D01*
X57512Y-31823D01*
X57306Y-31750D01*
X57088Y-31761D01*
X56937Y-31823D01*
X56909Y-31919D01*
X57225Y-32234D01*
X57540Y-31919D01*
X57540Y-32060D01*
X57295Y-32305D01*
X57610Y-32620D01*
X57650Y-32608D01*
X57689Y-32620D01*
X58004Y-32305D01*
X58004Y-32446D01*
X57759Y-32690D01*
X57787Y-32786D01*
X57993Y-32859D01*
X58211Y-32848D01*
X58362Y-32786D01*
X58390Y-32690D01*
X58390Y-32925D01*
X57540Y-32925D01*
X57540Y-32690D01*
X57225Y-32375D01*
X57154Y-32446D01*
X57154Y-32305D01*
X56839Y-31989D01*
X56800Y-32001D01*
X56760Y-31989D01*
X56690Y-32060D01*
X56690Y-31919D01*
X56662Y-31823D01*
X56456Y-31750D01*
X56238Y-31761D01*
X56087Y-31823D01*
X56059Y-31919D01*
X56375Y-32234D01*
X56690Y-31919D01*
X56690Y-32060D01*
X56445Y-32305D01*
X56760Y-32620D01*
X56800Y-32608D01*
X56839Y-32620D01*
X57154Y-32305D01*
X57154Y-32446D01*
X56909Y-32690D01*
X56937Y-32786D01*
X57143Y-32859D01*
X57361Y-32848D01*
X57512Y-32786D01*
X57540Y-32690D01*
X57540Y-32925D01*
X56690Y-32925D01*
X56690Y-32690D01*
X56375Y-32375D01*
X56304Y-32446D01*
X56304Y-32305D01*
X55989Y-31989D01*
X55950Y-32001D01*
X55910Y-31989D01*
X55840Y-32060D01*
X55840Y-31919D01*
X55812Y-31823D01*
X55606Y-31750D01*
X55388Y-31761D01*
X55237Y-31823D01*
X55209Y-31919D01*
X55525Y-32234D01*
X55840Y-31919D01*
X55840Y-32060D01*
X55595Y-32305D01*
X55910Y-32620D01*
X55950Y-32608D01*
X55989Y-32620D01*
X56304Y-32305D01*
X56304Y-32446D01*
X56059Y-32690D01*
X56087Y-32786D01*
X56293Y-32859D01*
X56511Y-32848D01*
X56662Y-32786D01*
X56690Y-32690D01*
X56690Y-32925D01*
X55840Y-32925D01*
X55840Y-32690D01*
X55525Y-32375D01*
X55454Y-32446D01*
X55454Y-32305D01*
X55139Y-31989D01*
X55100Y-32001D01*
X55060Y-31989D01*
X54990Y-32060D01*
X54990Y-31919D01*
X54962Y-31823D01*
X54756Y-31750D01*
X54538Y-31761D01*
X54387Y-31823D01*
X54359Y-31919D01*
X54675Y-32234D01*
X54990Y-31919D01*
X54990Y-32060D01*
X54745Y-32305D01*
X55060Y-32620D01*
X55100Y-32608D01*
X55139Y-32620D01*
X55454Y-32305D01*
X55454Y-32446D01*
X55209Y-32690D01*
X55237Y-32786D01*
X55443Y-32859D01*
X55661Y-32848D01*
X55812Y-32786D01*
X55840Y-32690D01*
X55840Y-32925D01*
X54990Y-32925D01*
X54990Y-32690D01*
X54675Y-32375D01*
X54604Y-32446D01*
X54604Y-32305D01*
X54289Y-31989D01*
X54193Y-32017D01*
X54120Y-32223D01*
X54131Y-32441D01*
X54193Y-32592D01*
X54289Y-32620D01*
X54604Y-32305D01*
X54604Y-32446D01*
X54359Y-32690D01*
X54387Y-32786D01*
X54593Y-32859D01*
X54811Y-32848D01*
X54962Y-32786D01*
X54990Y-32690D01*
X54990Y-32925D01*
X54150Y-32925D01*
X54054Y-32944D01*
X53973Y-32998D01*
X53648Y-33323D01*
X53594Y-33404D01*
X53575Y-33500D01*
X53575Y-34500D01*
X53594Y-34595D01*
X53648Y-34676D01*
X54198Y-35226D01*
X54279Y-35280D01*
X54279Y-35280D01*
X54375Y-35300D01*
X55121Y-35300D01*
X55748Y-35926D01*
X55829Y-35980D01*
X55925Y-36000D01*
X56471Y-36000D01*
X56773Y-36301D01*
X56854Y-36355D01*
X56854Y-36355D01*
X56950Y-36375D01*
X57044Y-36375D01*
X57112Y-36442D01*
X57250Y-36499D01*
X57399Y-36500D01*
X57537Y-36443D01*
X57581Y-36398D01*
X57581Y-36618D01*
X57581Y-36718D01*
X57619Y-36809D01*
X57660Y-36850D01*
X57375Y-36850D01*
X57279Y-36869D01*
X57198Y-36923D01*
X56871Y-37250D01*
X55575Y-37250D01*
X55614Y-37154D01*
X55615Y-37005D01*
X55558Y-36867D01*
X55452Y-36762D01*
X55314Y-36705D01*
X55165Y-36704D01*
X55027Y-36761D01*
X54959Y-36830D01*
X54380Y-36830D01*
X54160Y-36830D01*
X54064Y-36849D01*
X53983Y-36903D01*
X53434Y-37451D01*
X53434Y-36339D01*
X53434Y-36126D01*
X53434Y-35901D01*
X53434Y-35688D01*
X53396Y-35596D01*
X53326Y-35526D01*
X53234Y-35488D01*
X53134Y-35488D01*
X52883Y-35488D01*
X52821Y-35551D01*
X52821Y-35964D01*
X53372Y-35964D01*
X53434Y-35901D01*
X53434Y-36126D01*
X53372Y-36064D01*
X52821Y-36064D01*
X52821Y-36477D01*
X52883Y-36539D01*
X53134Y-36539D01*
X53234Y-36539D01*
X53326Y-36501D01*
X53396Y-36431D01*
X53434Y-36339D01*
X53434Y-37451D01*
X53384Y-37501D01*
X53384Y-37470D01*
X53354Y-37396D01*
X53298Y-37340D01*
X53224Y-37310D01*
X53144Y-37310D01*
X52721Y-37310D01*
X52721Y-36477D01*
X52721Y-36064D01*
X52721Y-35964D01*
X52721Y-35551D01*
X52658Y-35488D01*
X52407Y-35488D01*
X52308Y-35488D01*
X52216Y-35526D01*
X52146Y-35596D01*
X52107Y-35688D01*
X52107Y-35901D01*
X52170Y-35964D01*
X52721Y-35964D01*
X52721Y-36064D01*
X52170Y-36064D01*
X52107Y-36126D01*
X52107Y-36339D01*
X52146Y-36431D01*
X52216Y-36501D01*
X52308Y-36539D01*
X52407Y-36539D01*
X52658Y-36539D01*
X52721Y-36477D01*
X52721Y-37310D01*
X52318Y-37310D01*
X52244Y-37340D01*
X52188Y-37396D01*
X52157Y-37470D01*
X52157Y-37550D01*
X52157Y-38101D01*
X52188Y-38174D01*
X52244Y-38230D01*
X52318Y-38261D01*
X52397Y-38261D01*
X52505Y-38261D01*
X51291Y-39475D01*
X50965Y-39475D01*
X50965Y-32985D01*
X50839Y-32680D01*
X50605Y-32446D01*
X50300Y-32320D01*
X49970Y-32319D01*
X49665Y-32445D01*
X49431Y-32679D01*
X49305Y-32984D01*
X49304Y-33314D01*
X49430Y-33619D01*
X49664Y-33853D01*
X49969Y-33979D01*
X50299Y-33980D01*
X50604Y-33854D01*
X50838Y-33620D01*
X50964Y-33315D01*
X50965Y-32985D01*
X50965Y-39475D01*
X49950Y-39475D01*
X49950Y-39385D01*
X49919Y-39311D01*
X49863Y-39255D01*
X49789Y-39225D01*
X49710Y-39225D01*
X49110Y-39225D01*
X49036Y-39255D01*
X48980Y-39311D01*
X48950Y-39385D01*
X48950Y-39464D01*
X48950Y-40064D01*
X48980Y-40138D01*
X49036Y-40194D01*
X49110Y-40225D01*
X49189Y-40225D01*
X49350Y-40225D01*
X49167Y-40300D01*
X49026Y-40441D01*
X48950Y-40625D01*
X48949Y-40824D01*
X49025Y-41007D01*
X49166Y-41148D01*
X49278Y-41195D01*
X49162Y-41243D01*
X49134Y-41339D01*
X49450Y-41654D01*
X49765Y-41339D01*
X49737Y-41243D01*
X49612Y-41198D01*
X49732Y-41149D01*
X49873Y-41008D01*
X49877Y-41000D01*
X51151Y-41000D01*
X51465Y-41313D01*
X51465Y-42540D01*
X51485Y-42645D01*
X51504Y-42673D01*
X51450Y-42727D01*
X51450Y-43090D01*
X51457Y-43090D01*
X51457Y-43190D01*
X51450Y-43190D01*
X51450Y-43552D01*
X51512Y-43615D01*
X51574Y-43615D01*
X51666Y-43576D01*
X51735Y-43508D01*
X51761Y-43534D01*
X51835Y-43565D01*
X51914Y-43565D01*
X52164Y-43565D01*
X52238Y-43534D01*
X52294Y-43478D01*
X52320Y-43415D01*
X52406Y-43415D01*
X52635Y-43644D01*
X52724Y-43704D01*
X52724Y-43704D01*
X52800Y-43719D01*
X52830Y-43725D01*
X52862Y-43725D01*
X52998Y-43725D01*
X53010Y-43730D01*
X53089Y-43730D01*
X53689Y-43730D01*
X53701Y-43725D01*
X53837Y-43725D01*
X53900Y-43725D01*
X55550Y-43725D01*
X55655Y-43704D01*
X55655Y-43704D01*
X55744Y-43644D01*
X55978Y-43410D01*
X56825Y-43410D01*
X56890Y-43410D01*
X56837Y-43431D01*
X56732Y-43537D01*
X56675Y-43675D01*
X56674Y-43824D01*
X56731Y-43962D01*
X56837Y-44067D01*
X56975Y-44124D01*
X57124Y-44125D01*
X57262Y-44068D01*
X57315Y-44015D01*
X57350Y-44015D01*
X57350Y-44039D01*
X57350Y-44199D01*
X57365Y-44237D01*
X57350Y-44275D01*
X57350Y-44354D01*
X57350Y-44514D01*
X57365Y-44552D01*
X57350Y-44590D01*
X57350Y-44669D01*
X57350Y-44829D01*
X57365Y-44867D01*
X57350Y-44905D01*
X57350Y-44984D01*
X57350Y-45144D01*
X57380Y-45218D01*
X57436Y-45274D01*
X57510Y-45305D01*
X57589Y-45305D01*
X58189Y-45305D01*
X58262Y-45275D01*
X58351Y-45275D01*
X58493Y-45416D01*
X58574Y-45470D01*
X58670Y-45490D01*
X59260Y-45490D01*
X59355Y-45471D01*
X58566Y-46260D01*
X57583Y-46260D01*
X57428Y-46104D01*
X57455Y-46039D01*
X57455Y-45960D01*
X57455Y-45360D01*
X57424Y-45286D01*
X57368Y-45230D01*
X57294Y-45200D01*
X57215Y-45200D01*
X57055Y-45200D01*
X57017Y-45215D01*
X56979Y-45200D01*
X56900Y-45200D01*
X56740Y-45200D01*
X56702Y-45215D01*
X56664Y-45200D01*
X56585Y-45200D01*
X56425Y-45200D01*
X56387Y-45215D01*
X56349Y-45200D01*
X56270Y-45200D01*
X56110Y-45200D01*
X56072Y-45215D01*
X56034Y-45200D01*
X55955Y-45200D01*
X55795Y-45200D01*
X55757Y-45215D01*
X55719Y-45200D01*
X55640Y-45200D01*
X55480Y-45200D01*
X55442Y-45215D01*
X55404Y-45200D01*
X55325Y-45200D01*
X55165Y-45200D01*
X55127Y-45215D01*
X55089Y-45200D01*
X55010Y-45200D01*
X54850Y-45200D01*
X54812Y-45215D01*
X54774Y-45200D01*
X54695Y-45200D01*
X54535Y-45200D01*
X54497Y-45215D01*
X54459Y-45200D01*
X54380Y-45200D01*
X54220Y-45200D01*
X54182Y-45215D01*
X54144Y-45200D01*
X54065Y-45200D01*
X53905Y-45200D01*
X53900Y-45202D01*
X53900Y-43894D01*
X53900Y-43867D01*
X53837Y-43805D01*
X53701Y-43805D01*
X53689Y-43800D01*
X53610Y-43800D01*
X53010Y-43800D01*
X52998Y-43805D01*
X52862Y-43805D01*
X52837Y-43830D01*
X52800Y-43830D01*
X51970Y-43830D01*
X51874Y-43849D01*
X51793Y-43903D01*
X51498Y-44198D01*
X51446Y-44275D01*
X51350Y-44275D01*
X51135Y-44275D01*
X51061Y-44305D01*
X51030Y-44336D01*
X51050Y-44289D01*
X51050Y-44210D01*
X51050Y-43960D01*
X51019Y-43886D01*
X50993Y-43860D01*
X51061Y-43791D01*
X51100Y-43699D01*
X51100Y-43637D01*
X51037Y-43575D01*
X51100Y-43575D01*
X51100Y-43543D01*
X51133Y-43576D01*
X51225Y-43615D01*
X51287Y-43615D01*
X51350Y-43552D01*
X51350Y-43190D01*
X51350Y-43090D01*
X51350Y-42727D01*
X51287Y-42665D01*
X51225Y-42665D01*
X51133Y-42703D01*
X51063Y-42773D01*
X51025Y-42865D01*
X51025Y-42964D01*
X51025Y-43027D01*
X51087Y-43090D01*
X51350Y-43090D01*
X51350Y-43190D01*
X51087Y-43190D01*
X51040Y-43236D01*
X50991Y-43188D01*
X50899Y-43150D01*
X50800Y-43150D01*
X50737Y-43150D01*
X50675Y-43212D01*
X50675Y-43475D01*
X50682Y-43475D01*
X50682Y-43575D01*
X50675Y-43575D01*
X50675Y-43582D01*
X50575Y-43582D01*
X50575Y-43575D01*
X50575Y-43475D01*
X50575Y-43212D01*
X50512Y-43150D01*
X50449Y-43150D01*
X50350Y-43150D01*
X50258Y-43188D01*
X50188Y-43258D01*
X50150Y-43350D01*
X50150Y-43412D01*
X50212Y-43475D01*
X50575Y-43475D01*
X50575Y-43575D01*
X50212Y-43575D01*
X50150Y-43637D01*
X50150Y-43699D01*
X50188Y-43791D01*
X50256Y-43860D01*
X50230Y-43886D01*
X50200Y-43960D01*
X50200Y-44039D01*
X50200Y-44289D01*
X50230Y-44363D01*
X50286Y-44419D01*
X50360Y-44450D01*
X50375Y-44450D01*
X50375Y-44600D01*
X50394Y-44695D01*
X50448Y-44776D01*
X50723Y-45051D01*
X50804Y-45105D01*
X50900Y-45125D01*
X50975Y-45125D01*
X50975Y-45314D01*
X51005Y-45388D01*
X51061Y-45444D01*
X51135Y-45475D01*
X51214Y-45475D01*
X52071Y-45475D01*
X51671Y-45875D01*
X51135Y-45875D01*
X51061Y-45905D01*
X51005Y-45961D01*
X50975Y-46035D01*
X50975Y-46114D01*
X50975Y-46914D01*
X51005Y-46988D01*
X51061Y-47044D01*
X51135Y-47075D01*
X51214Y-47075D01*
X52214Y-47075D01*
X52288Y-47044D01*
X52344Y-46988D01*
X52375Y-46914D01*
X52375Y-46835D01*
X52375Y-46725D01*
X52396Y-46725D01*
X52473Y-46801D01*
X52554Y-46855D01*
X52554Y-46855D01*
X52650Y-46875D01*
X52775Y-46875D01*
X52775Y-46889D01*
X52805Y-46963D01*
X52861Y-47019D01*
X52935Y-47050D01*
X53014Y-47050D01*
X53264Y-47050D01*
X53338Y-47019D01*
X53364Y-46993D01*
X53433Y-47061D01*
X53525Y-47100D01*
X53587Y-47100D01*
X53650Y-47037D01*
X53650Y-46675D01*
X53642Y-46675D01*
X53642Y-46575D01*
X53650Y-46575D01*
X53650Y-46212D01*
X53587Y-46150D01*
X53525Y-46150D01*
X53433Y-46188D01*
X53364Y-46256D01*
X53338Y-46230D01*
X53264Y-46200D01*
X53185Y-46200D01*
X52935Y-46200D01*
X52861Y-46230D01*
X52805Y-46286D01*
X52775Y-46360D01*
X52775Y-46375D01*
X52753Y-46375D01*
X52676Y-46298D01*
X52595Y-46244D01*
X52500Y-46225D01*
X52375Y-46225D01*
X52375Y-46035D01*
X52344Y-45961D01*
X52318Y-45935D01*
X52826Y-45426D01*
X52880Y-45345D01*
X52900Y-45250D01*
X52900Y-45237D01*
X52936Y-45274D01*
X53010Y-45305D01*
X53089Y-45305D01*
X53689Y-45305D01*
X53763Y-45274D01*
X53819Y-45218D01*
X53850Y-45144D01*
X53850Y-45065D01*
X53850Y-44905D01*
X53834Y-44867D01*
X53850Y-44829D01*
X53850Y-44750D01*
X53850Y-44590D01*
X53834Y-44552D01*
X53850Y-44514D01*
X53850Y-44435D01*
X53850Y-44275D01*
X53834Y-44237D01*
X53850Y-44199D01*
X53850Y-44120D01*
X53850Y-43998D01*
X53861Y-43986D01*
X53900Y-43894D01*
X53900Y-45202D01*
X53831Y-45230D01*
X53775Y-45286D01*
X53745Y-45360D01*
X53745Y-45439D01*
X53745Y-46039D01*
X53775Y-46113D01*
X53812Y-46150D01*
X53750Y-46212D01*
X53750Y-46575D01*
X54012Y-46575D01*
X54075Y-46512D01*
X54075Y-46449D01*
X54075Y-46350D01*
X54036Y-46258D01*
X53978Y-46200D01*
X53984Y-46200D01*
X54144Y-46200D01*
X54182Y-46184D01*
X54220Y-46200D01*
X54299Y-46200D01*
X54459Y-46200D01*
X54497Y-46184D01*
X54535Y-46200D01*
X54614Y-46200D01*
X54774Y-46200D01*
X54812Y-46184D01*
X54850Y-46200D01*
X54929Y-46200D01*
X55089Y-46200D01*
X55127Y-46184D01*
X55165Y-46200D01*
X55244Y-46200D01*
X55404Y-46200D01*
X55442Y-46184D01*
X55480Y-46200D01*
X55559Y-46200D01*
X55719Y-46200D01*
X55757Y-46184D01*
X55795Y-46200D01*
X55874Y-46200D01*
X56034Y-46200D01*
X56072Y-46184D01*
X56110Y-46200D01*
X56189Y-46200D01*
X56349Y-46200D01*
X56387Y-46184D01*
X56425Y-46200D01*
X56504Y-46200D01*
X56610Y-46200D01*
X56610Y-47635D01*
X56629Y-47730D01*
X56683Y-47811D01*
X57206Y-48335D01*
X56907Y-48211D01*
X56553Y-48210D01*
X56227Y-48345D01*
X55976Y-48595D01*
X55964Y-48625D01*
X55800Y-48625D01*
X55800Y-48610D01*
X55769Y-48536D01*
X55713Y-48480D01*
X55639Y-48450D01*
X55560Y-48450D01*
X55310Y-48450D01*
X55236Y-48480D01*
X55210Y-48506D01*
X55141Y-48438D01*
X55049Y-48400D01*
X54987Y-48400D01*
X54925Y-48462D01*
X54925Y-48825D01*
X54932Y-48825D01*
X54932Y-48925D01*
X54925Y-48925D01*
X54925Y-49187D01*
X54925Y-49287D01*
X54925Y-49550D01*
X54932Y-49550D01*
X54932Y-49650D01*
X54925Y-49650D01*
X54925Y-50012D01*
X54987Y-50075D01*
X55049Y-50075D01*
X55141Y-50036D01*
X55210Y-49968D01*
X55236Y-49994D01*
X55310Y-50025D01*
X55389Y-50025D01*
X55639Y-50025D01*
X55713Y-49994D01*
X55769Y-49938D01*
X55800Y-49864D01*
X55800Y-49785D01*
X55800Y-49335D01*
X55769Y-49261D01*
X55745Y-49237D01*
X55769Y-49213D01*
X55800Y-49139D01*
X55800Y-49125D01*
X55840Y-49125D01*
X55840Y-49276D01*
X55975Y-49602D01*
X56225Y-49853D01*
X56552Y-49988D01*
X56906Y-49989D01*
X57232Y-49854D01*
X57483Y-49604D01*
X57618Y-49277D01*
X57619Y-48923D01*
X57495Y-48623D01*
X58173Y-49301D01*
X58254Y-49355D01*
X58350Y-49375D01*
X58350Y-49375D01*
X58350Y-49375D01*
X60125Y-49375D01*
X60220Y-49355D01*
X60301Y-49301D01*
X60581Y-49022D01*
X60580Y-49276D01*
X60715Y-49602D01*
X60965Y-49853D01*
X61292Y-49988D01*
X61646Y-49989D01*
X61972Y-49854D01*
X62223Y-49604D01*
X62358Y-49277D01*
X62358Y-49194D01*
X62369Y-49245D01*
X62423Y-49326D01*
X62573Y-49476D01*
X62654Y-49530D01*
X62654Y-49530D01*
X62750Y-49550D01*
X62850Y-49550D01*
X62850Y-49634D01*
X62880Y-49708D01*
X62936Y-49764D01*
X63010Y-49795D01*
X63089Y-49795D01*
X63679Y-49795D01*
X63753Y-49764D01*
X63809Y-49708D01*
X63840Y-49634D01*
X63840Y-49555D01*
X63840Y-48965D01*
X63809Y-48891D01*
X63792Y-48875D01*
X63809Y-48858D01*
X63840Y-48784D01*
X63840Y-48705D01*
X63840Y-48115D01*
X63809Y-48041D01*
X63753Y-47985D01*
X63679Y-47955D01*
X63645Y-47955D01*
X63645Y-47845D01*
X63622Y-47730D01*
X63600Y-47698D01*
X63725Y-47749D01*
X63824Y-47750D01*
X63824Y-47799D01*
X63881Y-47937D01*
X63987Y-48042D01*
X64117Y-48096D01*
X64110Y-48115D01*
X64110Y-48194D01*
X64110Y-48784D01*
X64140Y-48858D01*
X64157Y-48875D01*
X64140Y-48891D01*
X64110Y-48965D01*
X64110Y-49044D01*
X64110Y-49634D01*
X64140Y-49708D01*
X64196Y-49764D01*
X64270Y-49795D01*
X64349Y-49795D01*
X64939Y-49795D01*
X65013Y-49764D01*
X65069Y-49708D01*
X65100Y-49634D01*
X65100Y-49555D01*
X65100Y-49542D01*
X65155Y-49530D01*
X65236Y-49476D01*
X65431Y-49282D01*
X65456Y-49282D01*
X65464Y-49290D01*
X65537Y-49321D01*
X65617Y-49321D01*
X65932Y-49321D01*
X66005Y-49290D01*
X66014Y-49281D01*
X66065Y-49333D01*
X66157Y-49371D01*
X66252Y-49371D01*
X66314Y-49308D01*
X66314Y-49076D01*
X66307Y-49076D01*
X66307Y-49001D01*
X66314Y-48993D01*
X66314Y-48988D01*
X66314Y-48761D01*
X66314Y-48756D01*
X66307Y-48748D01*
X66307Y-48673D01*
X66314Y-48673D01*
X66314Y-48441D01*
X66252Y-48378D01*
X66157Y-48378D01*
X66065Y-48416D01*
X66014Y-48468D01*
X66005Y-48459D01*
X65932Y-48428D01*
X65852Y-48428D01*
X65537Y-48428D01*
X65464Y-48459D01*
X65456Y-48467D01*
X65431Y-48467D01*
X65236Y-48273D01*
X65155Y-48219D01*
X65100Y-48207D01*
X65100Y-48115D01*
X65069Y-48041D01*
X65013Y-47985D01*
X64939Y-47955D01*
X64860Y-47955D01*
X64782Y-47955D01*
X64861Y-47901D01*
X64992Y-47770D01*
X65047Y-47689D01*
X65047Y-47689D01*
X65066Y-47593D01*
X65066Y-47477D01*
X65095Y-47548D01*
X65151Y-47604D01*
X65225Y-47635D01*
X65304Y-47635D01*
X65554Y-47635D01*
X65628Y-47604D01*
X65654Y-47578D01*
X65723Y-47646D01*
X65815Y-47685D01*
X65877Y-47685D01*
X65940Y-47622D01*
X65940Y-47260D01*
X65932Y-47260D01*
X65932Y-47160D01*
X65940Y-47160D01*
X65940Y-46797D01*
X65877Y-46735D01*
X65815Y-46735D01*
X65723Y-46773D01*
X65654Y-46841D01*
X65628Y-46815D01*
X65554Y-46785D01*
X65475Y-46785D01*
X65225Y-46785D01*
X65151Y-46815D01*
X65095Y-46871D01*
X65065Y-46945D01*
X65065Y-46954D01*
X65004Y-46954D01*
X64995Y-46934D01*
X64951Y-46890D01*
X64995Y-46845D01*
X65026Y-46772D01*
X65026Y-46692D01*
X65026Y-46377D01*
X64995Y-46304D01*
X64952Y-46261D01*
X64952Y-46228D01*
X64958Y-46229D01*
X65057Y-46209D01*
X65139Y-46154D01*
X65170Y-46154D01*
X65177Y-46154D01*
X65231Y-46287D01*
X65337Y-46392D01*
X65475Y-46449D01*
X65571Y-46450D01*
X65628Y-46506D01*
X65709Y-46560D01*
X65805Y-46580D01*
X66005Y-46580D01*
X66005Y-46594D01*
X66035Y-46668D01*
X66091Y-46724D01*
X66116Y-46735D01*
X66102Y-46735D01*
X66040Y-46797D01*
X66040Y-47160D01*
X66302Y-47160D01*
X66365Y-47097D01*
X66365Y-47034D01*
X66365Y-46935D01*
X66326Y-46843D01*
X66256Y-46773D01*
X66213Y-46755D01*
X66244Y-46755D01*
X66494Y-46755D01*
X66568Y-46724D01*
X66594Y-46698D01*
X66663Y-46766D01*
X66755Y-46805D01*
X66817Y-46805D01*
X66880Y-46742D01*
X66880Y-46380D01*
X66872Y-46380D01*
X66872Y-46280D01*
X66880Y-46280D01*
X66880Y-45917D01*
X66817Y-45855D01*
X66755Y-45855D01*
X66663Y-45893D01*
X66594Y-45961D01*
X66568Y-45935D01*
X66494Y-45905D01*
X66415Y-45905D01*
X66165Y-45905D01*
X66091Y-45935D01*
X66035Y-45991D01*
X66005Y-46065D01*
X66005Y-46080D01*
X65924Y-46080D01*
X65925Y-46000D01*
X65868Y-45862D01*
X65860Y-45855D01*
X66094Y-45855D01*
X66168Y-45824D01*
X66224Y-45768D01*
X66229Y-45755D01*
X66235Y-45768D01*
X66291Y-45824D01*
X66365Y-45855D01*
X66444Y-45855D01*
X66694Y-45855D01*
X66768Y-45824D01*
X66824Y-45768D01*
X66855Y-45694D01*
X66855Y-45680D01*
X66877Y-45680D01*
X66901Y-45704D01*
X66975Y-45735D01*
X67054Y-45735D01*
X67504Y-45735D01*
X67565Y-45710D01*
X69149Y-45710D01*
X69167Y-45727D01*
X69305Y-45784D01*
X69454Y-45785D01*
X69592Y-45728D01*
X69697Y-45622D01*
X69754Y-45484D01*
X69755Y-45335D01*
X69755Y-50225D01*
X68112Y-50225D01*
X67305Y-50220D01*
X67305Y-46604D01*
X67305Y-46505D01*
X67305Y-46442D01*
X67305Y-46217D01*
X67305Y-46154D01*
X67305Y-46055D01*
X67266Y-45963D01*
X67196Y-45893D01*
X67104Y-45855D01*
X67042Y-45855D01*
X66980Y-45917D01*
X66980Y-46280D01*
X67242Y-46280D01*
X67305Y-46217D01*
X67305Y-46442D01*
X67242Y-46380D01*
X66980Y-46380D01*
X66980Y-46742D01*
X67042Y-46805D01*
X67104Y-46805D01*
X67196Y-46766D01*
X67266Y-46696D01*
X67305Y-46604D01*
X67305Y-50220D01*
X66772Y-50216D01*
X66772Y-49170D01*
X66772Y-49139D01*
X66772Y-48925D01*
X66772Y-48894D01*
X66764Y-48875D01*
X66772Y-48855D01*
X66772Y-48824D01*
X66772Y-48610D01*
X66772Y-48579D01*
X66734Y-48487D01*
X66664Y-48416D01*
X66572Y-48378D01*
X66477Y-48378D01*
X66414Y-48441D01*
X66414Y-48673D01*
X66709Y-48673D01*
X66772Y-48610D01*
X66772Y-48824D01*
X66709Y-48761D01*
X66693Y-48761D01*
X66664Y-48731D01*
X66572Y-48693D01*
X66477Y-48693D01*
X66414Y-48756D01*
X66414Y-48761D01*
X66414Y-48988D01*
X66414Y-48993D01*
X66477Y-49056D01*
X66572Y-49056D01*
X66664Y-49018D01*
X66693Y-48988D01*
X66709Y-48988D01*
X66772Y-48925D01*
X66772Y-49139D01*
X66709Y-49076D01*
X66414Y-49076D01*
X66414Y-49308D01*
X66477Y-49371D01*
X66572Y-49371D01*
X66664Y-49333D01*
X66734Y-49262D01*
X66772Y-49170D01*
X66772Y-50216D01*
X66365Y-50214D01*
X66365Y-47484D01*
X66365Y-47385D01*
X66365Y-47322D01*
X66302Y-47260D01*
X66040Y-47260D01*
X66040Y-47622D01*
X66102Y-47685D01*
X66164Y-47685D01*
X66256Y-47646D01*
X66326Y-47576D01*
X66365Y-47484D01*
X66365Y-50214D01*
X54825Y-50143D01*
X54825Y-50012D01*
X54825Y-49650D01*
X54825Y-49550D01*
X54825Y-49287D01*
X54825Y-49187D01*
X54825Y-48925D01*
X54825Y-48825D01*
X54825Y-48462D01*
X54762Y-48400D01*
X54700Y-48400D01*
X54608Y-48438D01*
X54538Y-48508D01*
X54500Y-48600D01*
X54500Y-48699D01*
X54500Y-48762D01*
X54562Y-48825D01*
X54825Y-48825D01*
X54825Y-48925D01*
X54562Y-48925D01*
X54500Y-48987D01*
X54500Y-49050D01*
X54500Y-49149D01*
X54536Y-49237D01*
X54500Y-49325D01*
X54500Y-49424D01*
X54500Y-49487D01*
X54562Y-49550D01*
X54825Y-49550D01*
X54825Y-49650D01*
X54562Y-49650D01*
X54500Y-49712D01*
X54500Y-49775D01*
X54500Y-49874D01*
X54538Y-49966D01*
X54608Y-50036D01*
X54700Y-50075D01*
X54762Y-50075D01*
X54825Y-50012D01*
X54825Y-50143D01*
X54075Y-50139D01*
X54075Y-46899D01*
X54075Y-46800D01*
X54075Y-46737D01*
X54012Y-46675D01*
X53750Y-46675D01*
X53750Y-47037D01*
X53812Y-47100D01*
X53874Y-47100D01*
X53966Y-47061D01*
X54036Y-46991D01*
X54075Y-46899D01*
X54075Y-50139D01*
X50004Y-50114D01*
X50004Y-41806D01*
X49993Y-41588D01*
X49931Y-41437D01*
X49835Y-41409D01*
X49520Y-41725D01*
X49835Y-42040D01*
X49931Y-42012D01*
X50004Y-41806D01*
X50004Y-50114D01*
X49950Y-50114D01*
X49950Y-44625D01*
X49874Y-44442D01*
X49733Y-44301D01*
X49549Y-44225D01*
X49549Y-44225D01*
X49732Y-44149D01*
X49873Y-44008D01*
X49949Y-43824D01*
X49950Y-43625D01*
X49874Y-43442D01*
X49733Y-43301D01*
X49549Y-43225D01*
X49549Y-43225D01*
X49732Y-43149D01*
X49873Y-43008D01*
X49949Y-42824D01*
X49950Y-42625D01*
X49874Y-42442D01*
X49733Y-42301D01*
X49621Y-42254D01*
X49737Y-42206D01*
X49765Y-42110D01*
X49450Y-41795D01*
X49379Y-41866D01*
X49379Y-41725D01*
X49064Y-41409D01*
X48968Y-41437D01*
X48895Y-41643D01*
X48906Y-41861D01*
X48968Y-42012D01*
X49064Y-42040D01*
X49379Y-41725D01*
X49379Y-41866D01*
X49134Y-42110D01*
X49162Y-42206D01*
X49287Y-42251D01*
X49167Y-42300D01*
X49026Y-42441D01*
X48950Y-42625D01*
X48949Y-42824D01*
X49025Y-43007D01*
X49166Y-43148D01*
X49350Y-43224D01*
X49350Y-43224D01*
X49167Y-43300D01*
X49026Y-43441D01*
X48950Y-43625D01*
X48949Y-43824D01*
X49025Y-44007D01*
X49166Y-44148D01*
X49350Y-44224D01*
X49350Y-44224D01*
X49167Y-44300D01*
X49026Y-44441D01*
X48950Y-44625D01*
X48949Y-44824D01*
X49025Y-45007D01*
X49166Y-45148D01*
X49350Y-45224D01*
X49549Y-45225D01*
X49732Y-45149D01*
X49873Y-45008D01*
X49949Y-44824D01*
X49950Y-44625D01*
X49950Y-50114D01*
X48829Y-50107D01*
X48809Y-38261D01*
X48815Y-38261D01*
X49641Y-38261D01*
X49715Y-38230D01*
X49771Y-38174D01*
X49802Y-38101D01*
X49802Y-38021D01*
X49802Y-37470D01*
X49771Y-37396D01*
X49715Y-37340D01*
X49641Y-37310D01*
X49562Y-37310D01*
X48807Y-37310D01*
X48806Y-36489D01*
X48815Y-36489D01*
X49641Y-36489D01*
X49715Y-36459D01*
X49771Y-36403D01*
X49802Y-36329D01*
X49802Y-36249D01*
X49802Y-35698D01*
X49771Y-35625D01*
X49715Y-35569D01*
X49641Y-35538D01*
X49562Y-35538D01*
X48804Y-35538D01*
X48794Y-29209D01*
X69867Y-29258D01*
M02*
