%FSLAX34Y34*%
G04 Gerber Fmt 3.4, Leading zero omitted, Abs format*
G04 (created by PCBNEW (2013-11-28 BZR 4510)-product) date Thu 15 May 2014 01:53:52 PM EDT*
%MOIN*%
G01*
G70*
G90*
G04 APERTURE LIST*
%ADD10C,0.005906*%
%ADD11C,0.059100*%
%ADD12C,0.137800*%
%ADD13C,0.060000*%
%ADD14C,0.126000*%
%ADD15R,0.060000X0.060000*%
%ADD16C,0.035000*%
%ADD17C,0.010000*%
%ADD18C,0.025000*%
%ADD19C,0.020000*%
%ADD20C,0.015000*%
G04 APERTURE END LIST*
G54D10*
G54D11*
X58610Y-48030D03*
X59590Y-48030D03*
X59590Y-47240D03*
X58610Y-47240D03*
G54D12*
X56730Y-49100D03*
X61470Y-49100D03*
G54D13*
X59775Y-33995D03*
X60625Y-33995D03*
X58075Y-33995D03*
X58925Y-33995D03*
X59775Y-32305D03*
X58925Y-32305D03*
X58075Y-32305D03*
X60625Y-32305D03*
X57225Y-33995D03*
X56375Y-33995D03*
X55525Y-33995D03*
X54675Y-33995D03*
X57225Y-32305D03*
X56375Y-32305D03*
X55525Y-32305D03*
X54675Y-32305D03*
X61475Y-33995D03*
X62325Y-33995D03*
X63175Y-33995D03*
X64025Y-33995D03*
X61475Y-32305D03*
X62325Y-32305D03*
X63175Y-32305D03*
X64025Y-32305D03*
G54D14*
X68565Y-33150D03*
X50135Y-33150D03*
G54D15*
X49450Y-39725D03*
G54D13*
X49450Y-40725D03*
X49450Y-41725D03*
X49450Y-42725D03*
X49450Y-43725D03*
X49450Y-44725D03*
G54D16*
X63246Y-44758D03*
X65550Y-46075D03*
X58475Y-39075D03*
X58975Y-44800D03*
X62662Y-46666D03*
X63238Y-45508D03*
X67396Y-45932D03*
X68860Y-42440D03*
X51580Y-36220D03*
X55640Y-44140D03*
X62175Y-40900D03*
X63950Y-36225D03*
X56400Y-42350D03*
X55600Y-42350D03*
X56494Y-46534D03*
X57240Y-46540D03*
X56725Y-34675D03*
X60575Y-35450D03*
X57325Y-36125D03*
X66975Y-35075D03*
X66375Y-35125D03*
X65725Y-35150D03*
X65075Y-35175D03*
X61000Y-34525D03*
X57500Y-34950D03*
X61500Y-34900D03*
X61325Y-35350D03*
X56150Y-35325D03*
X64000Y-35425D03*
X63800Y-47375D03*
X64200Y-47725D03*
X55060Y-42120D03*
X55240Y-37080D03*
X64750Y-43875D03*
X64425Y-39000D03*
X66630Y-46848D03*
X65732Y-44824D03*
X57050Y-43750D03*
X63900Y-36850D03*
X66664Y-47322D03*
X63766Y-46076D03*
X69380Y-45410D03*
X68970Y-38630D03*
X59925Y-43175D03*
X56600Y-39725D03*
X56900Y-42650D03*
X60600Y-37500D03*
G54D17*
X65550Y-46075D02*
X64735Y-46075D01*
X64735Y-46075D02*
X63246Y-44758D01*
X65025Y-46075D02*
X65550Y-46075D01*
X58475Y-44450D02*
X58475Y-44550D01*
X58475Y-44250D02*
X58475Y-39075D01*
X58475Y-44250D02*
X58475Y-44450D01*
X58725Y-44800D02*
X58975Y-44800D01*
X58475Y-44550D02*
X58725Y-44800D01*
X63950Y-36225D02*
X63950Y-36250D01*
X56400Y-42350D02*
X56375Y-42350D01*
X49450Y-43725D02*
X49450Y-43725D01*
X55000Y-43725D02*
X49450Y-43725D01*
X56375Y-42350D02*
X55000Y-43725D01*
X50075Y-43225D02*
X49950Y-43225D01*
X55600Y-42400D02*
X54775Y-43225D01*
X54775Y-43225D02*
X50075Y-43225D01*
X55600Y-42350D02*
X55600Y-42400D01*
X49950Y-43225D02*
X49450Y-42725D01*
X56494Y-46534D02*
X56500Y-46540D01*
X56500Y-46540D02*
X57240Y-46540D01*
X56180Y-34650D02*
X55525Y-33995D01*
X56700Y-34650D02*
X56180Y-34650D01*
X56725Y-34675D02*
X56700Y-34650D01*
X59800Y-36225D02*
X60575Y-35450D01*
X57425Y-36225D02*
X59800Y-36225D01*
X57325Y-36125D02*
X57425Y-36225D01*
X64025Y-32305D02*
X64025Y-32450D01*
X64725Y-32825D02*
X66975Y-35075D01*
X64400Y-32825D02*
X64725Y-32825D01*
X64025Y-32450D02*
X64400Y-32825D01*
X63175Y-32305D02*
X63175Y-32925D01*
X66375Y-34800D02*
X66375Y-35125D01*
X64649Y-33074D02*
X66375Y-34800D01*
X63324Y-33074D02*
X64649Y-33074D01*
X63175Y-32925D02*
X63324Y-33074D01*
X62325Y-32305D02*
X62325Y-33075D01*
X65725Y-34500D02*
X65725Y-35150D01*
X64500Y-33275D02*
X65725Y-34500D01*
X62525Y-33275D02*
X64500Y-33275D01*
X62325Y-33075D02*
X62525Y-33275D01*
X61475Y-32305D02*
X61475Y-33200D01*
X65075Y-34150D02*
X65075Y-35175D01*
X64425Y-33500D02*
X65075Y-34150D01*
X61775Y-33500D02*
X64425Y-33500D01*
X61475Y-33200D02*
X61775Y-33500D01*
X57225Y-34350D02*
X57225Y-33995D01*
X57425Y-34550D02*
X57225Y-34350D01*
X60975Y-34550D02*
X57425Y-34550D01*
X61000Y-34525D02*
X60975Y-34550D01*
X57650Y-34800D02*
X57500Y-34950D01*
X60725Y-34800D02*
X57650Y-34800D01*
X60800Y-34875D02*
X60725Y-34800D01*
X61475Y-34875D02*
X60800Y-34875D01*
X61500Y-34900D02*
X61475Y-34875D01*
X61075Y-35100D02*
X61325Y-35350D01*
X57850Y-35100D02*
X61075Y-35100D01*
X57550Y-35400D02*
X57850Y-35100D01*
X56225Y-35400D02*
X57550Y-35400D01*
X56150Y-35325D02*
X56225Y-35400D01*
X60625Y-31775D02*
X60625Y-32305D01*
X60950Y-31450D02*
X60625Y-31775D01*
X64375Y-31450D02*
X60950Y-31450D01*
X67475Y-34550D02*
X64375Y-31450D01*
X67475Y-35325D02*
X67475Y-34550D01*
X67225Y-35575D02*
X67475Y-35325D01*
X64150Y-35575D02*
X67225Y-35575D01*
X64000Y-35425D02*
X64150Y-35575D01*
X58610Y-48085D02*
X59125Y-48600D01*
X59125Y-48600D02*
X59850Y-48600D01*
X59850Y-48600D02*
X61075Y-47375D01*
X61075Y-47375D02*
X63800Y-47375D01*
X58610Y-48030D02*
X58610Y-48085D01*
X58610Y-47240D02*
X58485Y-47240D01*
X61050Y-47725D02*
X64200Y-47725D01*
X59950Y-48824D02*
X61050Y-47725D01*
X58699Y-48824D02*
X59950Y-48824D01*
X58100Y-48225D02*
X58699Y-48824D01*
X58100Y-47625D02*
X58100Y-48225D01*
X58485Y-47240D02*
X58100Y-47625D01*
G54D18*
X61470Y-49100D02*
X56730Y-49100D01*
G54D17*
X55080Y-42120D02*
X55060Y-42120D01*
X55240Y-41960D02*
X55080Y-42120D01*
X55240Y-37080D02*
X55240Y-41960D01*
X64425Y-43550D02*
X64750Y-43875D01*
X64425Y-39000D02*
X64425Y-43550D01*
X66148Y-46848D02*
X66630Y-46848D01*
X65968Y-46668D02*
X66148Y-46848D01*
X65968Y-45060D02*
X65968Y-46668D01*
X65732Y-44824D02*
X65968Y-45060D01*
X58925Y-37075D02*
X58425Y-37075D01*
X58425Y-37075D02*
X58025Y-37475D01*
X58025Y-37475D02*
X58025Y-42775D01*
X58025Y-42775D02*
X57050Y-43750D01*
X63675Y-37075D02*
X58925Y-37075D01*
X63900Y-36850D02*
X63675Y-37075D01*
X65012Y-47322D02*
X66664Y-47322D01*
X63766Y-46076D02*
X65012Y-47322D01*
G54D19*
X69440Y-45410D02*
X69380Y-45410D01*
X69770Y-45080D02*
X69440Y-45410D01*
X69770Y-39430D02*
X69770Y-45080D01*
X68970Y-38630D02*
X69770Y-39430D01*
G54D20*
X56825Y-39950D02*
X56600Y-39725D01*
X56825Y-42575D02*
X56825Y-39950D01*
X56900Y-42650D02*
X56825Y-42575D01*
G54D19*
X59925Y-42875D02*
X59925Y-38175D01*
X59925Y-42875D02*
X59925Y-43175D01*
X59925Y-38175D02*
X60600Y-37500D01*
X59925Y-43175D02*
X59925Y-44250D01*
X59925Y-44250D02*
X60125Y-44450D01*
X60125Y-44450D02*
X60125Y-45325D01*
X60125Y-45325D02*
X59590Y-45860D01*
X59590Y-45860D02*
X59590Y-47240D01*
G54D10*
G36*
X69850Y-50175D02*
X67775Y-50175D01*
X67775Y-35325D01*
X67775Y-34550D01*
X67752Y-34435D01*
X67752Y-34435D01*
X67687Y-34337D01*
X64587Y-31237D01*
X64489Y-31172D01*
X64375Y-31150D01*
X60950Y-31150D01*
X60835Y-31172D01*
X60737Y-31237D01*
X60412Y-31562D01*
X60347Y-31660D01*
X60325Y-31775D01*
X60325Y-31833D01*
X60313Y-31838D01*
X60161Y-31990D01*
X60160Y-31989D01*
X60090Y-32060D01*
X60090Y-31919D01*
X60062Y-31823D01*
X59856Y-31750D01*
X59638Y-31761D01*
X59487Y-31823D01*
X59459Y-31919D01*
X59775Y-32234D01*
X60090Y-31919D01*
X60090Y-32060D01*
X59845Y-32305D01*
X60160Y-32620D01*
X60162Y-32619D01*
X60313Y-32770D01*
X60515Y-32854D01*
X60733Y-32855D01*
X60936Y-32771D01*
X61050Y-32657D01*
X61163Y-32770D01*
X61175Y-32775D01*
X61175Y-33200D01*
X61197Y-33314D01*
X61262Y-33412D01*
X61316Y-33465D01*
X61163Y-33528D01*
X61049Y-33642D01*
X60936Y-33529D01*
X60734Y-33445D01*
X60516Y-33444D01*
X60313Y-33528D01*
X60199Y-33642D01*
X60090Y-33532D01*
X60090Y-32690D01*
X59775Y-32375D01*
X59704Y-32446D01*
X59704Y-32305D01*
X59389Y-31989D01*
X59350Y-32001D01*
X59310Y-31989D01*
X59240Y-32060D01*
X59240Y-31919D01*
X59212Y-31823D01*
X59006Y-31750D01*
X58788Y-31761D01*
X58637Y-31823D01*
X58609Y-31919D01*
X58925Y-32234D01*
X59240Y-31919D01*
X59240Y-32060D01*
X58995Y-32305D01*
X59310Y-32620D01*
X59350Y-32608D01*
X59389Y-32620D01*
X59704Y-32305D01*
X59704Y-32446D01*
X59459Y-32690D01*
X59487Y-32786D01*
X59693Y-32859D01*
X59911Y-32848D01*
X60062Y-32786D01*
X60090Y-32690D01*
X60090Y-33532D01*
X60086Y-33529D01*
X59884Y-33445D01*
X59666Y-33444D01*
X59463Y-33528D01*
X59349Y-33642D01*
X59240Y-33532D01*
X59240Y-32690D01*
X58925Y-32375D01*
X58854Y-32446D01*
X58854Y-32305D01*
X58539Y-31989D01*
X58500Y-32001D01*
X58460Y-31989D01*
X58390Y-32060D01*
X58390Y-31919D01*
X58362Y-31823D01*
X58156Y-31750D01*
X57938Y-31761D01*
X57787Y-31823D01*
X57759Y-31919D01*
X58075Y-32234D01*
X58390Y-31919D01*
X58390Y-32060D01*
X58145Y-32305D01*
X58460Y-32620D01*
X58500Y-32608D01*
X58539Y-32620D01*
X58854Y-32305D01*
X58854Y-32446D01*
X58609Y-32690D01*
X58637Y-32786D01*
X58843Y-32859D01*
X59061Y-32848D01*
X59212Y-32786D01*
X59240Y-32690D01*
X59240Y-33532D01*
X59236Y-33529D01*
X59034Y-33445D01*
X58816Y-33444D01*
X58613Y-33528D01*
X58499Y-33642D01*
X58390Y-33532D01*
X58390Y-32690D01*
X58075Y-32375D01*
X58004Y-32446D01*
X58004Y-32305D01*
X57689Y-31989D01*
X57650Y-32001D01*
X57610Y-31989D01*
X57540Y-32060D01*
X57540Y-31919D01*
X57512Y-31823D01*
X57306Y-31750D01*
X57088Y-31761D01*
X56937Y-31823D01*
X56909Y-31919D01*
X57225Y-32234D01*
X57540Y-31919D01*
X57540Y-32060D01*
X57295Y-32305D01*
X57610Y-32620D01*
X57650Y-32608D01*
X57689Y-32620D01*
X58004Y-32305D01*
X58004Y-32446D01*
X57759Y-32690D01*
X57787Y-32786D01*
X57993Y-32859D01*
X58211Y-32848D01*
X58362Y-32786D01*
X58390Y-32690D01*
X58390Y-33532D01*
X58386Y-33529D01*
X58184Y-33445D01*
X57966Y-33444D01*
X57763Y-33528D01*
X57649Y-33642D01*
X57540Y-33532D01*
X57540Y-32690D01*
X57225Y-32375D01*
X57154Y-32446D01*
X57154Y-32305D01*
X56839Y-31989D01*
X56800Y-32001D01*
X56760Y-31989D01*
X56690Y-32060D01*
X56690Y-31919D01*
X56662Y-31823D01*
X56456Y-31750D01*
X56238Y-31761D01*
X56087Y-31823D01*
X56059Y-31919D01*
X56375Y-32234D01*
X56690Y-31919D01*
X56690Y-32060D01*
X56445Y-32305D01*
X56760Y-32620D01*
X56800Y-32608D01*
X56839Y-32620D01*
X57154Y-32305D01*
X57154Y-32446D01*
X56909Y-32690D01*
X56937Y-32786D01*
X57143Y-32859D01*
X57361Y-32848D01*
X57512Y-32786D01*
X57540Y-32690D01*
X57540Y-33532D01*
X57536Y-33529D01*
X57334Y-33445D01*
X57116Y-33444D01*
X56913Y-33528D01*
X56799Y-33642D01*
X56690Y-33532D01*
X56690Y-32690D01*
X56375Y-32375D01*
X56304Y-32446D01*
X56304Y-32305D01*
X55989Y-31989D01*
X55950Y-32001D01*
X55910Y-31989D01*
X55840Y-32060D01*
X55840Y-31919D01*
X55812Y-31823D01*
X55606Y-31750D01*
X55388Y-31761D01*
X55237Y-31823D01*
X55209Y-31919D01*
X55525Y-32234D01*
X55840Y-31919D01*
X55840Y-32060D01*
X55595Y-32305D01*
X55910Y-32620D01*
X55950Y-32608D01*
X55989Y-32620D01*
X56304Y-32305D01*
X56304Y-32446D01*
X56059Y-32690D01*
X56087Y-32786D01*
X56293Y-32859D01*
X56511Y-32848D01*
X56662Y-32786D01*
X56690Y-32690D01*
X56690Y-33532D01*
X56686Y-33529D01*
X56484Y-33445D01*
X56266Y-33444D01*
X56063Y-33528D01*
X55949Y-33642D01*
X55840Y-33532D01*
X55840Y-32690D01*
X55525Y-32375D01*
X55454Y-32446D01*
X55454Y-32305D01*
X55139Y-31989D01*
X55100Y-32001D01*
X55060Y-31989D01*
X54990Y-32060D01*
X54990Y-31919D01*
X54962Y-31823D01*
X54756Y-31750D01*
X54538Y-31761D01*
X54387Y-31823D01*
X54359Y-31919D01*
X54675Y-32234D01*
X54990Y-31919D01*
X54990Y-32060D01*
X54745Y-32305D01*
X55060Y-32620D01*
X55100Y-32608D01*
X55139Y-32620D01*
X55454Y-32305D01*
X55454Y-32446D01*
X55209Y-32690D01*
X55237Y-32786D01*
X55443Y-32859D01*
X55661Y-32848D01*
X55812Y-32786D01*
X55840Y-32690D01*
X55840Y-33532D01*
X55836Y-33529D01*
X55634Y-33445D01*
X55416Y-33444D01*
X55213Y-33528D01*
X55061Y-33680D01*
X55060Y-33679D01*
X54990Y-33750D01*
X54990Y-33609D01*
X54990Y-32690D01*
X54675Y-32375D01*
X54604Y-32446D01*
X54604Y-32305D01*
X54289Y-31989D01*
X54193Y-32017D01*
X54120Y-32223D01*
X54131Y-32441D01*
X54193Y-32592D01*
X54289Y-32620D01*
X54604Y-32305D01*
X54604Y-32446D01*
X54359Y-32690D01*
X54387Y-32786D01*
X54593Y-32859D01*
X54811Y-32848D01*
X54962Y-32786D01*
X54990Y-32690D01*
X54990Y-33609D01*
X54962Y-33513D01*
X54756Y-33440D01*
X54538Y-33451D01*
X54387Y-33513D01*
X54359Y-33609D01*
X54675Y-33924D01*
X54990Y-33609D01*
X54990Y-33750D01*
X54745Y-33995D01*
X55060Y-34310D01*
X55062Y-34309D01*
X55213Y-34460D01*
X55415Y-34544D01*
X55633Y-34545D01*
X55645Y-34540D01*
X55967Y-34862D01*
X56040Y-34910D01*
X55909Y-34964D01*
X55789Y-35083D01*
X55725Y-35240D01*
X55724Y-35409D01*
X55789Y-35565D01*
X55908Y-35685D01*
X56065Y-35749D01*
X56234Y-35750D01*
X56355Y-35700D01*
X57240Y-35700D01*
X57084Y-35764D01*
X56964Y-35883D01*
X56900Y-36040D01*
X56899Y-36209D01*
X56964Y-36365D01*
X57083Y-36485D01*
X57240Y-36549D01*
X57409Y-36550D01*
X57469Y-36525D01*
X59800Y-36525D01*
X59800Y-36524D01*
X59914Y-36502D01*
X59914Y-36502D01*
X60012Y-36437D01*
X60574Y-35874D01*
X60659Y-35875D01*
X60815Y-35810D01*
X60935Y-35691D01*
X60973Y-35599D01*
X61083Y-35710D01*
X61240Y-35774D01*
X61409Y-35775D01*
X61565Y-35710D01*
X61685Y-35591D01*
X61749Y-35434D01*
X61750Y-35265D01*
X61745Y-35255D01*
X61860Y-35141D01*
X61924Y-34984D01*
X61925Y-34815D01*
X61860Y-34659D01*
X61741Y-34539D01*
X61668Y-34509D01*
X61786Y-34461D01*
X61900Y-34347D01*
X62013Y-34460D01*
X62215Y-34544D01*
X62433Y-34545D01*
X62636Y-34461D01*
X62750Y-34347D01*
X62863Y-34460D01*
X63065Y-34544D01*
X63283Y-34545D01*
X63486Y-34461D01*
X63600Y-34347D01*
X63713Y-34460D01*
X63915Y-34544D01*
X64133Y-34545D01*
X64336Y-34461D01*
X64490Y-34306D01*
X64574Y-34104D01*
X64574Y-34074D01*
X64775Y-34274D01*
X64775Y-34873D01*
X64714Y-34933D01*
X64650Y-35090D01*
X64649Y-35259D01*
X64656Y-35275D01*
X64397Y-35275D01*
X64360Y-35184D01*
X64241Y-35064D01*
X64084Y-35000D01*
X63915Y-34999D01*
X63759Y-35064D01*
X63639Y-35183D01*
X63575Y-35340D01*
X63574Y-35509D01*
X63639Y-35665D01*
X63758Y-35785D01*
X63915Y-35849D01*
X64031Y-35850D01*
X64035Y-35852D01*
X64150Y-35875D01*
X67225Y-35875D01*
X67225Y-35874D01*
X67339Y-35852D01*
X67339Y-35852D01*
X67437Y-35787D01*
X67687Y-35537D01*
X67687Y-35537D01*
X67726Y-35478D01*
X67752Y-35439D01*
X67752Y-35439D01*
X67775Y-35325D01*
X67775Y-50175D01*
X67089Y-50175D01*
X67089Y-47237D01*
X67024Y-47081D01*
X67002Y-47059D01*
X67054Y-46932D01*
X67055Y-46763D01*
X66990Y-46607D01*
X66871Y-46487D01*
X66714Y-46423D01*
X66545Y-46422D01*
X66389Y-46487D01*
X66328Y-46548D01*
X66272Y-46548D01*
X66268Y-46543D01*
X66268Y-45060D01*
X66245Y-44945D01*
X66180Y-44847D01*
X66156Y-44824D01*
X66157Y-44739D01*
X66092Y-44583D01*
X65973Y-44463D01*
X65816Y-44399D01*
X65647Y-44398D01*
X65491Y-44463D01*
X65371Y-44582D01*
X65307Y-44739D01*
X65306Y-44908D01*
X65371Y-45064D01*
X65490Y-45184D01*
X65647Y-45248D01*
X65668Y-45248D01*
X65668Y-45663D01*
X65634Y-45650D01*
X65465Y-45649D01*
X65309Y-45714D01*
X65248Y-45775D01*
X65175Y-45775D01*
X65175Y-43790D01*
X65110Y-43634D01*
X64991Y-43514D01*
X64834Y-43450D01*
X64749Y-43449D01*
X64725Y-43425D01*
X64725Y-39301D01*
X64785Y-39241D01*
X64849Y-39084D01*
X64850Y-38915D01*
X64785Y-38759D01*
X64666Y-38639D01*
X64509Y-38575D01*
X64340Y-38574D01*
X64184Y-38639D01*
X64064Y-38758D01*
X64000Y-38915D01*
X63999Y-39084D01*
X64064Y-39240D01*
X64125Y-39301D01*
X64125Y-43550D01*
X64147Y-43664D01*
X64212Y-43762D01*
X64325Y-43874D01*
X64324Y-43959D01*
X64389Y-44115D01*
X64508Y-44235D01*
X64665Y-44299D01*
X64834Y-44300D01*
X64990Y-44235D01*
X65110Y-44116D01*
X65174Y-43959D01*
X65175Y-43790D01*
X65175Y-45775D01*
X65025Y-45775D01*
X64848Y-45775D01*
X63671Y-44733D01*
X63671Y-44673D01*
X63606Y-44517D01*
X63487Y-44397D01*
X63330Y-44333D01*
X63161Y-44332D01*
X63005Y-44397D01*
X62885Y-44516D01*
X62821Y-44673D01*
X62820Y-44842D01*
X62885Y-44998D01*
X63004Y-45118D01*
X63161Y-45182D01*
X63273Y-45183D01*
X63802Y-45651D01*
X63681Y-45650D01*
X63525Y-45715D01*
X63405Y-45834D01*
X63341Y-45991D01*
X63340Y-46160D01*
X63405Y-46316D01*
X63524Y-46436D01*
X63681Y-46500D01*
X63766Y-46501D01*
X64799Y-47534D01*
X64858Y-47573D01*
X64897Y-47599D01*
X64897Y-47599D01*
X65012Y-47622D01*
X66362Y-47622D01*
X66422Y-47682D01*
X66579Y-47746D01*
X66748Y-47747D01*
X66904Y-47682D01*
X67024Y-47563D01*
X67088Y-47406D01*
X67089Y-47237D01*
X67089Y-50175D01*
X64625Y-50175D01*
X64625Y-47640D01*
X64560Y-47484D01*
X64441Y-47364D01*
X64284Y-47300D01*
X64225Y-47300D01*
X64225Y-47290D01*
X64160Y-47134D01*
X64041Y-47014D01*
X63884Y-46950D01*
X63715Y-46949D01*
X63559Y-47014D01*
X63498Y-47075D01*
X61075Y-47075D01*
X60960Y-47097D01*
X60862Y-47162D01*
X60129Y-47896D01*
X60129Y-47893D01*
X60067Y-47744D01*
X59972Y-47718D01*
X59660Y-48030D01*
X59666Y-48035D01*
X59595Y-48106D01*
X59590Y-48100D01*
X59584Y-48106D01*
X59513Y-48035D01*
X59519Y-48030D01*
X59207Y-47718D01*
X59112Y-47744D01*
X59098Y-47783D01*
X59072Y-47721D01*
X58986Y-47634D01*
X59072Y-47549D01*
X59099Y-47482D01*
X59127Y-47548D01*
X59280Y-47702D01*
X59370Y-47739D01*
X59590Y-47959D01*
X59809Y-47739D01*
X59898Y-47702D01*
X60052Y-47549D01*
X60135Y-47348D01*
X60135Y-47131D01*
X60052Y-46931D01*
X59940Y-46818D01*
X59940Y-46004D01*
X60372Y-45572D01*
X60448Y-45458D01*
X60448Y-45458D01*
X60475Y-45325D01*
X60475Y-44450D01*
X60448Y-44316D01*
X60372Y-44202D01*
X60275Y-44105D01*
X60275Y-43426D01*
X60285Y-43416D01*
X60349Y-43259D01*
X60350Y-43090D01*
X60285Y-42934D01*
X60275Y-42924D01*
X60275Y-42875D01*
X60275Y-38319D01*
X60669Y-37925D01*
X60684Y-37925D01*
X60840Y-37860D01*
X60960Y-37741D01*
X61024Y-37584D01*
X61025Y-37415D01*
X61008Y-37375D01*
X63675Y-37375D01*
X63675Y-37374D01*
X63789Y-37352D01*
X63789Y-37352D01*
X63887Y-37287D01*
X63899Y-37274D01*
X63984Y-37275D01*
X64140Y-37210D01*
X64260Y-37091D01*
X64324Y-36934D01*
X64325Y-36765D01*
X64260Y-36609D01*
X64141Y-36489D01*
X63984Y-36425D01*
X63815Y-36424D01*
X63659Y-36489D01*
X63539Y-36608D01*
X63475Y-36765D01*
X63475Y-36775D01*
X58925Y-36775D01*
X58425Y-36775D01*
X58310Y-36797D01*
X58212Y-36862D01*
X57812Y-37262D01*
X57747Y-37360D01*
X57725Y-37475D01*
X57725Y-42650D01*
X57325Y-43050D01*
X57325Y-42565D01*
X57260Y-42409D01*
X57150Y-42298D01*
X57150Y-39950D01*
X57125Y-39825D01*
X57125Y-39825D01*
X57054Y-39720D01*
X57025Y-39690D01*
X57025Y-39640D01*
X56960Y-39484D01*
X56841Y-39364D01*
X56684Y-39300D01*
X56515Y-39299D01*
X56359Y-39364D01*
X56239Y-39483D01*
X56175Y-39640D01*
X56174Y-39809D01*
X56239Y-39965D01*
X56358Y-40085D01*
X56500Y-40143D01*
X56500Y-41931D01*
X56484Y-41925D01*
X56315Y-41924D01*
X56159Y-41989D01*
X56039Y-42108D01*
X55999Y-42205D01*
X55960Y-42109D01*
X55841Y-41989D01*
X55684Y-41925D01*
X55540Y-41924D01*
X55540Y-37381D01*
X55600Y-37321D01*
X55664Y-37164D01*
X55665Y-36995D01*
X55600Y-36839D01*
X55481Y-36719D01*
X55324Y-36655D01*
X55155Y-36654D01*
X54999Y-36719D01*
X54990Y-36728D01*
X54990Y-34380D01*
X54675Y-34065D01*
X54604Y-34136D01*
X54604Y-33995D01*
X54289Y-33679D01*
X54193Y-33707D01*
X54120Y-33913D01*
X54131Y-34131D01*
X54193Y-34282D01*
X54289Y-34310D01*
X54604Y-33995D01*
X54604Y-34136D01*
X54359Y-34380D01*
X54387Y-34476D01*
X54593Y-34549D01*
X54811Y-34538D01*
X54962Y-34476D01*
X54990Y-34380D01*
X54990Y-36728D01*
X54879Y-36838D01*
X54815Y-36995D01*
X54814Y-37164D01*
X54879Y-37320D01*
X54940Y-37381D01*
X54940Y-41709D01*
X54819Y-41759D01*
X54699Y-41878D01*
X54635Y-42035D01*
X54634Y-42204D01*
X54699Y-42360D01*
X54818Y-42480D01*
X54975Y-42544D01*
X55030Y-42544D01*
X54650Y-42925D01*
X51015Y-42925D01*
X51015Y-32975D01*
X50881Y-32652D01*
X50634Y-32404D01*
X50310Y-32270D01*
X49960Y-32269D01*
X49637Y-32403D01*
X49389Y-32650D01*
X49255Y-32974D01*
X49254Y-33324D01*
X49388Y-33647D01*
X49635Y-33895D01*
X49959Y-34029D01*
X50309Y-34030D01*
X50632Y-33896D01*
X50880Y-33649D01*
X51014Y-33325D01*
X51015Y-32975D01*
X51015Y-42925D01*
X50075Y-42925D01*
X50074Y-42925D01*
X50004Y-42855D01*
X50004Y-41806D01*
X50000Y-41713D01*
X50000Y-40616D01*
X49916Y-40413D01*
X49777Y-40275D01*
X49799Y-40275D01*
X49891Y-40236D01*
X49961Y-40166D01*
X50000Y-40074D01*
X50000Y-39975D01*
X50000Y-39375D01*
X49961Y-39283D01*
X49891Y-39213D01*
X49799Y-39175D01*
X49700Y-39175D01*
X49100Y-39175D01*
X49008Y-39213D01*
X48938Y-39283D01*
X48900Y-39375D01*
X48900Y-39474D01*
X48900Y-40074D01*
X48938Y-40166D01*
X49008Y-40236D01*
X49100Y-40275D01*
X49122Y-40275D01*
X48984Y-40413D01*
X48900Y-40615D01*
X48899Y-40833D01*
X48983Y-41036D01*
X49138Y-41190D01*
X49213Y-41222D01*
X49162Y-41243D01*
X49134Y-41339D01*
X49450Y-41654D01*
X49765Y-41339D01*
X49737Y-41243D01*
X49682Y-41224D01*
X49761Y-41191D01*
X49915Y-41036D01*
X49999Y-40834D01*
X50000Y-40616D01*
X50000Y-41713D01*
X49993Y-41588D01*
X49931Y-41437D01*
X49835Y-41409D01*
X49520Y-41725D01*
X49835Y-42040D01*
X49931Y-42012D01*
X50004Y-41806D01*
X50004Y-42855D01*
X49995Y-42846D01*
X49999Y-42834D01*
X50000Y-42616D01*
X49916Y-42413D01*
X49761Y-42259D01*
X49686Y-42227D01*
X49737Y-42206D01*
X49765Y-42110D01*
X49450Y-41795D01*
X49379Y-41866D01*
X49379Y-41725D01*
X49064Y-41409D01*
X48968Y-41437D01*
X48895Y-41643D01*
X48906Y-41861D01*
X48968Y-42012D01*
X49064Y-42040D01*
X49379Y-41725D01*
X49379Y-41866D01*
X49134Y-42110D01*
X49162Y-42206D01*
X49217Y-42225D01*
X49138Y-42258D01*
X48984Y-42413D01*
X48900Y-42615D01*
X48899Y-42833D01*
X48983Y-43036D01*
X49138Y-43190D01*
X49219Y-43224D01*
X49138Y-43258D01*
X48984Y-43413D01*
X48900Y-43615D01*
X48899Y-43833D01*
X48983Y-44036D01*
X49138Y-44190D01*
X49219Y-44224D01*
X49138Y-44258D01*
X48984Y-44413D01*
X48900Y-44615D01*
X48899Y-44833D01*
X48983Y-45036D01*
X49138Y-45190D01*
X49340Y-45274D01*
X49558Y-45275D01*
X49761Y-45191D01*
X49915Y-45036D01*
X49999Y-44834D01*
X50000Y-44616D01*
X49916Y-44413D01*
X49761Y-44259D01*
X49680Y-44225D01*
X49761Y-44191D01*
X49915Y-44036D01*
X49920Y-44025D01*
X55000Y-44025D01*
X55000Y-44024D01*
X55114Y-44002D01*
X55114Y-44002D01*
X55212Y-43937D01*
X56374Y-42774D01*
X56484Y-42775D01*
X56490Y-42772D01*
X56539Y-42890D01*
X56658Y-43010D01*
X56815Y-43074D01*
X56984Y-43075D01*
X57140Y-43010D01*
X57260Y-42891D01*
X57324Y-42734D01*
X57325Y-42565D01*
X57325Y-43050D01*
X57050Y-43325D01*
X56965Y-43324D01*
X56809Y-43389D01*
X56689Y-43508D01*
X56625Y-43665D01*
X56624Y-43834D01*
X56689Y-43990D01*
X56808Y-44110D01*
X56965Y-44174D01*
X57134Y-44175D01*
X57290Y-44110D01*
X57410Y-43991D01*
X57474Y-43834D01*
X57475Y-43749D01*
X58175Y-43049D01*
X58175Y-44250D01*
X58175Y-44450D01*
X58175Y-44550D01*
X58197Y-44664D01*
X58262Y-44762D01*
X58512Y-45012D01*
X58571Y-45051D01*
X58610Y-45077D01*
X58610Y-45077D01*
X58661Y-45087D01*
X58733Y-45160D01*
X58890Y-45224D01*
X59059Y-45225D01*
X59215Y-45160D01*
X59335Y-45041D01*
X59399Y-44884D01*
X59400Y-44715D01*
X59335Y-44559D01*
X59216Y-44439D01*
X59059Y-44375D01*
X58890Y-44374D01*
X58775Y-44422D01*
X58775Y-44250D01*
X58775Y-39376D01*
X58835Y-39316D01*
X58899Y-39159D01*
X58900Y-38990D01*
X58835Y-38834D01*
X58716Y-38714D01*
X58559Y-38650D01*
X58390Y-38649D01*
X58325Y-38677D01*
X58325Y-37599D01*
X58549Y-37375D01*
X58925Y-37375D01*
X60191Y-37375D01*
X60175Y-37415D01*
X60175Y-37429D01*
X59677Y-37927D01*
X59601Y-38041D01*
X59575Y-38175D01*
X59575Y-42875D01*
X59575Y-42923D01*
X59564Y-42933D01*
X59500Y-43090D01*
X59499Y-43259D01*
X59564Y-43415D01*
X59575Y-43425D01*
X59575Y-44250D01*
X59601Y-44383D01*
X59677Y-44497D01*
X59775Y-44594D01*
X59775Y-45180D01*
X59342Y-45612D01*
X59266Y-45726D01*
X59240Y-45860D01*
X59240Y-46818D01*
X59127Y-46930D01*
X59100Y-46997D01*
X59072Y-46931D01*
X58919Y-46777D01*
X58718Y-46694D01*
X58501Y-46694D01*
X58301Y-46777D01*
X58147Y-46930D01*
X58064Y-47131D01*
X58064Y-47236D01*
X57887Y-47412D01*
X57822Y-47510D01*
X57800Y-47625D01*
X57800Y-48225D01*
X57822Y-48339D01*
X57887Y-48437D01*
X58175Y-48725D01*
X57665Y-48725D01*
X57665Y-46455D01*
X57600Y-46299D01*
X57481Y-46179D01*
X57324Y-46115D01*
X57155Y-46114D01*
X56999Y-46179D01*
X56938Y-46240D01*
X56801Y-46240D01*
X56735Y-46173D01*
X56578Y-46109D01*
X56409Y-46108D01*
X56253Y-46173D01*
X56133Y-46292D01*
X56069Y-46449D01*
X56068Y-46618D01*
X56133Y-46774D01*
X56252Y-46894D01*
X56409Y-46958D01*
X56578Y-46959D01*
X56734Y-46894D01*
X56789Y-46840D01*
X56938Y-46840D01*
X56998Y-46900D01*
X57155Y-46964D01*
X57324Y-46965D01*
X57480Y-46900D01*
X57600Y-46781D01*
X57664Y-46624D01*
X57665Y-46455D01*
X57665Y-48725D01*
X57591Y-48725D01*
X57526Y-48568D01*
X57262Y-48304D01*
X56917Y-48161D01*
X56544Y-48160D01*
X56198Y-48303D01*
X55934Y-48567D01*
X55791Y-48912D01*
X55790Y-49285D01*
X55933Y-49631D01*
X56197Y-49895D01*
X56542Y-50038D01*
X56915Y-50039D01*
X57261Y-49896D01*
X57525Y-49632D01*
X57591Y-49475D01*
X60608Y-49475D01*
X60673Y-49631D01*
X60937Y-49895D01*
X61282Y-50038D01*
X61655Y-50039D01*
X62001Y-49896D01*
X62265Y-49632D01*
X62408Y-49287D01*
X62409Y-48914D01*
X62266Y-48568D01*
X62002Y-48304D01*
X61657Y-48161D01*
X61284Y-48160D01*
X60938Y-48303D01*
X60674Y-48567D01*
X60608Y-48725D01*
X60474Y-48725D01*
X61174Y-48025D01*
X63898Y-48025D01*
X63958Y-48085D01*
X64115Y-48149D01*
X64284Y-48150D01*
X64440Y-48085D01*
X64560Y-47966D01*
X64624Y-47809D01*
X64625Y-47640D01*
X64625Y-50175D01*
X54000Y-50175D01*
X48825Y-50150D01*
X48825Y-34450D01*
X48849Y-29250D01*
X69850Y-29250D01*
X69850Y-39015D01*
X69445Y-38610D01*
X69445Y-32975D01*
X69311Y-32652D01*
X69064Y-32404D01*
X68740Y-32270D01*
X68390Y-32269D01*
X68067Y-32403D01*
X67819Y-32650D01*
X67685Y-32974D01*
X67684Y-33324D01*
X67818Y-33647D01*
X68065Y-33895D01*
X68389Y-34029D01*
X68739Y-34030D01*
X69062Y-33896D01*
X69310Y-33649D01*
X69444Y-33325D01*
X69445Y-32975D01*
X69445Y-38610D01*
X69395Y-38560D01*
X69395Y-38545D01*
X69330Y-38389D01*
X69211Y-38269D01*
X69054Y-38205D01*
X68885Y-38204D01*
X68729Y-38269D01*
X68609Y-38388D01*
X68545Y-38545D01*
X68544Y-38714D01*
X68609Y-38870D01*
X68728Y-38990D01*
X68885Y-39054D01*
X68899Y-39054D01*
X69420Y-39574D01*
X69420Y-44935D01*
X69370Y-44984D01*
X69295Y-44984D01*
X69139Y-45049D01*
X69019Y-45168D01*
X68955Y-45325D01*
X68954Y-45494D01*
X69019Y-45650D01*
X69138Y-45770D01*
X69295Y-45834D01*
X69464Y-45835D01*
X69620Y-45770D01*
X69740Y-45651D01*
X69772Y-45572D01*
X69850Y-45494D01*
X69850Y-50175D01*
X69850Y-50175D01*
G37*
G54D17*
X69850Y-50175D02*
X67775Y-50175D01*
X67775Y-35325D01*
X67775Y-34550D01*
X67752Y-34435D01*
X67752Y-34435D01*
X67687Y-34337D01*
X64587Y-31237D01*
X64489Y-31172D01*
X64375Y-31150D01*
X60950Y-31150D01*
X60835Y-31172D01*
X60737Y-31237D01*
X60412Y-31562D01*
X60347Y-31660D01*
X60325Y-31775D01*
X60325Y-31833D01*
X60313Y-31838D01*
X60161Y-31990D01*
X60160Y-31989D01*
X60090Y-32060D01*
X60090Y-31919D01*
X60062Y-31823D01*
X59856Y-31750D01*
X59638Y-31761D01*
X59487Y-31823D01*
X59459Y-31919D01*
X59775Y-32234D01*
X60090Y-31919D01*
X60090Y-32060D01*
X59845Y-32305D01*
X60160Y-32620D01*
X60162Y-32619D01*
X60313Y-32770D01*
X60515Y-32854D01*
X60733Y-32855D01*
X60936Y-32771D01*
X61050Y-32657D01*
X61163Y-32770D01*
X61175Y-32775D01*
X61175Y-33200D01*
X61197Y-33314D01*
X61262Y-33412D01*
X61316Y-33465D01*
X61163Y-33528D01*
X61049Y-33642D01*
X60936Y-33529D01*
X60734Y-33445D01*
X60516Y-33444D01*
X60313Y-33528D01*
X60199Y-33642D01*
X60090Y-33532D01*
X60090Y-32690D01*
X59775Y-32375D01*
X59704Y-32446D01*
X59704Y-32305D01*
X59389Y-31989D01*
X59350Y-32001D01*
X59310Y-31989D01*
X59240Y-32060D01*
X59240Y-31919D01*
X59212Y-31823D01*
X59006Y-31750D01*
X58788Y-31761D01*
X58637Y-31823D01*
X58609Y-31919D01*
X58925Y-32234D01*
X59240Y-31919D01*
X59240Y-32060D01*
X58995Y-32305D01*
X59310Y-32620D01*
X59350Y-32608D01*
X59389Y-32620D01*
X59704Y-32305D01*
X59704Y-32446D01*
X59459Y-32690D01*
X59487Y-32786D01*
X59693Y-32859D01*
X59911Y-32848D01*
X60062Y-32786D01*
X60090Y-32690D01*
X60090Y-33532D01*
X60086Y-33529D01*
X59884Y-33445D01*
X59666Y-33444D01*
X59463Y-33528D01*
X59349Y-33642D01*
X59240Y-33532D01*
X59240Y-32690D01*
X58925Y-32375D01*
X58854Y-32446D01*
X58854Y-32305D01*
X58539Y-31989D01*
X58500Y-32001D01*
X58460Y-31989D01*
X58390Y-32060D01*
X58390Y-31919D01*
X58362Y-31823D01*
X58156Y-31750D01*
X57938Y-31761D01*
X57787Y-31823D01*
X57759Y-31919D01*
X58075Y-32234D01*
X58390Y-31919D01*
X58390Y-32060D01*
X58145Y-32305D01*
X58460Y-32620D01*
X58500Y-32608D01*
X58539Y-32620D01*
X58854Y-32305D01*
X58854Y-32446D01*
X58609Y-32690D01*
X58637Y-32786D01*
X58843Y-32859D01*
X59061Y-32848D01*
X59212Y-32786D01*
X59240Y-32690D01*
X59240Y-33532D01*
X59236Y-33529D01*
X59034Y-33445D01*
X58816Y-33444D01*
X58613Y-33528D01*
X58499Y-33642D01*
X58390Y-33532D01*
X58390Y-32690D01*
X58075Y-32375D01*
X58004Y-32446D01*
X58004Y-32305D01*
X57689Y-31989D01*
X57650Y-32001D01*
X57610Y-31989D01*
X57540Y-32060D01*
X57540Y-31919D01*
X57512Y-31823D01*
X57306Y-31750D01*
X57088Y-31761D01*
X56937Y-31823D01*
X56909Y-31919D01*
X57225Y-32234D01*
X57540Y-31919D01*
X57540Y-32060D01*
X57295Y-32305D01*
X57610Y-32620D01*
X57650Y-32608D01*
X57689Y-32620D01*
X58004Y-32305D01*
X58004Y-32446D01*
X57759Y-32690D01*
X57787Y-32786D01*
X57993Y-32859D01*
X58211Y-32848D01*
X58362Y-32786D01*
X58390Y-32690D01*
X58390Y-33532D01*
X58386Y-33529D01*
X58184Y-33445D01*
X57966Y-33444D01*
X57763Y-33528D01*
X57649Y-33642D01*
X57540Y-33532D01*
X57540Y-32690D01*
X57225Y-32375D01*
X57154Y-32446D01*
X57154Y-32305D01*
X56839Y-31989D01*
X56800Y-32001D01*
X56760Y-31989D01*
X56690Y-32060D01*
X56690Y-31919D01*
X56662Y-31823D01*
X56456Y-31750D01*
X56238Y-31761D01*
X56087Y-31823D01*
X56059Y-31919D01*
X56375Y-32234D01*
X56690Y-31919D01*
X56690Y-32060D01*
X56445Y-32305D01*
X56760Y-32620D01*
X56800Y-32608D01*
X56839Y-32620D01*
X57154Y-32305D01*
X57154Y-32446D01*
X56909Y-32690D01*
X56937Y-32786D01*
X57143Y-32859D01*
X57361Y-32848D01*
X57512Y-32786D01*
X57540Y-32690D01*
X57540Y-33532D01*
X57536Y-33529D01*
X57334Y-33445D01*
X57116Y-33444D01*
X56913Y-33528D01*
X56799Y-33642D01*
X56690Y-33532D01*
X56690Y-32690D01*
X56375Y-32375D01*
X56304Y-32446D01*
X56304Y-32305D01*
X55989Y-31989D01*
X55950Y-32001D01*
X55910Y-31989D01*
X55840Y-32060D01*
X55840Y-31919D01*
X55812Y-31823D01*
X55606Y-31750D01*
X55388Y-31761D01*
X55237Y-31823D01*
X55209Y-31919D01*
X55525Y-32234D01*
X55840Y-31919D01*
X55840Y-32060D01*
X55595Y-32305D01*
X55910Y-32620D01*
X55950Y-32608D01*
X55989Y-32620D01*
X56304Y-32305D01*
X56304Y-32446D01*
X56059Y-32690D01*
X56087Y-32786D01*
X56293Y-32859D01*
X56511Y-32848D01*
X56662Y-32786D01*
X56690Y-32690D01*
X56690Y-33532D01*
X56686Y-33529D01*
X56484Y-33445D01*
X56266Y-33444D01*
X56063Y-33528D01*
X55949Y-33642D01*
X55840Y-33532D01*
X55840Y-32690D01*
X55525Y-32375D01*
X55454Y-32446D01*
X55454Y-32305D01*
X55139Y-31989D01*
X55100Y-32001D01*
X55060Y-31989D01*
X54990Y-32060D01*
X54990Y-31919D01*
X54962Y-31823D01*
X54756Y-31750D01*
X54538Y-31761D01*
X54387Y-31823D01*
X54359Y-31919D01*
X54675Y-32234D01*
X54990Y-31919D01*
X54990Y-32060D01*
X54745Y-32305D01*
X55060Y-32620D01*
X55100Y-32608D01*
X55139Y-32620D01*
X55454Y-32305D01*
X55454Y-32446D01*
X55209Y-32690D01*
X55237Y-32786D01*
X55443Y-32859D01*
X55661Y-32848D01*
X55812Y-32786D01*
X55840Y-32690D01*
X55840Y-33532D01*
X55836Y-33529D01*
X55634Y-33445D01*
X55416Y-33444D01*
X55213Y-33528D01*
X55061Y-33680D01*
X55060Y-33679D01*
X54990Y-33750D01*
X54990Y-33609D01*
X54990Y-32690D01*
X54675Y-32375D01*
X54604Y-32446D01*
X54604Y-32305D01*
X54289Y-31989D01*
X54193Y-32017D01*
X54120Y-32223D01*
X54131Y-32441D01*
X54193Y-32592D01*
X54289Y-32620D01*
X54604Y-32305D01*
X54604Y-32446D01*
X54359Y-32690D01*
X54387Y-32786D01*
X54593Y-32859D01*
X54811Y-32848D01*
X54962Y-32786D01*
X54990Y-32690D01*
X54990Y-33609D01*
X54962Y-33513D01*
X54756Y-33440D01*
X54538Y-33451D01*
X54387Y-33513D01*
X54359Y-33609D01*
X54675Y-33924D01*
X54990Y-33609D01*
X54990Y-33750D01*
X54745Y-33995D01*
X55060Y-34310D01*
X55062Y-34309D01*
X55213Y-34460D01*
X55415Y-34544D01*
X55633Y-34545D01*
X55645Y-34540D01*
X55967Y-34862D01*
X56040Y-34910D01*
X55909Y-34964D01*
X55789Y-35083D01*
X55725Y-35240D01*
X55724Y-35409D01*
X55789Y-35565D01*
X55908Y-35685D01*
X56065Y-35749D01*
X56234Y-35750D01*
X56355Y-35700D01*
X57240Y-35700D01*
X57084Y-35764D01*
X56964Y-35883D01*
X56900Y-36040D01*
X56899Y-36209D01*
X56964Y-36365D01*
X57083Y-36485D01*
X57240Y-36549D01*
X57409Y-36550D01*
X57469Y-36525D01*
X59800Y-36525D01*
X59800Y-36524D01*
X59914Y-36502D01*
X59914Y-36502D01*
X60012Y-36437D01*
X60574Y-35874D01*
X60659Y-35875D01*
X60815Y-35810D01*
X60935Y-35691D01*
X60973Y-35599D01*
X61083Y-35710D01*
X61240Y-35774D01*
X61409Y-35775D01*
X61565Y-35710D01*
X61685Y-35591D01*
X61749Y-35434D01*
X61750Y-35265D01*
X61745Y-35255D01*
X61860Y-35141D01*
X61924Y-34984D01*
X61925Y-34815D01*
X61860Y-34659D01*
X61741Y-34539D01*
X61668Y-34509D01*
X61786Y-34461D01*
X61900Y-34347D01*
X62013Y-34460D01*
X62215Y-34544D01*
X62433Y-34545D01*
X62636Y-34461D01*
X62750Y-34347D01*
X62863Y-34460D01*
X63065Y-34544D01*
X63283Y-34545D01*
X63486Y-34461D01*
X63600Y-34347D01*
X63713Y-34460D01*
X63915Y-34544D01*
X64133Y-34545D01*
X64336Y-34461D01*
X64490Y-34306D01*
X64574Y-34104D01*
X64574Y-34074D01*
X64775Y-34274D01*
X64775Y-34873D01*
X64714Y-34933D01*
X64650Y-35090D01*
X64649Y-35259D01*
X64656Y-35275D01*
X64397Y-35275D01*
X64360Y-35184D01*
X64241Y-35064D01*
X64084Y-35000D01*
X63915Y-34999D01*
X63759Y-35064D01*
X63639Y-35183D01*
X63575Y-35340D01*
X63574Y-35509D01*
X63639Y-35665D01*
X63758Y-35785D01*
X63915Y-35849D01*
X64031Y-35850D01*
X64035Y-35852D01*
X64150Y-35875D01*
X67225Y-35875D01*
X67225Y-35874D01*
X67339Y-35852D01*
X67339Y-35852D01*
X67437Y-35787D01*
X67687Y-35537D01*
X67687Y-35537D01*
X67726Y-35478D01*
X67752Y-35439D01*
X67752Y-35439D01*
X67775Y-35325D01*
X67775Y-50175D01*
X67089Y-50175D01*
X67089Y-47237D01*
X67024Y-47081D01*
X67002Y-47059D01*
X67054Y-46932D01*
X67055Y-46763D01*
X66990Y-46607D01*
X66871Y-46487D01*
X66714Y-46423D01*
X66545Y-46422D01*
X66389Y-46487D01*
X66328Y-46548D01*
X66272Y-46548D01*
X66268Y-46543D01*
X66268Y-45060D01*
X66245Y-44945D01*
X66180Y-44847D01*
X66156Y-44824D01*
X66157Y-44739D01*
X66092Y-44583D01*
X65973Y-44463D01*
X65816Y-44399D01*
X65647Y-44398D01*
X65491Y-44463D01*
X65371Y-44582D01*
X65307Y-44739D01*
X65306Y-44908D01*
X65371Y-45064D01*
X65490Y-45184D01*
X65647Y-45248D01*
X65668Y-45248D01*
X65668Y-45663D01*
X65634Y-45650D01*
X65465Y-45649D01*
X65309Y-45714D01*
X65248Y-45775D01*
X65175Y-45775D01*
X65175Y-43790D01*
X65110Y-43634D01*
X64991Y-43514D01*
X64834Y-43450D01*
X64749Y-43449D01*
X64725Y-43425D01*
X64725Y-39301D01*
X64785Y-39241D01*
X64849Y-39084D01*
X64850Y-38915D01*
X64785Y-38759D01*
X64666Y-38639D01*
X64509Y-38575D01*
X64340Y-38574D01*
X64184Y-38639D01*
X64064Y-38758D01*
X64000Y-38915D01*
X63999Y-39084D01*
X64064Y-39240D01*
X64125Y-39301D01*
X64125Y-43550D01*
X64147Y-43664D01*
X64212Y-43762D01*
X64325Y-43874D01*
X64324Y-43959D01*
X64389Y-44115D01*
X64508Y-44235D01*
X64665Y-44299D01*
X64834Y-44300D01*
X64990Y-44235D01*
X65110Y-44116D01*
X65174Y-43959D01*
X65175Y-43790D01*
X65175Y-45775D01*
X65025Y-45775D01*
X64848Y-45775D01*
X63671Y-44733D01*
X63671Y-44673D01*
X63606Y-44517D01*
X63487Y-44397D01*
X63330Y-44333D01*
X63161Y-44332D01*
X63005Y-44397D01*
X62885Y-44516D01*
X62821Y-44673D01*
X62820Y-44842D01*
X62885Y-44998D01*
X63004Y-45118D01*
X63161Y-45182D01*
X63273Y-45183D01*
X63802Y-45651D01*
X63681Y-45650D01*
X63525Y-45715D01*
X63405Y-45834D01*
X63341Y-45991D01*
X63340Y-46160D01*
X63405Y-46316D01*
X63524Y-46436D01*
X63681Y-46500D01*
X63766Y-46501D01*
X64799Y-47534D01*
X64858Y-47573D01*
X64897Y-47599D01*
X64897Y-47599D01*
X65012Y-47622D01*
X66362Y-47622D01*
X66422Y-47682D01*
X66579Y-47746D01*
X66748Y-47747D01*
X66904Y-47682D01*
X67024Y-47563D01*
X67088Y-47406D01*
X67089Y-47237D01*
X67089Y-50175D01*
X64625Y-50175D01*
X64625Y-47640D01*
X64560Y-47484D01*
X64441Y-47364D01*
X64284Y-47300D01*
X64225Y-47300D01*
X64225Y-47290D01*
X64160Y-47134D01*
X64041Y-47014D01*
X63884Y-46950D01*
X63715Y-46949D01*
X63559Y-47014D01*
X63498Y-47075D01*
X61075Y-47075D01*
X60960Y-47097D01*
X60862Y-47162D01*
X60129Y-47896D01*
X60129Y-47893D01*
X60067Y-47744D01*
X59972Y-47718D01*
X59660Y-48030D01*
X59666Y-48035D01*
X59595Y-48106D01*
X59590Y-48100D01*
X59584Y-48106D01*
X59513Y-48035D01*
X59519Y-48030D01*
X59207Y-47718D01*
X59112Y-47744D01*
X59098Y-47783D01*
X59072Y-47721D01*
X58986Y-47634D01*
X59072Y-47549D01*
X59099Y-47482D01*
X59127Y-47548D01*
X59280Y-47702D01*
X59370Y-47739D01*
X59590Y-47959D01*
X59809Y-47739D01*
X59898Y-47702D01*
X60052Y-47549D01*
X60135Y-47348D01*
X60135Y-47131D01*
X60052Y-46931D01*
X59940Y-46818D01*
X59940Y-46004D01*
X60372Y-45572D01*
X60448Y-45458D01*
X60448Y-45458D01*
X60475Y-45325D01*
X60475Y-44450D01*
X60448Y-44316D01*
X60372Y-44202D01*
X60275Y-44105D01*
X60275Y-43426D01*
X60285Y-43416D01*
X60349Y-43259D01*
X60350Y-43090D01*
X60285Y-42934D01*
X60275Y-42924D01*
X60275Y-42875D01*
X60275Y-38319D01*
X60669Y-37925D01*
X60684Y-37925D01*
X60840Y-37860D01*
X60960Y-37741D01*
X61024Y-37584D01*
X61025Y-37415D01*
X61008Y-37375D01*
X63675Y-37375D01*
X63675Y-37374D01*
X63789Y-37352D01*
X63789Y-37352D01*
X63887Y-37287D01*
X63899Y-37274D01*
X63984Y-37275D01*
X64140Y-37210D01*
X64260Y-37091D01*
X64324Y-36934D01*
X64325Y-36765D01*
X64260Y-36609D01*
X64141Y-36489D01*
X63984Y-36425D01*
X63815Y-36424D01*
X63659Y-36489D01*
X63539Y-36608D01*
X63475Y-36765D01*
X63475Y-36775D01*
X58925Y-36775D01*
X58425Y-36775D01*
X58310Y-36797D01*
X58212Y-36862D01*
X57812Y-37262D01*
X57747Y-37360D01*
X57725Y-37475D01*
X57725Y-42650D01*
X57325Y-43050D01*
X57325Y-42565D01*
X57260Y-42409D01*
X57150Y-42298D01*
X57150Y-39950D01*
X57125Y-39825D01*
X57125Y-39825D01*
X57054Y-39720D01*
X57025Y-39690D01*
X57025Y-39640D01*
X56960Y-39484D01*
X56841Y-39364D01*
X56684Y-39300D01*
X56515Y-39299D01*
X56359Y-39364D01*
X56239Y-39483D01*
X56175Y-39640D01*
X56174Y-39809D01*
X56239Y-39965D01*
X56358Y-40085D01*
X56500Y-40143D01*
X56500Y-41931D01*
X56484Y-41925D01*
X56315Y-41924D01*
X56159Y-41989D01*
X56039Y-42108D01*
X55999Y-42205D01*
X55960Y-42109D01*
X55841Y-41989D01*
X55684Y-41925D01*
X55540Y-41924D01*
X55540Y-37381D01*
X55600Y-37321D01*
X55664Y-37164D01*
X55665Y-36995D01*
X55600Y-36839D01*
X55481Y-36719D01*
X55324Y-36655D01*
X55155Y-36654D01*
X54999Y-36719D01*
X54990Y-36728D01*
X54990Y-34380D01*
X54675Y-34065D01*
X54604Y-34136D01*
X54604Y-33995D01*
X54289Y-33679D01*
X54193Y-33707D01*
X54120Y-33913D01*
X54131Y-34131D01*
X54193Y-34282D01*
X54289Y-34310D01*
X54604Y-33995D01*
X54604Y-34136D01*
X54359Y-34380D01*
X54387Y-34476D01*
X54593Y-34549D01*
X54811Y-34538D01*
X54962Y-34476D01*
X54990Y-34380D01*
X54990Y-36728D01*
X54879Y-36838D01*
X54815Y-36995D01*
X54814Y-37164D01*
X54879Y-37320D01*
X54940Y-37381D01*
X54940Y-41709D01*
X54819Y-41759D01*
X54699Y-41878D01*
X54635Y-42035D01*
X54634Y-42204D01*
X54699Y-42360D01*
X54818Y-42480D01*
X54975Y-42544D01*
X55030Y-42544D01*
X54650Y-42925D01*
X51015Y-42925D01*
X51015Y-32975D01*
X50881Y-32652D01*
X50634Y-32404D01*
X50310Y-32270D01*
X49960Y-32269D01*
X49637Y-32403D01*
X49389Y-32650D01*
X49255Y-32974D01*
X49254Y-33324D01*
X49388Y-33647D01*
X49635Y-33895D01*
X49959Y-34029D01*
X50309Y-34030D01*
X50632Y-33896D01*
X50880Y-33649D01*
X51014Y-33325D01*
X51015Y-32975D01*
X51015Y-42925D01*
X50075Y-42925D01*
X50074Y-42925D01*
X50004Y-42855D01*
X50004Y-41806D01*
X50000Y-41713D01*
X50000Y-40616D01*
X49916Y-40413D01*
X49777Y-40275D01*
X49799Y-40275D01*
X49891Y-40236D01*
X49961Y-40166D01*
X50000Y-40074D01*
X50000Y-39975D01*
X50000Y-39375D01*
X49961Y-39283D01*
X49891Y-39213D01*
X49799Y-39175D01*
X49700Y-39175D01*
X49100Y-39175D01*
X49008Y-39213D01*
X48938Y-39283D01*
X48900Y-39375D01*
X48900Y-39474D01*
X48900Y-40074D01*
X48938Y-40166D01*
X49008Y-40236D01*
X49100Y-40275D01*
X49122Y-40275D01*
X48984Y-40413D01*
X48900Y-40615D01*
X48899Y-40833D01*
X48983Y-41036D01*
X49138Y-41190D01*
X49213Y-41222D01*
X49162Y-41243D01*
X49134Y-41339D01*
X49450Y-41654D01*
X49765Y-41339D01*
X49737Y-41243D01*
X49682Y-41224D01*
X49761Y-41191D01*
X49915Y-41036D01*
X49999Y-40834D01*
X50000Y-40616D01*
X50000Y-41713D01*
X49993Y-41588D01*
X49931Y-41437D01*
X49835Y-41409D01*
X49520Y-41725D01*
X49835Y-42040D01*
X49931Y-42012D01*
X50004Y-41806D01*
X50004Y-42855D01*
X49995Y-42846D01*
X49999Y-42834D01*
X50000Y-42616D01*
X49916Y-42413D01*
X49761Y-42259D01*
X49686Y-42227D01*
X49737Y-42206D01*
X49765Y-42110D01*
X49450Y-41795D01*
X49379Y-41866D01*
X49379Y-41725D01*
X49064Y-41409D01*
X48968Y-41437D01*
X48895Y-41643D01*
X48906Y-41861D01*
X48968Y-42012D01*
X49064Y-42040D01*
X49379Y-41725D01*
X49379Y-41866D01*
X49134Y-42110D01*
X49162Y-42206D01*
X49217Y-42225D01*
X49138Y-42258D01*
X48984Y-42413D01*
X48900Y-42615D01*
X48899Y-42833D01*
X48983Y-43036D01*
X49138Y-43190D01*
X49219Y-43224D01*
X49138Y-43258D01*
X48984Y-43413D01*
X48900Y-43615D01*
X48899Y-43833D01*
X48983Y-44036D01*
X49138Y-44190D01*
X49219Y-44224D01*
X49138Y-44258D01*
X48984Y-44413D01*
X48900Y-44615D01*
X48899Y-44833D01*
X48983Y-45036D01*
X49138Y-45190D01*
X49340Y-45274D01*
X49558Y-45275D01*
X49761Y-45191D01*
X49915Y-45036D01*
X49999Y-44834D01*
X50000Y-44616D01*
X49916Y-44413D01*
X49761Y-44259D01*
X49680Y-44225D01*
X49761Y-44191D01*
X49915Y-44036D01*
X49920Y-44025D01*
X55000Y-44025D01*
X55000Y-44024D01*
X55114Y-44002D01*
X55114Y-44002D01*
X55212Y-43937D01*
X56374Y-42774D01*
X56484Y-42775D01*
X56490Y-42772D01*
X56539Y-42890D01*
X56658Y-43010D01*
X56815Y-43074D01*
X56984Y-43075D01*
X57140Y-43010D01*
X57260Y-42891D01*
X57324Y-42734D01*
X57325Y-42565D01*
X57325Y-43050D01*
X57050Y-43325D01*
X56965Y-43324D01*
X56809Y-43389D01*
X56689Y-43508D01*
X56625Y-43665D01*
X56624Y-43834D01*
X56689Y-43990D01*
X56808Y-44110D01*
X56965Y-44174D01*
X57134Y-44175D01*
X57290Y-44110D01*
X57410Y-43991D01*
X57474Y-43834D01*
X57475Y-43749D01*
X58175Y-43049D01*
X58175Y-44250D01*
X58175Y-44450D01*
X58175Y-44550D01*
X58197Y-44664D01*
X58262Y-44762D01*
X58512Y-45012D01*
X58571Y-45051D01*
X58610Y-45077D01*
X58610Y-45077D01*
X58661Y-45087D01*
X58733Y-45160D01*
X58890Y-45224D01*
X59059Y-45225D01*
X59215Y-45160D01*
X59335Y-45041D01*
X59399Y-44884D01*
X59400Y-44715D01*
X59335Y-44559D01*
X59216Y-44439D01*
X59059Y-44375D01*
X58890Y-44374D01*
X58775Y-44422D01*
X58775Y-44250D01*
X58775Y-39376D01*
X58835Y-39316D01*
X58899Y-39159D01*
X58900Y-38990D01*
X58835Y-38834D01*
X58716Y-38714D01*
X58559Y-38650D01*
X58390Y-38649D01*
X58325Y-38677D01*
X58325Y-37599D01*
X58549Y-37375D01*
X58925Y-37375D01*
X60191Y-37375D01*
X60175Y-37415D01*
X60175Y-37429D01*
X59677Y-37927D01*
X59601Y-38041D01*
X59575Y-38175D01*
X59575Y-42875D01*
X59575Y-42923D01*
X59564Y-42933D01*
X59500Y-43090D01*
X59499Y-43259D01*
X59564Y-43415D01*
X59575Y-43425D01*
X59575Y-44250D01*
X59601Y-44383D01*
X59677Y-44497D01*
X59775Y-44594D01*
X59775Y-45180D01*
X59342Y-45612D01*
X59266Y-45726D01*
X59240Y-45860D01*
X59240Y-46818D01*
X59127Y-46930D01*
X59100Y-46997D01*
X59072Y-46931D01*
X58919Y-46777D01*
X58718Y-46694D01*
X58501Y-46694D01*
X58301Y-46777D01*
X58147Y-46930D01*
X58064Y-47131D01*
X58064Y-47236D01*
X57887Y-47412D01*
X57822Y-47510D01*
X57800Y-47625D01*
X57800Y-48225D01*
X57822Y-48339D01*
X57887Y-48437D01*
X58175Y-48725D01*
X57665Y-48725D01*
X57665Y-46455D01*
X57600Y-46299D01*
X57481Y-46179D01*
X57324Y-46115D01*
X57155Y-46114D01*
X56999Y-46179D01*
X56938Y-46240D01*
X56801Y-46240D01*
X56735Y-46173D01*
X56578Y-46109D01*
X56409Y-46108D01*
X56253Y-46173D01*
X56133Y-46292D01*
X56069Y-46449D01*
X56068Y-46618D01*
X56133Y-46774D01*
X56252Y-46894D01*
X56409Y-46958D01*
X56578Y-46959D01*
X56734Y-46894D01*
X56789Y-46840D01*
X56938Y-46840D01*
X56998Y-46900D01*
X57155Y-46964D01*
X57324Y-46965D01*
X57480Y-46900D01*
X57600Y-46781D01*
X57664Y-46624D01*
X57665Y-46455D01*
X57665Y-48725D01*
X57591Y-48725D01*
X57526Y-48568D01*
X57262Y-48304D01*
X56917Y-48161D01*
X56544Y-48160D01*
X56198Y-48303D01*
X55934Y-48567D01*
X55791Y-48912D01*
X55790Y-49285D01*
X55933Y-49631D01*
X56197Y-49895D01*
X56542Y-50038D01*
X56915Y-50039D01*
X57261Y-49896D01*
X57525Y-49632D01*
X57591Y-49475D01*
X60608Y-49475D01*
X60673Y-49631D01*
X60937Y-49895D01*
X61282Y-50038D01*
X61655Y-50039D01*
X62001Y-49896D01*
X62265Y-49632D01*
X62408Y-49287D01*
X62409Y-48914D01*
X62266Y-48568D01*
X62002Y-48304D01*
X61657Y-48161D01*
X61284Y-48160D01*
X60938Y-48303D01*
X60674Y-48567D01*
X60608Y-48725D01*
X60474Y-48725D01*
X61174Y-48025D01*
X63898Y-48025D01*
X63958Y-48085D01*
X64115Y-48149D01*
X64284Y-48150D01*
X64440Y-48085D01*
X64560Y-47966D01*
X64624Y-47809D01*
X64625Y-47640D01*
X64625Y-50175D01*
X54000Y-50175D01*
X48825Y-50150D01*
X48825Y-34450D01*
X48849Y-29250D01*
X69850Y-29250D01*
X69850Y-39015D01*
X69445Y-38610D01*
X69445Y-32975D01*
X69311Y-32652D01*
X69064Y-32404D01*
X68740Y-32270D01*
X68390Y-32269D01*
X68067Y-32403D01*
X67819Y-32650D01*
X67685Y-32974D01*
X67684Y-33324D01*
X67818Y-33647D01*
X68065Y-33895D01*
X68389Y-34029D01*
X68739Y-34030D01*
X69062Y-33896D01*
X69310Y-33649D01*
X69444Y-33325D01*
X69445Y-32975D01*
X69445Y-38610D01*
X69395Y-38560D01*
X69395Y-38545D01*
X69330Y-38389D01*
X69211Y-38269D01*
X69054Y-38205D01*
X68885Y-38204D01*
X68729Y-38269D01*
X68609Y-38388D01*
X68545Y-38545D01*
X68544Y-38714D01*
X68609Y-38870D01*
X68728Y-38990D01*
X68885Y-39054D01*
X68899Y-39054D01*
X69420Y-39574D01*
X69420Y-44935D01*
X69370Y-44984D01*
X69295Y-44984D01*
X69139Y-45049D01*
X69019Y-45168D01*
X68955Y-45325D01*
X68954Y-45494D01*
X69019Y-45650D01*
X69138Y-45770D01*
X69295Y-45834D01*
X69464Y-45835D01*
X69620Y-45770D01*
X69740Y-45651D01*
X69772Y-45572D01*
X69850Y-45494D01*
X69850Y-50175D01*
M02*
